STARTFONT 2.1
FONT -Baekmuk-Dotum-Medium-R-Normal--20-200-75-75-M-200-ksx1001.1997-0
SIZE 20 75 75
FONTBOUNDINGBOX 20 20 0 -4
STARTPROPERTIES 18
FOUNDRY "Baekmuk"
FAMILY_NAME "Dotum"
WEIGHT_NAME "Medium"
SLANT "R"
SETWIDTH_NAME "Normal"
ADD_STYLE_NAME ""
PIXEL_SIZE 20
POINT_SIZE 200
RESOLUTION_X 75
RESOLUTION_Y 75
SPACING "M"
AVERAGE_WIDTH 200
CHARSET_REGISTRY "ksx1001.1997"
CHARSET_ENCODING "0"
DEFAULT_CHAR 8481
FONT_ASCENT 16
FONT_DESCENT 4
COPYRIGHT "(c)Hwan Design Inc. and Mizi Research Inc."
ENDPROPERTIES
CHARS 8224
STARTCHAR 3000
ENCODING 8481
SWIDTH 2000 0
DWIDTH 20 0
BBX 0 0 0 0
BITMAP
ENDCHAR
STARTCHAR 3001
ENCODING 8482
SWIDTH 2000 0
DWIDTH 20 0
BBX 3 3 9 12
BITMAP
80
60
20
ENDCHAR
STARTCHAR 3002
ENCODING 8483
SWIDTH 2000 0
DWIDTH 20 0
BBX 5 5 8 11
BITMAP
70
90
88
90
70
ENDCHAR
STARTCHAR 00B7
ENCODING 8484
SWIDTH 2000 0
DWIDTH 20 0
BBX 3 3 8 5
BITMAP
E0
E0
E0
ENDCHAR
STARTCHAR 2025
ENCODING 8485
SWIDTH 2000 0
DWIDTH 20 0
BBX 12 2 4 5
BITMAP
C030
C030
ENDCHAR
STARTCHAR 2026
ENCODING 8486
SWIDTH 2000 0
DWIDTH 20 0
BBX 14 2 3 5
BITMAP
C30C
C30C
ENDCHAR
STARTCHAR 00A8
ENCODING 8487
SWIDTH 2000 0
DWIDTH 20 0
BBX 8 2 6 14
BITMAP
C3
C3
ENDCHAR
STARTCHAR 3003
ENCODING 8488
SWIDTH 2000 0
DWIDTH 20 0
BBX 6 6 7 3
BITMAP
24
68
48
48
90
90
ENDCHAR
STARTCHAR 00AD
ENCODING 8489
SWIDTH 2000 0
DWIDTH 20 0
BBX 8 1 6 5
BITMAP
FF
ENDCHAR
STARTCHAR 2015
ENCODING 8490
SWIDTH 2000 0
DWIDTH 20 0
BBX 20 1 0 6
BITMAP
FFFFF0
ENDCHAR
STARTCHAR 2225
ENCODING 8491
SWIDTH 2000 0
DWIDTH 20 0
BBX 6 16 7 -2
BITMAP
84
84
84
84
84
84
84
84
84
84
84
84
84
84
84
84
ENDCHAR
STARTCHAR FF3C
ENCODING 8492
SWIDTH 2000 0
DWIDTH 20 0
BBX 16 16 2 -2
BITMAP
8000
4000
2000
1000
0800
0400
0200
0100
0080
0040
0020
0010
0008
0004
0002
0001
ENDCHAR
STARTCHAR 223C
ENCODING 8493
SWIDTH 2000 0
DWIDTH 20 0
BBX 12 3 4 5
BITMAP
3800
CE10
03E0
ENDCHAR
STARTCHAR 2018
ENCODING 8494
SWIDTH 2000 0
DWIDTH 20 0
BBX 2 4 13 11
BITMAP
80
80
80
C0
ENDCHAR
STARTCHAR 2019
ENCODING 8495
SWIDTH 2000 0
DWIDTH 20 0
BBX 2 4 5 12
BITMAP
40
C0
40
40
ENDCHAR
STARTCHAR 201C
ENCODING 8496
SWIDTH 2000 0
DWIDTH 20 0
BBX 7 5 9 11
BITMAP
20
44
84
C4
66
ENDCHAR
STARTCHAR 201D
ENCODING 8497
SWIDTH 2000 0
DWIDTH 20 0
BBX 7 4 4 12
BITMAP
C4
C6
44
44
ENDCHAR
STARTCHAR 3014
ENCODING 8498
SWIDTH 2000 0
DWIDTH 20 0
BBX 4 18 14 -3
BITMAP
10
E0
80
80
80
80
80
80
80
80
80
80
80
80
80
80
C0
30
ENDCHAR
STARTCHAR 3015
ENCODING 8499
SWIDTH 2000 0
DWIDTH 20 0
BBX 4 18 2 -3
BITMAP
80
70
10
10
10
10
10
10
10
10
10
10
10
10
10
10
30
C0
ENDCHAR
STARTCHAR 3008
ENCODING 8500
SWIDTH 2000 0
DWIDTH 20 0
BBX 8 17 6 -2
BITMAP
01
02
04
08
10
10
20
40
80
40
20
20
10
08
0C
04
02
ENDCHAR
STARTCHAR 3009
ENCODING 8501
SWIDTH 2000 0
DWIDTH 20 0
BBX 7 17 6 -3
BITMAP
40
20
10
10
08
04
02
02
02
02
04
08
10
10
20
40
80
ENDCHAR
STARTCHAR 300A
ENCODING 8502
SWIDTH 2000 0
DWIDTH 20 0
BBX 8 18 6 -3
BITMAP
05
0A
14
14
28
28
50
50
A0
A0
50
50
28
28
14
0C
0A
05
ENDCHAR
STARTCHAR 300B
ENCODING 8503
SWIDTH 2000 0
DWIDTH 20 0
BBX 8 18 6 -3
BITMAP
A0
A0
50
28
28
14
14
0A
05
06
0A
14
14
28
30
50
A0
A0
ENDCHAR
STARTCHAR 300C
ENCODING 8504
SWIDTH 2000 0
DWIDTH 20 0
BBX 6 10 12 6
BITMAP
FC
80
80
80
80
80
80
80
80
80
ENDCHAR
STARTCHAR 300D
ENCODING 8505
SWIDTH 2000 0
DWIDTH 20 0
BBX 6 10 2 -4
BITMAP
04
04
04
04
04
04
04
04
04
FC
ENDCHAR
STARTCHAR 300E
ENCODING 8506
SWIDTH 2000 0
DWIDTH 20 0
BBX 8 10 10 6
BITMAP
FF
81
BF
A0
A0
A0
A0
A0
A0
E0
ENDCHAR
STARTCHAR 300F
ENCODING 8507
SWIDTH 2000 0
DWIDTH 20 0
BBX 9 10 1 -4
BITMAP
0380
0280
0280
0280
0280
0280
0280
FE80
8080
FF80
ENDCHAR
STARTCHAR 3010
ENCODING 8508
SWIDTH 2000 0
DWIDTH 20 0
BBX 6 18 12 -3
BITMAP
FC
F8
F0
F0
F0
E0
E0
E0
E0
E0
E0
E0
E0
F0
F0
F0
F8
FC
ENDCHAR
STARTCHAR 3011
ENCODING 8509
SWIDTH 2000 0
DWIDTH 20 0
BBX 6 18 2 -3
BITMAP
7C
7C
3C
3C
3C
1C
1C
1C
1C
1C
1C
1C
1C
3C
3C
3C
7C
FC
ENDCHAR
STARTCHAR 00B1
ENCODING 8510
SWIDTH 2000 0
DWIDTH 20 0
BBX 13 13 3 0
BITMAP
0200
0200
0200
0200
0200
FFF8
0200
0200
0200
0200
0200
0000
7FF8
ENDCHAR
STARTCHAR 00D7
ENCODING 8511
SWIDTH 2000 0
DWIDTH 20 0
BBX 12 12 4 0
BITMAP
8010
4020
2040
1080
0900
0600
0600
0900
3080
6040
C020
8010
ENDCHAR
STARTCHAR 00F7
ENCODING 8512
SWIDTH 2000 0
DWIDTH 20 0
BBX 14 12 3 0
BITMAP
0300
0300
0000
0000
0000
FFFC
0000
0000
0000
0000
0300
0300
ENDCHAR
STARTCHAR 2260
ENCODING 8513
SWIDTH 2000 0
DWIDTH 20 0
BBX 14 12 3 0
BITMAP
0400
0400
0400
0200
FFFC
0200
0200
FFFC
0100
0100
0100
0080
ENDCHAR
STARTCHAR 2264
ENCODING 8514
SWIDTH 2000 0
DWIDTH 20 0
BBX 14 12 3 1
BITMAP
000C
0030
01C0
0600
3800
4000
3800
0700
00C0
0038
0000
FFFC
ENDCHAR
STARTCHAR 2265
ENCODING 8515
SWIDTH 2000 0
DWIDTH 20 0
BBX 14 13 3 0
BITMAP
C000
3000
0E00
0180
0060
001C
0070
0180
0E00
7000
0000
0000
FFF8
ENDCHAR
STARTCHAR 221E
ENCODING 8516
SWIDTH 2000 0
DWIDTH 20 0
BBX 16 8 2 2
BITMAP
3C3C
4242
8181
8101
8101
C281
4242
3C3C
ENDCHAR
STARTCHAR 2234
ENCODING 8517
SWIDTH 2000 0
DWIDTH 20 0
BBX 12 10 4 1
BITMAP
0600
0600
0000
0000
0000
0000
0000
0000
C030
C030
ENDCHAR
STARTCHAR 00B0
ENCODING 8518
SWIDTH 2000 0
DWIDTH 20 0
BBX 6 5 7 11
BITMAP
78
CC
84
84
78
ENDCHAR
STARTCHAR 2032
ENCODING 8519
SWIDTH 2000 0
DWIDTH 20 0
BBX 3 5 8 11
BITMAP
20
20
40
80
80
ENDCHAR
STARTCHAR 2033
ENCODING 8520
SWIDTH 2000 0
DWIDTH 20 0
BBX 8 5 6 11
BITMAP
33
26
44
88
08
ENDCHAR
STARTCHAR 2103
ENCODING 8521
SWIDTH 2000 0
DWIDTH 20 0
BBX 15 16 2 0
BITMAP
7000
8800
89F8
720C
0406
0C02
0800
0800
0800
0800
0800
0802
0402
0606
030C
01F0
ENDCHAR
STARTCHAR 212B
ENCODING 8522
SWIDTH 2000 0
DWIDTH 20 0
BBX 14 16 3 0
BITMAP
0780
0480
0480
0300
0000
0700
0500
0D80
08C0
18C0
1060
3020
3FF0
6018
4018
C00C
ENDCHAR
STARTCHAR FFE0
ENCODING 8523
SWIDTH 2000 0
DWIDTH 20 0
BBX 18 18 1 -3
BITMAP
000040
03F080
061900
0C0600
180600
100800
101000
102000
104000
108000
110000
1A0600
0C0400
0C0C00
173800
21C000
400000
800000
ENDCHAR
STARTCHAR FFE1
ENCODING 8524
SWIDTH 2000 0
DWIDTH 20 0
BBX 13 14 4 0
BITMAP
01E0
0230
0610
0400
0400
0400
0400
7FE0
0600
0400
2400
DC08
8BF0
51E0
ENDCHAR
STARTCHAR FFE5
ENCODING 8525
SWIDTH 2000 0
DWIDTH 20 0
BBX 11 14 4 0
BITMAP
4060
4040
20C0
3080
FFE0
1900
0E00
0400
FFE0
0400
0400
0400
0400
0400
ENDCHAR
STARTCHAR 2642
ENCODING 8526
SWIDTH 2000 0
DWIDTH 20 0
BBX 11 18 4 -3
BITMAP
0400
0E00
1500
2480
4440
8420
0400
0400
0400
0400
0400
1F00
2080
2080
2080
2080
2080
1F00
ENDCHAR
STARTCHAR 2640
ENCODING 8527
SWIDTH 2000 0
DWIDTH 20 0
BBX 13 18 3 -3
BITMAP
0F80
1840
1040
1040
1040
1040
0C80
0300
0200
0200
FFF8
0200
0200
0200
0200
0200
0200
0200
ENDCHAR
STARTCHAR 2220
ENCODING 8528
SWIDTH 2000 0
DWIDTH 20 0
BBX 12 11 4 1
BITMAP
0020
0040
0080
0100
0200
0400
0800
1000
2000
4000
FFF0
ENDCHAR
STARTCHAR 22A5
ENCODING 8529
SWIDTH 2000 0
DWIDTH 20 0
BBX 13 11 3 1
BITMAP
0200
0200
0200
0200
0200
0200
0200
0200
0200
0200
FFF8
ENDCHAR
STARTCHAR 2312
ENCODING 8530
SWIDTH 2000 0
DWIDTH 20 0
BBX 12 4 4 12
BITMAP
0F80
3040
4020
8010
ENDCHAR
STARTCHAR 2202
ENCODING 8531
SWIDTH 2000 0
DWIDTH 20 0
BBX 9 15 5 -2
BITMAP
0F00
1180
0080
0080
0080
0080
1C80
2280
6100
4100
C100
C200
4200
6400
1800
ENDCHAR
STARTCHAR 2207
ENCODING 8532
SWIDTH 2000 0
DWIDTH 20 0
BBX 16 12 2 1
BITMAP
FFFF
8002
4004
2004
2008
1008
0810
0820
0420
0440
0280
0180
ENDCHAR
STARTCHAR 2261
ENCODING 8533
SWIDTH 2000 0
DWIDTH 20 0
BBX 14 8 3 2
BITMAP
FFFC
0000
0000
FFFC
0000
0000
0000
FFFC
ENDCHAR
STARTCHAR 2252
ENCODING 8534
SWIDTH 2000 0
DWIDTH 20 0
BBX 14 12 3 0
BITMAP
3000
3000
0000
0000
FFFC
0000
0000
FFFC
0000
0000
0030
0030
ENDCHAR
STARTCHAR 00A7
ENCODING 8535
SWIDTH 2000 0
DWIDTH 20 0
BBX 8 18 6 -3
BITMAP
3C
46
C6
E2
60
38
1C
EE
86
C3
63
3E
1C
0E
67
63
63
3E
ENDCHAR
STARTCHAR 203B
ENCODING 8536
SWIDTH 2000 0
DWIDTH 20 0
BBX 12 13 4 -1
BITMAP
0710
8720
6740
1080
0900
E670
E470
EE70
1900
3780
6740
C720
8010
ENDCHAR
STARTCHAR 2606
ENCODING 8537
SWIDTH 2000 0
DWIDTH 20 0
BBX 16 15 2 -2
BITMAP
0180
0180
0240
0240
FC3F
4004
2008
1010
0820
0810
1110
12D0
1C28
3018
2000
ENDCHAR
STARTCHAR 2605
ENCODING 8538
SWIDTH 2000 0
DWIDTH 20 0
BBX 14 15 3 -2
BITMAP
0300
0300
0300
0780
0780
FFFC
7FF8
3FF0
0FC0
1FE0
1FE0
1CE0
3870
2010
4000
ENDCHAR
STARTCHAR 25CB
ENCODING 8539
SWIDTH 2000 0
DWIDTH 20 0
BBX 16 17 2 -3
BITMAP
07E0
1818
300C
2006
4002
4003
8001
8001
8001
8001
8001
C003
4002
2006
300C
1818
07E0
ENDCHAR
STARTCHAR 25CF
ENCODING 8540
SWIDTH 2000 0
DWIDTH 20 0
BBX 16 16 2 -2
BITMAP
07E0
1FF8
3FFC
7FFE
7FFF
FFFF
FFFF
FFFF
FFFF
FFFF
FFFF
7FFF
7FFE
3FFC
1FF8
07E0
ENDCHAR
STARTCHAR 25CE
ENCODING 8541
SWIDTH 2000 0
DWIDTH 20 0
BBX 16 17 2 -3
BITMAP
07E0
1C38
37CC
2C36
500A
F00F
A005
A005
A005
A005
9009
981A
4C32
43C4
2008
1810
07E0
ENDCHAR
STARTCHAR 25C7
ENCODING 8542
SWIDTH 2000 0
DWIDTH 20 0
BBX 18 18 1 -3
BITMAP
004000
01A000
021000
040800
080400
100200
200100
400080
800040
800040
400080
200100
100200
080400
040800
021000
012000
00C000
ENDCHAR
STARTCHAR 25C6
ENCODING 8543
SWIDTH 2000 0
DWIDTH 20 0
BBX 18 18 1 -3
BITMAP
004000
00E000
01F000
07F800
0FFC00
1FFE00
3FFF00
7FFF80
FFFFC0
FFFFC0
7FFF80
3FFF00
1FFE00
0FFC00
07F800
03F000
01E000
008000
ENDCHAR
STARTCHAR 25A1
ENCODING 8544
SWIDTH 2000 0
DWIDTH 20 0
BBX 16 16 2 -2
BITMAP
FFFF
8001
8001
8001
8001
8001
8001
8001
8001
8001
8001
8001
8001
8001
8001
FFFF
ENDCHAR
STARTCHAR 25A0
ENCODING 8545
SWIDTH 2000 0
DWIDTH 20 0
BBX 16 16 2 -2
BITMAP
FFFF
FFFF
FFFF
FFFF
FFFF
FFFF
FFFF
FFFF
FFFF
FFFF
FFFF
FFFF
FFFF
FFFF
FFFF
FFFF
ENDCHAR
STARTCHAR 25B3
ENCODING 8546
SWIDTH 2000 0
DWIDTH 20 0
BBX 18 14 1 -1
BITMAP
008000
014000
012000
022000
041000
040800
080800
080400
100400
200200
200100
400100
800080
FFFFC0
ENDCHAR
STARTCHAR 25B2
ENCODING 8547
SWIDTH 2000 0
DWIDTH 20 0
BBX 18 13 1 -1
BITMAP
00C000
01E000
01E000
03F000
03F800
07F800
0FFC00
0FFC00
1FFE00
3FFF00
3FFF00
7FFF80
FFFFC0
ENDCHAR
STARTCHAR 25BD
ENCODING 8548
SWIDTH 2000 0
DWIDTH 20 0
BBX 18 14 1 0
BITMAP
FFFFC0
800080
400100
200100
200200
100200
100400
080800
040800
041000
021000
022000
014000
00C000
ENDCHAR
STARTCHAR 25BC
ENCODING 8549
SWIDTH 2000 0
DWIDTH 20 0
BBX 18 13 1 0
BITMAP
FFFFC0
7FFF80
3FFF00
3FFF00
1FFE00
0FFC00
0FFC00
07F800
03F800
03F000
01E000
01E000
00C000
ENDCHAR
STARTCHAR 2192
ENCODING 8550
SWIDTH 2000 0
DWIDTH 20 0
BBX 18 5 1 4
BITMAP
000200
000180
FFFFC0
000180
000200
ENDCHAR
STARTCHAR 2190
ENCODING 8551
SWIDTH 2000 0
DWIDTH 20 0
BBX 17 6 2 3
BITMAP
100000
600000
FFFF80
C00000
600000
100000
ENDCHAR
STARTCHAR 2191
ENCODING 8552
SWIDTH 2000 0
DWIDTH 20 0
BBX 5 18 7 -3
BITMAP
20
20
70
A8
20
20
20
20
20
20
20
20
20
20
20
20
20
20
ENDCHAR
STARTCHAR 2193
ENCODING 8553
SWIDTH 2000 0
DWIDTH 20 0
BBX 5 18 8 -3
BITMAP
20
20
20
20
20
20
20
20
20
20
20
20
20
20
A8
70
60
20
ENDCHAR
STARTCHAR 2194
ENCODING 8554
SWIDTH 2000 0
DWIDTH 20 0
BBX 16 5 2 4
BITMAP
2000
4004
FFFF
4003
2004
ENDCHAR
STARTCHAR 3013
ENCODING 8555
SWIDTH 2000 0
DWIDTH 20 0
BBX 14 4 3 4
BITMAP
FFFC
0000
0000
FFFC
ENDCHAR
STARTCHAR 226A
ENCODING 8556
SWIDTH 2000 0
DWIDTH 20 0
BBX 15 14 3 -1
BITMAP
0042
008C
0310
0460
1880
2300
C400
8400
6200
1180
0C40
0230
0188
0046
ENDCHAR
STARTCHAR 226B
ENCODING 8557
SWIDTH 2000 0
DWIDTH 20 0
BBX 15 14 2 -1
BITMAP
8400
6200
1180
0C40
0230
0188
0046
0042
008C
0310
0460
1880
6300
8400
ENDCHAR
STARTCHAR 221A
ENCODING 8558
SWIDTH 2000 0
DWIDTH 20 0
BBX 18 16 1 -1
BITMAP
003FC0
004000
004000
008000
008000
008000
010000
010000
020000
020000
620000
A40000
240000
180000
180000
180000
ENDCHAR
STARTCHAR 223D
ENCODING 8559
SWIDTH 2000 0
DWIDTH 20 0
BBX 16 8 2 2
BITMAP
3C1C
4063
8041
8081
8101
8101
4202
3C1C
ENDCHAR
STARTCHAR 221D
ENCODING 8560
SWIDTH 2000 0
DWIDTH 20 0
BBX 14 8 3 2
BITMAP
3818
4660
8280
8180
8100
8180
4240
3C3C
ENDCHAR
STARTCHAR 2235
ENCODING 8561
SWIDTH 2000 0
DWIDTH 20 0
BBX 12 10 4 1
BITMAP
C030
C030
0000
0000
0000
0000
0000
0000
0600
0600
ENDCHAR
STARTCHAR 222B
ENCODING 8562
SWIDTH 2000 0
DWIDTH 20 0
BBX 4 18 8 -3
BITMAP
70
B0
80
80
80
C0
40
40
60
60
20
20
30
10
10
20
E0
E0
ENDCHAR
STARTCHAR 222C
ENCODING 8563
SWIDTH 2000 0
DWIDTH 20 0
BBX 9 18 5 -3
BITMAP
3180
5280
8200
4200
4200
4200
4300
6300
2100
2180
3180
1080
1080
1080
1080
1080
5280
6300
ENDCHAR
STARTCHAR 2208
ENCODING 8564
SWIDTH 2000 0
DWIDTH 20 0
BBX 14 12 3 0
BITMAP
1FFC
2000
C000
8000
8000
FFFC
8000
8000
8000
4000
3000
0FF8
ENDCHAR
STARTCHAR 220B
ENCODING 8565
SWIDTH 2000 0
DWIDTH 20 0
BBX 14 12 3 0
BITMAP
FFE0
0010
0008
0004
0004
FFFC
0004
0004
0004
0008
0010
FFE0
ENDCHAR
STARTCHAR 2286
ENCODING 8566
SWIDTH 2000 0
DWIDTH 20 0
BBX 13 12 3 0
BITMAP
1FF8
2000
4000
4000
8000
8000
4000
2000
1FF8
0000
0000
7FF8
ENDCHAR
STARTCHAR 2287
ENCODING 8567
SWIDTH 2000 0
DWIDTH 20 0
BBX 13 12 3 0
BITMAP
FFC0
0030
0010
0008
0008
0008
0010
0030
FFC0
0000
0000
7FF8
ENDCHAR
STARTCHAR 2282
ENCODING 8568
SWIDTH 2000 0
DWIDTH 20 0
BBX 15 12 2 0
BITMAP
0FFE
1000
2000
4000
4000
8000
8000
4000
4000
2000
1000
0FFE
ENDCHAR
STARTCHAR 2283
ENCODING 8569
SWIDTH 2000 0
DWIDTH 20 0
BBX 14 11 3 0
BITMAP
FFE0
0018
0008
0004
0004
0004
0004
0004
0008
0008
FFF0
ENDCHAR
STARTCHAR 222A
ENCODING 8570
SWIDTH 2000 0
DWIDTH 20 0
BBX 12 14 4 -1
BITMAP
8010
8010
8010
8010
8010
8010
8010
8010
8010
8010
8010
4020
2040
1F80
ENDCHAR
STARTCHAR 2229
ENCODING 8571
SWIDTH 2000 0
DWIDTH 20 0
BBX 12 14 4 -1
BITMAP
1F80
2040
4020
8010
8010
8010
8010
8010
8010
8010
8010
8010
8010
8010
ENDCHAR
STARTCHAR 2227
ENCODING 8572
SWIDTH 2000 0
DWIDTH 20 0
BBX 12 11 4 0
BITMAP
0600
0A00
0900
1080
1080
2040
2040
4020
8020
8010
0010
ENDCHAR
STARTCHAR 2228
ENCODING 8573
SWIDTH 2000 0
DWIDTH 20 0
BBX 12 11 4 0
BITMAP
8010
8020
4020
4040
2040
2080
1080
1100
0900
0A00
0600
ENDCHAR
STARTCHAR FFE2
ENCODING 8574
SWIDTH 2000 0
DWIDTH 20 0
BBX 13 7 3 2
BITMAP
FFF8
0008
0008
0008
0008
0008
0008
ENDCHAR
STARTCHAR 21D2
ENCODING 8737
SWIDTH 2000 0
DWIDTH 20 0
BBX 18 9 1 1
BITMAP
000200
FFFF00
000080
000040
0000C0
FFFF80
000100
000200
000400
ENDCHAR
STARTCHAR 21D4
ENCODING 8738
SWIDTH 2000 0
DWIDTH 20 0
BBX 16 11 2 1
BITMAP
0800
1810
1008
2004
7FFE
8001
8001
7FFE
2004
1008
0810
ENDCHAR
STARTCHAR 2200
ENCODING 8739
SWIDTH 2000 0
DWIDTH 20 0
BBX 14 15 3 -1
BITMAP
8004
8008
4008
4010
2010
3FF0
2020
1020
1040
0840
0880
0880
0480
0500
0300
ENDCHAR
STARTCHAR 2203
ENCODING 8740
SWIDTH 2000 0
DWIDTH 20 0
BBX 10 14 5 -1
BITMAP
FFC0
0040
0040
0040
0040
0040
0040
FFC0
0040
0040
0040
0040
0040
FFC0
ENDCHAR
STARTCHAR 00B4
ENCODING 8741
SWIDTH 2000 0
DWIDTH 20 0
BBX 3 3 8 13
BITMAP
60
40
80
ENDCHAR
STARTCHAR FF5E
ENCODING 8742
SWIDTH 2000 0
DWIDTH 20 0
BBX 8 3 6 12
BITMAP
F0
BF
0E
ENDCHAR
STARTCHAR 02C7
ENCODING 8743
SWIDTH 2000 0
DWIDTH 20 0
BBX 6 3 7 13
BITMAP
04
D8
70
ENDCHAR
STARTCHAR 02D8
ENCODING 8744
SWIDTH 2000 0
DWIDTH 20 0
BBX 6 2 7 13
BITMAP
84
78
ENDCHAR
STARTCHAR 02DD
ENCODING 8745
SWIDTH 2000 0
DWIDTH 20 0
BBX 6 2 7 14
BITMAP
4C
90
ENDCHAR
STARTCHAR 02DA
ENCODING 8746
SWIDTH 2000 0
DWIDTH 20 0
BBX 4 4 8 11
BITMAP
60
90
A0
60
ENDCHAR
STARTCHAR 02D9
ENCODING 8747
SWIDTH 2000 0
DWIDTH 20 0
BBX 2 2 9 14
BITMAP
C0
C0
ENDCHAR
STARTCHAR 00B8
ENCODING 8748
SWIDTH 2000 0
DWIDTH 20 0
BBX 2 3 10 -3
BITMAP
80
C0
80
ENDCHAR
STARTCHAR 02DB
ENCODING 8749
SWIDTH 2000 0
DWIDTH 20 0
BBX 3 2 8 -3
BITMAP
80
60
ENDCHAR
STARTCHAR 00A1
ENCODING 8750
SWIDTH 2000 0
DWIDTH 20 0
BBX 2 15 9 -2
BITMAP
C0
C0
00
00
00
00
80
80
80
80
80
C0
C0
C0
C0
ENDCHAR
STARTCHAR 00BF
ENCODING 8751
SWIDTH 2000 0
DWIDTH 20 0
BBX 6 14 7 -1
BITMAP
18
18
00
00
08
08
18
78
C0
80
80
80
44
3C
ENDCHAR
STARTCHAR 02D0
ENCODING 8752
SWIDTH 2000 0
DWIDTH 20 0
BBX 2 9 9 2
BITMAP
C0
C0
00
00
00
00
00
C0
C0
ENDCHAR
STARTCHAR 222E
ENCODING 8753
SWIDTH 2000 0
DWIDTH 20 0
BBX 7 16 6 -2
BITMAP
06
08
10
10
10
10
78
54
54
58
30
20
20
20
20
C0
ENDCHAR
STARTCHAR 2211
ENCODING 8754
SWIDTH 2000 0
DWIDTH 20 0
BBX 16 17 2 -2
BITMAP
FFFF
E003
3003
1803
0C01
0601
0381
01C0
0080
0100
0200
0400
0801
1001
2001
7FFF
FFFF
ENDCHAR
STARTCHAR 220F
ENCODING 8755
SWIDTH 2000 0
DWIDTH 20 0
BBX 16 18 2 -3
BITMAP
FFFF
300C
300C
300C
300C
300C
300C
300C
300C
300C
300C
300C
300C
300C
300C
300C
300C
FC3F
ENDCHAR
STARTCHAR 00A4
ENCODING 8756
SWIDTH 2000 0
DWIDTH 20 0
BBX 14 14 3 -1
BITMAP
8004
CF88
7070
2010
4010
4008
8008
8008
4010
4010
2020
3050
4F88
8004
ENDCHAR
STARTCHAR 2109
ENCODING 8757
SWIDTH 2000 0
DWIDTH 20 0
BBX 15 14 2 0
BITMAP
01FE
E100
9100
9100
6100
0100
01FE
0100
0100
0100
0100
0100
0100
0100
ENDCHAR
STARTCHAR 2030
ENCODING 8758
SWIDTH 2000 0
DWIDTH 20 0
BBX 17 18 2 -3
BITMAP
780800
881000
842000
844000
844000
848000
850000
4A0000
320000
058700
0A4880
122880
122880
222880
422880
822880
824900
01C600
ENDCHAR
STARTCHAR 25C1
ENCODING 8759
SWIDTH 2000 0
DWIDTH 20 0
BBX 12 16 4 -2
BITMAP
0010
0070
0090
0310
0410
1810
6010
8010
8010
4010
3010
0C10
0210
0190
0050
0030
ENDCHAR
STARTCHAR 25C0
ENCODING 8760
SWIDTH 2000 0
DWIDTH 20 0
BBX 11 16 5 -2
BITMAP
0020
0060
01E0
03E0
0FE0
1FE0
7FE0
FFE0
FFE0
7FE0
1FE0
0FE0
03E0
01E0
0060
0020
ENDCHAR
STARTCHAR 25B7
ENCODING 8761
SWIDTH 2000 0
DWIDTH 20 0
BBX 12 16 4 -2
BITMAP
8000
C000
B000
8800
8600
8180
8040
8030
8010
8060
8080
8300
8C00
9000
E000
8000
ENDCHAR
STARTCHAR 25B6
ENCODING 8762
SWIDTH 2000 0
DWIDTH 20 0
BBX 11 16 4 -2
BITMAP
8000
C000
F000
F800
FE00
FF00
FFC0
FFE0
FFE0
FFC0
FF00
FE00
F800
F000
C000
8000
ENDCHAR
STARTCHAR 2664
ENCODING 8763
SWIDTH 2000 0
DWIDTH 20 0
BBX 14 17 3 -3
BITMAP
0300
0480
08C0
0840
1020
2010
6018
4008
C00C
8004
8004
478C
7FF8
0580
0480
0780
0FC0
ENDCHAR
STARTCHAR 2660
ENCODING 8764
SWIDTH 2000 0
DWIDTH 20 0
BBX 14 17 3 -3
BITMAP
0300
0780
0FC0
0FE0
1FE0
3FF0
7FF8
7FF8
FFFC
FFFC
FFFC
FFFC
FF7C
7B78
0300
0780
0780
ENDCHAR
STARTCHAR 2661
ENCODING 8765
SWIDTH 2000 0
DWIDTH 20 0
BBX 14 16 3 -2
BITMAP
3CF0
7CF8
C78C
8304
8304
8004
C004
4008
6008
2010
3030
1020
0840
0CC0
0780
0300
ENDCHAR
STARTCHAR 2665
ENCODING 8766
SWIDTH 2000 0
DWIDTH 20 0
BBX 16 17 2 -3
BITMAP
7E7C
7E7E
FFFF
FFFF
FFFF
FFFF
FFFF
7FFE
7FFE
3FFC
1FF8
1FF8
0FF0
07E0
03C0
01C0
0180
ENDCHAR
STARTCHAR 2667
ENCODING 8767
SWIDTH 2000 0
DWIDTH 20 0
BBX 17 17 1 -3
BITMAP
03E000
041000
041000
0C1000
041000
063000
136C00
6F7300
C00080
800080
800080
C36080
E77B00
7D5F00
014000
03E000
03E000
ENDCHAR
STARTCHAR 2663
ENCODING 8768
SWIDTH 2000 0
DWIDTH 20 0
BBX 18 17 1 -2
BITMAP
01E000
03F000
07F800
07F800
07F800
03F000
03F000
3DEF00
7FFF80
7FFF80
FFFFC0
7FBF80
7EDF80
3CDF00
00C000
01E000
01E000
ENDCHAR
STARTCHAR 2299
ENCODING 8769
SWIDTH 2000 0
DWIDTH 20 0
BBX 18 17 1 -2
BITMAP
01E000
061800
180600
200100
43F100
87F880
8FFC40
8FFC40
8FFC40
8FFC40
8FFC40
CFFCC0
47F880
23F100
300300
0C0C00
03F000
ENDCHAR
STARTCHAR 25C8
ENCODING 8770
SWIDTH 2000 0
DWIDTH 20 0
BBX 18 18 1 -3
BITMAP
004000
01A000
021000
04C800
09E400
13F200
27F900
4FFC80
9FFE40
9FFE40
4FFC80
27F900
13F200
09E400
04C800
021000
012000
00C000
ENDCHAR
STARTCHAR 25A3
ENCODING 8771
SWIDTH 2000 0
DWIDTH 20 0
BBX 16 16 2 -2
BITMAP
FFFF
8001
8001
8001
8FF1
8FF1
8FF1
8FF1
8FF1
8FF1
8FF1
8FF1
8001
8001
8001
FFFF
ENDCHAR
STARTCHAR 25D0
ENCODING 8772
SWIDTH 2000 0
DWIDTH 20 0
BBX 16 17 3 -2
BITMAP
0180
0660
1E18
3E04
7E02
FE02
FE01
FE01
FE01
FE01
FE01
FE03
FE02
7E06
3E0C
1E38
07E0
ENDCHAR
STARTCHAR 25D1
ENCODING 8773
SWIDTH 2000 0
DWIDTH 20 0
BBX 16 16 1 -2
BITMAP
07E0
1878
207C
407E
407F
807F
807F
807F
807F
807F
807F
407F
607E
207C
1878
0660
ENDCHAR
STARTCHAR 2592
ENCODING 8774
SWIDTH 2000 0
DWIDTH 20 0
BBX 16 16 2 -2
BITMAP
FFFF
A493
8001
C925
A493
C925
8001
A493
C925
8001
A493
C925
8001
A493
C925
FFFF
ENDCHAR
STARTCHAR 25A4
ENCODING 8775
SWIDTH 2000 0
DWIDTH 20 0
BBX 16 16 2 -2
BITMAP
FFFF
8001
8001
8001
FFFF
8001
8001
8001
FFFF
8001
8001
FFFF
8001
8001
8001
FFFF
ENDCHAR
STARTCHAR 25A5
ENCODING 8776
SWIDTH 2000 0
DWIDTH 20 0
BBX 16 16 2 -2
BITMAP
FFFF
8911
8911
8911
8911
8911
8911
8911
8911
8911
8911
8911
8911
8911
8911
FFFF
ENDCHAR
STARTCHAR 25A8
ENCODING 8777
SWIDTH 2000 0
DWIDTH 20 0
BBX 16 16 2 -2
BITMAP
FFFF
8103
8205
8409
8811
9021
A041
C081
8107
8209
8411
8821
9041
A081
C101
FFFF
ENDCHAR
STARTCHAR 25A7
ENCODING 8778
SWIDTH 2000 0
DWIDTH 20 0
BBX 16 16 2 -2
BITMAP
FFFF
C101
A081
9041
8821
8411
8309
C185
A0C3
9061
8831
8419
820D
8107
8083
FFFF
ENDCHAR
STARTCHAR 25A6
ENCODING 8779
SWIDTH 2000 0
DWIDTH 20 0
BBX 16 16 2 -2
BITMAP
FFFF
8911
8911
8911
FFFF
8911
8911
8911
FFFF
8911
8911
FFFF
8911
8911
8911
FFFF
ENDCHAR
STARTCHAR 25A9
ENCODING 8780
SWIDTH 2000 0
DWIDTH 20 0
BBX 16 16 2 -2
BITMAP
FFFF
C283
A445
9839
9811
A429
C245
8183
C183
A645
9829
9811
A429
C245
8183
FFFF
ENDCHAR
STARTCHAR 2668
ENCODING 8781
SWIDTH 2000 0
DWIDTH 20 0
BBX 16 17 2 -3
BITMAP
0080
04A0
05A0
0920
0920
0D20
0DB0
0490
0490
0490
24B2
4521
8921
8903
E00F
7FFC
0FF0
ENDCHAR
STARTCHAR 260F
ENCODING 8782
SWIDTH 2000 0
DWIDTH 20 0
BBX 19 14 0 -1
BITMAP
03FC00
1C0380
6EFE40
8AF920
8AF520
94F4A0
650A40
0A0500
120500
220480
220480
210880
40F080
3F0F00
ENDCHAR
STARTCHAR 260E
ENCODING 8783
SWIDTH 2000 0
DWIDTH 20 0
BBX 18 13 1 0
BITMAP
0FF800
3FFF00
77F380
F613C0
F7FBC0
E619C0
0C0C00
1C0E00
1C0E00
3C0F00
3C0F00
7E1F00
7FFF00
ENDCHAR
STARTCHAR 261C
ENCODING 8784
SWIDTH 2000 0
DWIDTH 20 0
BBX 19 8 0 2
BITMAP
3FFC00
C0E3E0
7F0060
06F060
03E860
035060
01A1E0
00DE00
ENDCHAR
STARTCHAR 261E
ENCODING 8785
SWIDTH 2000 0
DWIDTH 20 0
BBX 19 8 1 2
BITMAP
07FF00
F8C0E0
403FC0
43F400
41C800
42B800
717000
8EE000
ENDCHAR
STARTCHAR 00B6
ENCODING 8786
SWIDTH 2000 0
DWIDTH 20 0
BBX 11 18 5 -3
BITMAP
0020
7E20
C220
8220
8220
8220
C220
7E20
1E20
0220
0220
0220
0220
0220
0220
0220
0220
0220
ENDCHAR
STARTCHAR 2020
ENCODING 8787
SWIDTH 2000 0
DWIDTH 20 0
BBX 11 18 5 -3
BITMAP
0400
0400
0400
0400
0400
FFE0
0400
0400
0400
0400
0400
0400
0400
0400
0400
0400
0400
0400
ENDCHAR
STARTCHAR 2021
ENCODING 8788
SWIDTH 2000 0
DWIDTH 20 0
BBX 11 18 4 -3
BITMAP
0400
0400
0400
FFE0
0400
0400
7FC0
0400
0400
0400
0400
0400
0400
0400
0400
0400
0400
0400
ENDCHAR
STARTCHAR 2195
ENCODING 8789
SWIDTH 2000 0
DWIDTH 20 0
BBX 6 16 6 -2
BITMAP
10
38
54
90
10
10
10
10
10
10
10
10
90
54
38
10
ENDCHAR
STARTCHAR 2197
ENCODING 8790
SWIDTH 2000 0
DWIDTH 20 0
BBX 12 12 4 0
BITMAP
01F0
0030
0050
0090
0100
0200
0400
0800
1000
2000
4000
8000
ENDCHAR
STARTCHAR 2199
ENCODING 8791
SWIDTH 2000 0
DWIDTH 20 0
BBX 12 12 4 0
BITMAP
0010
0020
0040
0080
0100
0200
0400
8800
9000
A000
C000
F800
ENDCHAR
STARTCHAR 2196
ENCODING 8792
SWIDTH 2000 0
DWIDTH 20 0
BBX 12 12 4 0
BITMAP
F000
C000
A000
9000
0800
0400
0200
0100
0080
0040
0020
0010
ENDCHAR
STARTCHAR 2198
ENCODING 8793
SWIDTH 2000 0
DWIDTH 20 0
BBX 12 12 4 0
BITMAP
8000
4000
2000
1000
0800
0400
0200
0110
0090
0050
0030
01F0
ENDCHAR
STARTCHAR 266D
ENCODING 8794
SWIDTH 2000 0
DWIDTH 20 0
BBX 6 14 7 -1
BITMAP
80
80
80
80
80
FC
8C
8C
8C
8C
98
90
A0
C0
ENDCHAR
STARTCHAR 2669
ENCODING 8795
SWIDTH 2000 0
DWIDTH 20 0
BBX 5 16 7 -2
BITMAP
08
08
08
08
08
08
08
08
08
08
08
08
08
38
70
E0
ENDCHAR
STARTCHAR 266A
ENCODING 8796
SWIDTH 2000 0
DWIDTH 20 0
BBX 11 16 5 -2
BITMAP
0800
0C00
0E00
0B80
09C0
08C0
0860
0820
0840
0840
0880
0800
0800
3800
7000
E000
ENDCHAR
STARTCHAR 266C
ENCODING 8797
SWIDTH 2000 0
DWIDTH 20 0
BBX 14 15 3 -2
BITMAP
0FFC
0FFC
0804
0FFC
0804
0804
0804
0804
0804
0804
080C
183C
7078
F060
E000
ENDCHAR
STARTCHAR 327F
ENCODING 8798
SWIDTH 2000 0
DWIDTH 20 0
BBX 16 17 2 -3
BITMAP
07E0
1818
3004
6432
4463
84C0
8580
8780
E68F
0441
0461
8421
4412
6006
300C
1FF8
01C0
ENDCHAR
STARTCHAR 321C
ENCODING 8799
SWIDTH 2000 0
DWIDTH 20 0
BBX 20 16 0 -2
BITMAP
100000
27FE80
406040
406040
409020
830C20
840220
800010
8FFF90
802020
802020
402020
402020
202040
202080
100000
ENDCHAR
STARTCHAR 2116
ENCODING 8800
SWIDTH 2000 0
DWIDTH 20 0
BBX 19 14 0 0
BITMAP
C08000
C08000
A08000
A08000
908F00
909080
88A040
88A040
84A040
84A040
82A040
81A040
819080
808F20
ENDCHAR
STARTCHAR 33C7
ENCODING 8801
SWIDTH 2000 0
DWIDTH 20 0
BBX 18 16 1 -1
BITMAP
3C0000
660000
420000
810000
810000
801E00
802100
802100
804080
804080
814080
814080
814080
422100
641240
180C00
ENDCHAR
STARTCHAR 2122
ENCODING 8802
SWIDTH 2000 0
DWIDTH 20 0
BBX 16 14 2 0
BITMAP
FE81
10C3
10C3
10C3
10C3
10C5
10A5
10A5
10A5
10A9
1099
1099
1099
1099
ENDCHAR
STARTCHAR 33C2
ENCODING 8803
SWIDTH 2000 0
DWIDTH 20 0
BBX 19 10 0 0
BITMAP
783F80
842480
842480
042480
3C2480
C42480
842480
842480
842480
7AA4A0
ENDCHAR
STARTCHAR 33D8
ENCODING 8804
SWIDTH 2000 0
DWIDTH 20 0
BBX 18 14 1 -4
BITMAP
387F00
C44900
824900
824900
824900
824900
824900
824900
C44900
ED4940
900000
800000
800000
800000
ENDCHAR
STARTCHAR 2121
ENCODING 8805
SWIDTH 2000 0
DWIDTH 20 0
BBX 16 15 2 0
BITMAP
0001
FE01
1001
1001
1001
10F1
1109
1209
1209
13F9
1201
1209
1309
1109
10F0
ENDCHAR
STARTCHAR FF01
ENCODING 8993
SWIDTH 2000 0
DWIDTH 20 0
BBX 1 14 9 0
BITMAP
80
80
80
80
80
80
80
80
80
80
00
00
80
80
ENDCHAR
STARTCHAR FF02
ENCODING 8994
SWIDTH 2000 0
DWIDTH 20 0
BBX 6 4 7 12
BITMAP
64
4C
88
90
ENDCHAR
STARTCHAR FF03
ENCODING 8995
SWIDTH 2000 0
DWIDTH 20 0
BBX 14 14 3 0
BITMAP
0110
0220
0220
0420
3FFC
0440
0840
0880
FFF0
1180
1100
1100
2100
2200
ENDCHAR
STARTCHAR FF04
ENCODING 8996
SWIDTH 2000 0
DWIDTH 20 0
BBX 9 17 5 -2
BITMAP
0800
1C00
6B00
4900
8880
C800
6800
7800
1E00
0900
0880
8880
8880
4980
2F00
1C00
0800
ENDCHAR
STARTCHAR FF05
ENCODING 8997
SWIDTH 2000 0
DWIDTH 20 0
BBX 14 14 3 0
BITMAP
7820
CC40
8440
8480
8480
CD00
7900
0278
02CC
0484
0484
0884
08CC
1078
ENDCHAR
STARTCHAR FF06
ENCODING 8998
SWIDTH 2000 0
DWIDTH 20 0
BBX 11 14 4 0
BITMAP
1E00
3100
2100
3100
1200
0C00
3C00
6600
4240
C140
C1C0
40C0
61E0
3E20
ENDCHAR
STARTCHAR FF07
ENCODING 8999
SWIDTH 2000 0
DWIDTH 20 0
BBX 2 4 9 12
BITMAP
C0
C0
80
80
ENDCHAR
STARTCHAR FF08
ENCODING 9000
SWIDTH 2000 0
DWIDTH 20 0
BBX 4 18 8 -3
BITMAP
10
20
20
40
40
C0
80
80
80
80
80
80
C0
40
40
20
20
10
ENDCHAR
STARTCHAR FF09
ENCODING 9001
SWIDTH 2000 0
DWIDTH 20 0
BBX 4 18 8 -3
BITMAP
80
40
40
20
20
30
10
10
10
10
10
10
30
20
20
40
40
80
ENDCHAR
STARTCHAR FF0A
ENCODING 9002
SWIDTH 2000 0
DWIDTH 20 0
BBX 7 7 7 3
BITMAP
10
10
D6
3C
38
6C
44
ENDCHAR
STARTCHAR FF0B
ENCODING 9003
SWIDTH 2000 0
DWIDTH 20 0
BBX 13 14 3 -1
BITMAP
0200
0200
0200
0200
0200
0200
0200
FFF8
0200
0200
0200
0200
0200
0200
ENDCHAR
STARTCHAR FF0C
ENCODING 9004
SWIDTH 2000 0
DWIDTH 20 0
BBX 1 5 3 -4
BITMAP
80
80
80
80
80
ENDCHAR
STARTCHAR FF0D
ENCODING 9005
SWIDTH 2000 0
DWIDTH 20 0
BBX 14 1 3 5
BITMAP
FFFC
ENDCHAR
STARTCHAR FF0E
ENCODING 9006
SWIDTH 2000 0
DWIDTH 20 0
BBX 1 2 4 0
BITMAP
80
80
ENDCHAR
STARTCHAR FF0F
ENCODING 9007
SWIDTH 2000 0
DWIDTH 20 0
BBX 18 18 1 -3
BITMAP
000040
000080
000100
000200
000400
000800
001000
002000
004000
008000
010000
020000
040000
080000
100000
200000
400000
800000
ENDCHAR
STARTCHAR FF10
ENCODING 9008
SWIDTH 2000 0
DWIDTH 20 0
BBX 8 14 6 0
BITMAP
3C
66
42
81
81
81
81
81
81
81
81
42
66
3C
ENDCHAR
STARTCHAR FF11
ENCODING 9009
SWIDTH 2000 0
DWIDTH 20 0
BBX 4 14 8 0
BITMAP
10
10
30
F0
10
10
10
10
10
10
10
10
10
10
ENDCHAR
STARTCHAR FF12
ENCODING 9010
SWIDTH 2000 0
DWIDTH 20 0
BBX 8 14 6 0
BITMAP
3E
43
C1
81
81
01
03
0E
18
70
40
C0
80
FF
ENDCHAR
STARTCHAR FF13
ENCODING 9011
SWIDTH 2000 0
DWIDTH 20 0
BBX 9 14 6 0
BITMAP
7E00
C300
8100
8100
0100
0200
1C00
0300
0100
0180
8100
8100
C300
7E00
ENDCHAR
STARTCHAR FF14
ENCODING 9012
SWIDTH 2000 0
DWIDTH 20 0
BBX 9 14 6 0
BITMAP
0200
0600
0E00
0A00
1200
3200
2200
4200
C200
FF80
0200
0200
0200
0200
ENDCHAR
STARTCHAR FF15
ENCODING 9013
SWIDTH 2000 0
DWIDTH 20 0
BBX 8 14 6 0
BITMAP
7F
40
40
40
80
FE
C3
01
01
01
81
81
C2
7C
ENDCHAR
STARTCHAR FF16
ENCODING 9014
SWIDTH 2000 0
DWIDTH 20 0
BBX 9 14 5 0
BITMAP
1E00
6300
4100
C000
8000
9E00
B300
E080
C080
C080
C080
4080
6100
1E00
ENDCHAR
STARTCHAR FF17
ENCODING 9015
SWIDTH 2000 0
DWIDTH 20 0
BBX 8 14 6 0
BITMAP
FF
03
02
04
04
08
08
10
10
10
20
20
20
20
ENDCHAR
STARTCHAR FF18
ENCODING 9016
SWIDTH 2000 0
DWIDTH 20 0
BBX 9 14 5 0
BITMAP
1E00
2100
6080
6080
6080
2100
3E00
6180
4080
8080
8080
4080
6100
1E00
ENDCHAR
STARTCHAR FF19
ENCODING 9017
SWIDTH 2000 0
DWIDTH 20 0
BBX 9 14 6 0
BITMAP
3E00
4300
8100
8180
8180
8180
C180
6680
3C80
0180
0180
C100
4300
3C00
ENDCHAR
STARTCHAR FF1A
ENCODING 9018
SWIDTH 2000 0
DWIDTH 20 0
BBX 1 10 9 0
BITMAP
80
80
00
00
00
00
00
00
80
80
ENDCHAR
STARTCHAR FF1B
ENCODING 9019
SWIDTH 2000 0
DWIDTH 20 0
BBX 1 13 9 -3
BITMAP
80
80
00
00
00
00
00
00
00
80
80
80
80
ENDCHAR
STARTCHAR FF1C
ENCODING 9020
SWIDTH 2000 0
DWIDTH 20 0
BBX 12 14 4 -1
BITMAP
0010
0060
0180
0300
0C00
3000
C000
4000
3000
0C00
0300
0080
0060
0010
ENDCHAR
STARTCHAR FF1D
ENCODING 9021
SWIDTH 2000 0
DWIDTH 20 0
BBX 14 4 3 4
BITMAP
FFFC
0000
0000
FFFC
ENDCHAR
STARTCHAR FF1E
ENCODING 9022
SWIDTH 2000 0
DWIDTH 20 0
BBX 12 14 4 -1
BITMAP
8000
6000
3000
0C00
0300
00C0
0060
0030
00C0
0300
0C00
1800
6000
8000
ENDCHAR
STARTCHAR FF1F
ENCODING 9023
SWIDTH 2000 0
DWIDTH 20 0
BBX 8 14 6 0
BITMAP
7E
C3
81
81
01
03
06
0C
08
18
00
00
10
10
ENDCHAR
STARTCHAR FF20
ENCODING 9024
SWIDTH 2000 0
DWIDTH 20 0
BBX 15 14 2 -1
BITMAP
0FE0
3838
600C
4784
8462
8822
8822
8822
8822
8C64
4798
2004
1818
0FE0
ENDCHAR
STARTCHAR FF21
ENCODING 9025
SWIDTH 2000 0
DWIDTH 20 0
BBX 12 14 4 0
BITMAP
0600
0600
0F00
0D00
0900
1980
1080
10C0
3040
3FC0
6060
4020
4020
C030
ENDCHAR
STARTCHAR FF22
ENCODING 9026
SWIDTH 2000 0
DWIDTH 20 0
BBX 10 14 5 0
BITMAP
FF00
8180
8080
8080
8080
8180
FE00
8180
8040
8040
8040
8040
8080
FF00
ENDCHAR
STARTCHAR FF23
ENCODING 9027
SWIDTH 2000 0
DWIDTH 20 0
BBX 12 14 4 0
BITMAP
1F80
30C0
4020
4030
8000
8000
8000
8000
8000
8030
4020
4020
30C0
1F00
ENDCHAR
STARTCHAR FF24
ENCODING 9028
SWIDTH 2000 0
DWIDTH 20 0
BBX 11 14 4 0
BITMAP
FF00
8380
80C0
8060
8060
8020
8020
8020
8020
8060
8060
8040
8180
FF00
ENDCHAR
STARTCHAR FF25
ENCODING 9029
SWIDTH 2000 0
DWIDTH 20 0
BBX 9 14 5 0
BITMAP
FF80
8000
8000
8000
8000
8000
FF00
8000
8000
8000
8000
8000
8000
FF80
ENDCHAR
STARTCHAR FF26
ENCODING 9030
SWIDTH 2000 0
DWIDTH 20 0
BBX 8 14 6 0
BITMAP
FF
80
80
80
80
80
FF
80
80
80
80
80
80
80
ENDCHAR
STARTCHAR FF27
ENCODING 9031
SWIDTH 2000 0
DWIDTH 20 0
BBX 12 14 4 0
BITMAP
0F80
30C0
6020
4030
8000
8000
8000
83F0
8010
8010
4010
4030
2050
1F90
ENDCHAR
STARTCHAR FF28
ENCODING 9032
SWIDTH 2000 0
DWIDTH 20 0
BBX 10 14 5 0
BITMAP
8040
8040
8040
8040
8040
8040
FFC0
8040
8040
8040
8040
8040
8040
8040
ENDCHAR
STARTCHAR FF29
ENCODING 9033
SWIDTH 2000 0
DWIDTH 20 0
BBX 1 14 9 0
BITMAP
80
80
80
80
80
80
80
80
80
80
80
80
80
80
ENDCHAR
STARTCHAR FF2A
ENCODING 9034
SWIDTH 2000 0
DWIDTH 20 0
BBX 7 14 7 0
BITMAP
02
02
02
02
02
02
02
02
02
82
82
82
C4
7C
ENDCHAR
STARTCHAR FF2B
ENCODING 9035
SWIDTH 2000 0
DWIDTH 20 0
BBX 10 14 5 0
BITMAP
8080
8100
8200
8400
8800
9000
B800
CC00
8400
8200
8300
8180
8080
8040
ENDCHAR
STARTCHAR FF2C
ENCODING 9036
SWIDTH 2000 0
DWIDTH 20 0
BBX 8 14 6 0
BITMAP
80
80
80
80
80
80
80
80
80
80
80
80
80
FF
ENDCHAR
STARTCHAR FF2D
ENCODING 9037
SWIDTH 2000 0
DWIDTH 20 0
BBX 12 14 4 0
BITMAP
C030
C030
E030
A050
A050
B050
9090
9090
9990
8910
8910
8710
8610
8610
ENDCHAR
STARTCHAR FF2E
ENCODING 9038
SWIDTH 2000 0
DWIDTH 20 0
BBX 10 14 5 0
BITMAP
C040
C040
A040
B040
9040
9840
8840
8440
8640
8240
8340
8140
80C0
80C0
ENDCHAR
STARTCHAR FF2F
ENCODING 9039
SWIDTH 2000 0
DWIDTH 20 0
BBX 13 14 3 0
BITMAP
1FC0
3020
6010
4010
4008
C008
C008
C008
C008
4008
4010
6010
3020
1FC0
ENDCHAR
STARTCHAR FF30
ENCODING 9040
SWIDTH 2000 0
DWIDTH 20 0
BBX 9 14 5 0
BITMAP
FE00
8380
8080
8080
8080
8080
8180
FE00
8000
8000
8000
8000
8000
8000
ENDCHAR
STARTCHAR FF31
ENCODING 9041
SWIDTH 2000 0
DWIDTH 20 0
BBX 12 15 4 -1
BITMAP
0F00
30C0
6060
4020
8010
8010
8010
8010
8010
8010
4020
4120
20C0
19E0
0620
ENDCHAR
STARTCHAR FF32
ENCODING 9042
SWIDTH 2000 0
DWIDTH 20 0
BBX 10 14 5 0
BITMAP
FF00
8080
8040
8040
8040
8040
8080
FF00
8180
8080
8080
8080
80C0
80C0
ENDCHAR
STARTCHAR FF33
ENCODING 9043
SWIDTH 2000 0
DWIDTH 20 0
BBX 10 14 5 0
BITMAP
3E00
4300
8180
8080
8000
4000
3E00
0380
00C0
0040
C040
4040
6180
1F00
ENDCHAR
STARTCHAR FF34
ENCODING 9044
SWIDTH 2000 0
DWIDTH 20 0
BBX 9 14 5 0
BITMAP
FF80
0800
0800
0800
0800
0800
0800
0800
0800
0800
0800
0800
0800
0800
ENDCHAR
STARTCHAR FF35
ENCODING 9045
SWIDTH 2000 0
DWIDTH 20 0
BBX 10 14 5 0
BITMAP
8040
8040
8040
8040
8040
8040
8040
8040
8040
8040
8040
C080
6180
3E00
ENDCHAR
STARTCHAR FF36
ENCODING 9046
SWIDTH 2000 0
DWIDTH 20 0
BBX 10 14 5 0
BITMAP
8040
8040
C0C0
4080
4080
6180
2100
2100
3300
1200
1200
1E00
0C00
0C00
ENDCHAR
STARTCHAR FF37
ENCODING 9047
SWIDTH 2000 0
DWIDTH 20 0
BBX 16 14 2 0
BITMAP
8181
8181
8181
43C2
4242
4242
4242
2464
2424
2424
2C34
1818
1818
1818
ENDCHAR
STARTCHAR FF38
ENCODING 9048
SWIDTH 2000 0
DWIDTH 20 0
BBX 10 14 5 0
BITMAP
8040
4080
2100
2100
1200
0E00
0C00
0C00
1E00
1200
2100
6180
4080
8040
ENDCHAR
STARTCHAR FF39
ENCODING 9049
SWIDTH 2000 0
DWIDTH 20 0
BBX 10 14 5 0
BITMAP
80C0
8080
4100
6100
2200
1400
1400
0800
0800
0800
0800
0800
0800
0800
ENDCHAR
STARTCHAR FF3A
ENCODING 9050
SWIDTH 2000 0
DWIDTH 20 0
BBX 10 14 5 0
BITMAP
FFC0
00C0
0080
0100
0300
0600
0C00
0800
1000
3000
6000
4000
8000
FFC0
ENDCHAR
STARTCHAR FF3B
ENCODING 9051
SWIDTH 2000 0
DWIDTH 20 0
BBX 4 18 8 -3
BITMAP
F0
80
80
80
80
80
80
80
80
80
80
80
80
80
80
80
80
F0
ENDCHAR
STARTCHAR FFE6
ENCODING 9052
SWIDTH 2000 0
DWIDTH 20 0
BBX 20 15 0 -1
BITMAP
206040
206040
2060C0
309080
FFFFF0
109080
109080
191100
FFFFF0
090900
090900
0E0A00
060600
060600
060000
ENDCHAR
STARTCHAR FF3D
ENCODING 9053
SWIDTH 2000 0
DWIDTH 20 0
BBX 4 18 8 -3
BITMAP
F0
10
10
10
10
10
10
10
10
10
10
10
10
10
10
10
10
F0
ENDCHAR
STARTCHAR FF3E
ENCODING 9054
SWIDTH 2000 0
DWIDTH 20 0
BBX 6 3 7 13
BITMAP
30
48
84
ENDCHAR
STARTCHAR FF3F
ENCODING 9055
SWIDTH 2000 0
DWIDTH 20 0
BBX 20 1 0 -3
BITMAP
FFFFF0
ENDCHAR
STARTCHAR FF40
ENCODING 9056
SWIDTH 2000 0
DWIDTH 20 0
BBX 3 4 8 12
BITMAP
C0
40
40
20
ENDCHAR
STARTCHAR FF41
ENCODING 9057
SWIDTH 2000 0
DWIDTH 20 0
BBX 10 10 5 0
BITMAP
3E00
6300
4100
0100
1F00
6100
4100
C100
4300
3CC0
ENDCHAR
STARTCHAR FF42
ENCODING 9058
SWIDTH 2000 0
DWIDTH 20 0
BBX 9 14 5 0
BITMAP
8000
8000
8000
8000
BE00
E100
C180
8080
8080
8080
8080
C180
E100
9E00
ENDCHAR
STARTCHAR FF43
ENCODING 9059
SWIDTH 2000 0
DWIDTH 20 0
BBX 8 10 6 0
BITMAP
3C
63
81
80
80
80
80
81
43
3C
ENDCHAR
STARTCHAR FF44
ENCODING 9060
SWIDTH 2000 0
DWIDTH 20 0
BBX 9 14 5 0
BITMAP
0080
0080
0080
0080
3E80
6180
C180
8080
8080
8080
8080
4180
6180
3E80
ENDCHAR
STARTCHAR FF45
ENCODING 9061
SWIDTH 2000 0
DWIDTH 20 0
BBX 8 10 6 0
BITMAP
3C
42
81
81
FF
80
80
81
43
3C
ENDCHAR
STARTCHAR FF46
ENCODING 9062
SWIDTH 2000 0
DWIDTH 20 0
BBX 5 14 7 0
BITMAP
18
20
20
20
F8
20
20
20
20
20
20
20
20
20
ENDCHAR
STARTCHAR FF47
ENCODING 9063
SWIDTH 2000 0
DWIDTH 20 0
BBX 8 13 6 -3
BITMAP
3D
43
C3
81
81
81
81
C3
43
3D
01
82
FE
ENDCHAR
STARTCHAR FF48
ENCODING 9064
SWIDTH 2000 0
DWIDTH 20 0
BBX 8 14 6 0
BITMAP
80
80
80
80
BE
C1
81
81
81
81
81
81
81
81
ENDCHAR
STARTCHAR FF49
ENCODING 9065
SWIDTH 2000 0
DWIDTH 20 0
BBX 1 14 9 0
BITMAP
80
80
00
00
80
80
80
80
80
80
80
80
80
80
ENDCHAR
STARTCHAR FF4A
ENCODING 9066
SWIDTH 2000 0
DWIDTH 20 0
BBX 3 18 8 -4
BITMAP
20
20
00
00
20
20
20
20
20
20
20
20
20
20
20
20
60
C0
ENDCHAR
STARTCHAR FF4B
ENCODING 9067
SWIDTH 2000 0
DWIDTH 20 0
BBX 8 14 6 0
BITMAP
80
80
80
80
86
8C
98
B0
F0
88
8C
84
82
83
ENDCHAR
STARTCHAR FF4C
ENCODING 9068
SWIDTH 2000 0
DWIDTH 20 0
BBX 1 14 9 0
BITMAP
80
80
80
80
80
80
80
80
80
80
80
80
80
80
ENDCHAR
STARTCHAR FF4D
ENCODING 9069
SWIDTH 2000 0
DWIDTH 20 0
BBX 14 10 3 0
BITMAP
BCF8
C304
8204
8204
8204
8204
8204
8204
8204
8204
ENDCHAR
STARTCHAR FF4E
ENCODING 9070
SWIDTH 2000 0
DWIDTH 20 0
BBX 8 10 6 0
BITMAP
BC
C2
83
83
83
83
83
83
83
83
ENDCHAR
STARTCHAR FF4F
ENCODING 9071
SWIDTH 2000 0
DWIDTH 20 0
BBX 8 10 6 0
BITMAP
3C
42
C3
81
81
81
81
C3
42
3C
ENDCHAR
STARTCHAR FF50
ENCODING 9072
SWIDTH 2000 0
DWIDTH 20 0
BBX 8 14 6 -4
BITMAP
BC
C2
C1
81
81
81
81
C3
C2
BE
88
80
80
80
ENDCHAR
STARTCHAR FF51
ENCODING 9073
SWIDTH 2000 0
DWIDTH 20 0
BBX 9 14 5 -4
BITMAP
1C00
6280
4180
8080
8080
8080
8080
C180
6180
3E80
0880
0080
0080
0080
ENDCHAR
STARTCHAR FF52
ENCODING 9074
SWIDTH 2000 0
DWIDTH 20 0
BBX 4 10 8 0
BITMAP
B0
C0
80
80
80
80
80
80
80
80
ENDCHAR
STARTCHAR FF53
ENCODING 9075
SWIDTH 2000 0
DWIDTH 20 0
BBX 8 10 6 0
BITMAP
3C
46
C2
C0
60
1E
03
81
C3
7E
ENDCHAR
STARTCHAR FF54
ENCODING 9076
SWIDTH 2000 0
DWIDTH 20 0
BBX 4 13 8 0
BITMAP
40
40
40
F0
40
40
40
40
40
40
40
40
70
ENDCHAR
STARTCHAR FF55
ENCODING 9077
SWIDTH 2000 0
DWIDTH 20 0
BBX 8 10 6 0
BITMAP
C1
C1
C1
C1
C1
C1
C1
C1
43
3D
ENDCHAR
STARTCHAR FF56
ENCODING 9078
SWIDTH 2000 0
DWIDTH 20 0
BBX 8 10 6 0
BITMAP
81
81
42
42
42
24
24
24
18
18
ENDCHAR
STARTCHAR FF57
ENCODING 9079
SWIDTH 2000 0
DWIDTH 20 0
BBX 14 10 3 0
BITMAP
C30C
4308
4308
4488
2490
2490
2490
1860
1860
1860
ENDCHAR
STARTCHAR FF58
ENCODING 9080
SWIDTH 2000 0
DWIDTH 20 0
BBX 8 10 6 0
BITMAP
83
42
24
3C
18
18
24
66
42
81
ENDCHAR
STARTCHAR FF59
ENCODING 9081
SWIDTH 2000 0
DWIDTH 20 0
BBX 8 14 6 -4
BITMAP
81
81
42
42
62
24
24
1C
18
18
10
10
30
40
ENDCHAR
STARTCHAR FF5A
ENCODING 9082
SWIDTH 2000 0
DWIDTH 20 0
BBX 8 10 6 0
BITMAP
FF
02
04
0C
08
10
20
40
C0
FF
ENDCHAR
STARTCHAR FF5B
ENCODING 9083
SWIDTH 2000 0
DWIDTH 20 0
BBX 4 19 8 -4
BITMAP
20
20
60
60
60
60
60
40
80
80
40
60
60
60
60
60
20
20
10
ENDCHAR
STARTCHAR FF5C
ENCODING 9084
SWIDTH 2000 0
DWIDTH 20 0
BBX 1 20 10 -4
BITMAP
80
80
80
80
80
80
80
80
80
80
80
80
80
80
80
80
80
80
80
80
ENDCHAR
STARTCHAR FF5D
ENCODING 9085
SWIDTH 2000 0
DWIDTH 20 0
BBX 3 20 8 -4
BITMAP
80
40
40
40
40
40
40
40
40
20
20
40
40
40
40
40
40
40
80
80
ENDCHAR
STARTCHAR FFE3
ENCODING 9086
SWIDTH 2000 0
DWIDTH 20 0
BBX 8 1 6 15
BITMAP
FF
ENDCHAR
STARTCHAR 3131
ENCODING 9249
SWIDTH 2000 0
DWIDTH 20 0
BBX 12 10 4 1
BITMAP
FFF0
0010
0010
0010
0010
0010
0010
0010
0010
0010
ENDCHAR
STARTCHAR 3132
ENCODING 9250
SWIDTH 2000 0
DWIDTH 20 0
BBX 14 9 3 1
BITMAP
FCFC
0404
0404
0404
0404
0404
0404
0404
0404
ENDCHAR
STARTCHAR 3133
ENCODING 9251
SWIDTH 2000 0
DWIDTH 20 0
BBX 14 10 3 1
BITMAP
FC20
0420
0420
0420
0420
0450
0450
0488
0584
0500
ENDCHAR
STARTCHAR 3134
ENCODING 9252
SWIDTH 2000 0
DWIDTH 20 0
BBX 12 9 4 2
BITMAP
8000
8000
8000
8000
8000
8000
8000
8000
FFF0
ENDCHAR
STARTCHAR 3135
ENCODING 9253
SWIDTH 2000 0
DWIDTH 20 0
BBX 15 10 2 1
BITMAP
80FE
8010
8010
8030
8038
8028
804C
80C4
8982
F100
ENDCHAR
STARTCHAR 3136
ENCODING 9254
SWIDTH 2000 0
DWIDTH 20 0
BBX 16 11 2 0
BITMAP
8078
8000
81FF
8000
807C
80C6
8082
8082
8082
FCC6
007C
ENDCHAR
STARTCHAR 3137
ENCODING 9255
SWIDTH 2000 0
DWIDTH 20 0
BBX 12 8 4 3
BITMAP
FFF0
8000
8000
8000
8000
8000
8000
FFF0
ENDCHAR
STARTCHAR 3138
ENCODING 9256
SWIDTH 2000 0
DWIDTH 20 0
BBX 14 10 3 1
BITMAP
FDF8
8100
8100
8100
8100
8100
8100
8500
FD00
01FC
ENDCHAR
STARTCHAR 3139
ENCODING 9257
SWIDTH 2000 0
DWIDTH 20 0
BBX 13 10 3 1
BITMAP
FFF0
0010
0010
0010
7FF0
4000
4000
4000
4000
7FF8
ENDCHAR
STARTCHAR 313A
ENCODING 9258
SWIDTH 2000 0
DWIDTH 20 0
BBX 14 10 3 1
BITMAP
FCFC
0404
0404
0404
FC04
8004
8004
8004
8204
FC04
ENDCHAR
STARTCHAR 313B
ENCODING 9259
SWIDTH 2000 0
DWIDTH 20 0
BBX 14 11 3 0
BITMAP
FCFC
0484
0484
0484
FC84
8084
8084
8084
8284
FCFC
0080
ENDCHAR
STARTCHAR 313C
ENCODING 9260
SWIDTH 2000 0
DWIDTH 20 0
BBX 15 10 2 1
BITMAP
FC42
0442
0442
0442
7C7E
4042
4042
4042
4342
7C7E
ENDCHAR
STARTCHAR 313D
ENCODING 9261
SWIDTH 2000 0
DWIDTH 20 0
BBX 15 10 2 1
BITMAP
7E10
0210
0210
0210
FE10
8028
8028
8064
8642
F882
ENDCHAR
STARTCHAR 313E
ENCODING 9262
SWIDTH 2000 0
DWIDTH 20 0
BBX 15 11 2 0
BITMAP
7E7E
0240
0240
0240
FE40
807E
8040
8040
8240
FE40
007E
ENDCHAR
STARTCHAR 313F
ENCODING 9263
SWIDTH 2000 0
DWIDTH 20 0
BBX 16 10 2 1
BITMAP
FCFE
0400
0400
0444
FC44
8044
8044
8048
8C48
F1FF
ENDCHAR
STARTCHAR 3140
ENCODING 9264
SWIDTH 2000 0
DWIDTH 20 0
BBX 16 11 2 0
BITMAP
FC78
0400
05FF
0400
FC7C
80C6
8082
8082
8682
F8C6
007C
ENDCHAR
STARTCHAR 3141
ENCODING 9265
SWIDTH 2000 0
DWIDTH 20 0
BBX 12 10 4 1
BITMAP
FFF0
8010
8010
8010
8010
8010
8010
8010
FFF0
8010
ENDCHAR
STARTCHAR 3142
ENCODING 9266
SWIDTH 2000 0
DWIDTH 20 0
BBX 12 10 4 1
BITMAP
8010
8010
8010
FFF0
8010
8010
8010
8010
FFF0
8010
ENDCHAR
STARTCHAR 3143
ENCODING 9267
SWIDTH 2000 0
DWIDTH 20 0
BBX 14 9 3 2
BITMAP
8484
8484
8484
FCFC
8484
8484
8484
8484
FCFC
ENDCHAR
STARTCHAR 3144
ENCODING 9268
SWIDTH 2000 0
DWIDTH 20 0
BBX 15 10 2 1
BITMAP
8410
8410
8410
FC10
8410
8428
8428
8444
8442
FC80
ENDCHAR
STARTCHAR 3145
ENCODING 9269
SWIDTH 2000 0
DWIDTH 20 0
BBX 14 11 3 0
BITMAP
0300
0300
0300
0300
0300
0480
0CC0
1840
3030
E018
8004
ENDCHAR
STARTCHAR 3146
ENCODING 9270
SWIDTH 2000 0
DWIDTH 20 0
BBX 14 10 3 1
BITMAP
0820
0820
1860
1860
1860
3460
2490
4098
C108
0204
ENDCHAR
STARTCHAR 3147
ENCODING 9271
SWIDTH 2000 0
DWIDTH 20 0
BBX 12 10 4 1
BITMAP
1F80
6060
4020
8010
8010
8010
8010
4020
6060
1F80
ENDCHAR
STARTCHAR 3148
ENCODING 9272
SWIDTH 2000 0
DWIDTH 20 0
BBX 14 10 3 1
BITMAP
7FF8
0200
0300
0300
0480
0CC0
0860
3030
6018
8004
ENDCHAR
STARTCHAR 3149
ENCODING 9273
SWIDTH 2000 0
DWIDTH 20 0
BBX 14 10 3 1
BITMAP
FCFC
1020
1020
1820
1850
2C50
2458
4088
8104
0200
ENDCHAR
STARTCHAR 314A
ENCODING 9274
SWIDTH 2000 0
DWIDTH 20 0
BBX 14 11 3 1
BITMAP
0FE0
0000
0000
7FF8
0300
0300
0780
04C0
1860
3018
C00C
ENDCHAR
STARTCHAR 314B
ENCODING 9275
SWIDTH 2000 0
DWIDTH 20 0
BBX 12 10 4 1
BITMAP
FFF0
0010
0010
0010
0010
FF10
0010
0030
0020
0020
ENDCHAR
STARTCHAR 314C
ENCODING 9276
SWIDTH 2000 0
DWIDTH 20 0
BBX 12 10 4 1
BITMAP
FFF0
8000
8000
8000
FFF0
8000
8000
8000
8000
FFF0
ENDCHAR
STARTCHAR 314D
ENCODING 9277
SWIDTH 2000 0
DWIDTH 20 0
BBX 14 10 3 1
BITMAP
7FF8
0000
0000
0000
1020
1020
1020
1040
1040
FFFC
ENDCHAR
STARTCHAR 314E
ENCODING 9278
SWIDTH 2000 0
DWIDTH 20 0
BBX 14 12 3 0
BITMAP
0FC0
0000
0000
FFFC
0000
0FC0
1020
2010
2010
2010
1020
0FC0
ENDCHAR
STARTCHAR 314F
ENCODING 9279
SWIDTH 2000 0
DWIDTH 20 0
BBX 6 18 7 -3
BITMAP
80
80
80
80
80
80
80
80
FC
80
80
80
80
80
80
80
80
80
ENDCHAR
STARTCHAR 3150
ENCODING 9280
SWIDTH 2000 0
DWIDTH 20 0
BBX 6 18 7 -3
BITMAP
84
84
84
84
84
84
84
84
FC
84
84
84
84
84
84
84
84
04
ENDCHAR
STARTCHAR 3151
ENCODING 9281
SWIDTH 2000 0
DWIDTH 20 0
BBX 6 18 7 -3
BITMAP
80
80
80
80
80
80
FC
80
80
80
80
FC
80
80
80
80
80
80
ENDCHAR
STARTCHAR 3152
ENCODING 9282
SWIDTH 2000 0
DWIDTH 20 0
BBX 6 18 7 -3
BITMAP
84
84
84
84
84
FC
84
84
84
84
FC
84
84
84
84
84
84
04
ENDCHAR
STARTCHAR 3153
ENCODING 9283
SWIDTH 2000 0
DWIDTH 20 0
BBX 7 18 6 -3
BITMAP
02
02
02
02
02
02
02
02
FE
02
02
02
02
02
02
02
02
02
ENDCHAR
STARTCHAR 3154
ENCODING 9284
SWIDTH 2000 0
DWIDTH 20 0
BBX 10 18 5 -3
BITMAP
0040
0440
0440
0440
0440
0440
0440
0440
FC40
0440
0440
0440
0440
0440
0440
0440
0440
0040
ENDCHAR
STARTCHAR 3155
ENCODING 9285
SWIDTH 2000 0
DWIDTH 20 0
BBX 7 18 7 -3
BITMAP
02
02
02
02
02
FE
02
02
02
02
02
FE
02
02
02
02
02
02
ENDCHAR
STARTCHAR 3156
ENCODING 9286
SWIDTH 2000 0
DWIDTH 20 0
BBX 10 18 5 -3
BITMAP
0440
0440
0440
0440
0440
FC40
0440
0440
0440
0440
0440
FC40
0440
0440
0440
0440
0440
0040
ENDCHAR
STARTCHAR 3157
ENCODING 9287
SWIDTH 2000 0
DWIDTH 20 0
BBX 17 9 1 2
BITMAP
008000
008000
008000
008000
008000
008000
008000
008000
FFFF80
ENDCHAR
STARTCHAR 3158
ENCODING 9288
SWIDTH 2000 0
DWIDTH 20 0
BBX 17 18 2 -3
BITMAP
000800
000800
000800
000800
040800
040800
040800
040800
040F80
040800
040800
04F800
FF0800
000800
000800
000800
000800
000800
ENDCHAR
STARTCHAR 3159
ENCODING 9289
SWIDTH 2000 0
DWIDTH 20 0
BBX 15 18 2 -3
BITMAP
0002
0012
0012
0012
0012
0812
0812
0812
0812
081E
0812
08F2
FF12
0012
0012
0012
0012
0002
ENDCHAR
STARTCHAR 315A
ENCODING 9290
SWIDTH 2000 0
DWIDTH 20 0
BBX 14 18 3 -3
BITMAP
0004
0004
0004
0004
0404
0404
0404
0404
0404
0404
0404
041C
3FE4
C004
0004
0004
0004
0004
ENDCHAR
STARTCHAR 315B
ENCODING 9291
SWIDTH 2000 0
DWIDTH 20 0
BBX 17 9 1 2
BITMAP
0C0800
0C0800
040800
041800
041800
041800
041000
061000
FFFF80
ENDCHAR
STARTCHAR 315C
ENCODING 9292
SWIDTH 2000 0
DWIDTH 20 0
BBX 17 13 2 -3
BITMAP
FFFF80
008000
008000
008000
008000
008000
008000
008000
008000
008000
008000
008000
008000
ENDCHAR
STARTCHAR 315D
ENCODING 9293
SWIDTH 2000 0
DWIDTH 20 0
BBX 15 18 2 -3
BITMAP
0002
0002
0002
0002
0002
FFF2
0202
0202
0202
023E
0202
0202
0202
0202
0202
0002
0002
0002
ENDCHAR
STARTCHAR 315E
ENCODING 9294
SWIDTH 2000 0
DWIDTH 20 0
BBX 13 17 4 -2
BITMAP
0008
0048
0048
0048
0048
3F48
D048
1048
1048
13C8
1048
1048
1048
1048
1048
0048
0048
ENDCHAR
STARTCHAR 315F
ENCODING 9295
SWIDTH 2000 0
DWIDTH 20 0
BBX 14 18 3 -3
BITMAP
0004
0004
0004
0004
0004
001C
FFE4
0204
0204
0204
0204
0204
0204
0204
0204
0004
0004
0004
ENDCHAR
STARTCHAR 3160
ENCODING 9296
SWIDTH 2000 0
DWIDTH 20 0
BBX 18 12 1 -2
BITMAP
FFFFC0
040800
040800
040800
040800
040800
040800
040800
040800
040800
040800
040800
ENDCHAR
STARTCHAR 3161
ENCODING 9297
SWIDTH 2000 0
DWIDTH 20 0
BBX 16 1 2 6
BITMAP
FFFF
ENDCHAR
STARTCHAR 3162
ENCODING 9298
SWIDTH 2000 0
DWIDTH 20 0
BBX 14 18 3 -3
BITMAP
0004
0004
0004
0004
0004
0004
0004
0004
0004
000C
03F4
FC04
0004
0004
0004
0004
0004
0004
ENDCHAR
STARTCHAR 3163
ENCODING 9299
SWIDTH 2000 0
DWIDTH 20 0
BBX 1 18 9 -3
BITMAP
80
80
80
80
80
80
80
80
80
80
80
80
80
80
80
80
80
80
ENDCHAR
STARTCHAR 3164
ENCODING 9300
SWIDTH 2000 0
DWIDTH 20 0
BBX 0 0 0 0
BITMAP
ENDCHAR
STARTCHAR 3165
ENCODING 9301
SWIDTH 2000 0
DWIDTH 20 0
BBX 15 9 2 2
BITMAP
8080
8080
8080
8080
8080
8080
8080
8080
FEFE
ENDCHAR
STARTCHAR 3166
ENCODING 9302
SWIDTH 2000 0
DWIDTH 20 0
BBX 14 10 3 1
BITMAP
81FC
8100
8100
8100
8100
8100
8100
8100
FF00
01FC
ENDCHAR
STARTCHAR 3167
ENCODING 9303
SWIDTH 2000 0
DWIDTH 20 0
BBX 15 10 2 1
BITMAP
8010
8010
8010
8010
8010
8028
8028
8044
84C6
F882
ENDCHAR
STARTCHAR 3168
ENCODING 9304
SWIDTH 2000 0
DWIDTH 20 0
BBX 15 10 2 1
BITMAP
8000
8020
8030
8030
8048
8048
8084
8084
FC82
01FE
ENDCHAR
STARTCHAR 3169
ENCODING 9305
SWIDTH 2000 0
DWIDTH 20 0
BBX 16 10 2 1
BITMAP
7F8C
0888
0888
0888
F88C
808C
809C
8092
8492
F821
ENDCHAR
STARTCHAR 316A
ENCODING 9306
SWIDTH 2000 0
DWIDTH 20 0
BBX 15 10 2 1
BITMAP
FC7E
0440
0440
0440
FC40
8040
8040
8040
8240
FC7E
ENDCHAR
STARTCHAR 316B
ENCODING 9307
SWIDTH 2000 0
DWIDTH 20 0
BBX 16 10 2 1
BITMAP
F040
1244
1244
1244
F3C4
8244
824A
824A
8259
FBD1
ENDCHAR
STARTCHAR 316C
ENCODING 9308
SWIDTH 2000 0
DWIDTH 20 0
BBX 16 10 2 1
BITMAP
FC18
0418
0418
0428
FC24
8024
8044
8042
8642
F8FF
ENDCHAR
STARTCHAR 316D
ENCODING 9309
SWIDTH 2000 0
DWIDTH 20 0
BBX 16 10 2 1
BITMAP
FDFF
0400
0400
047C
FCC4
8082
8082
8282
FC44
0038
ENDCHAR
STARTCHAR 316E
ENCODING 9310
SWIDTH 2000 0
DWIDTH 20 0
BBX 16 10 2 1
BITMAP
0001
FC41
8441
847F
8441
8441
8441
8441
FC41
847F
ENDCHAR
STARTCHAR 316F
ENCODING 9311
SWIDTH 2000 0
DWIDTH 20 0
BBX 16 10 2 1
BITMAP
0010
FC10
8410
8410
8430
8428
844C
84C6
FD83
8400
ENDCHAR
STARTCHAR 3170
ENCODING 9312
SWIDTH 2000 0
DWIDTH 20 0
BBX 16 10 2 1
BITMAP
0010
FC10
8418
8428
8424
8424
8444
8442
FC82
84FF
ENDCHAR
STARTCHAR 3171
ENCODING 9313
SWIDTH 2000 0
DWIDTH 20 0
BBX 10 14 5 -1
BITMAP
FFC0
8040
8040
8040
8040
FFC0
0000
3F00
6180
4080
C0C0
4080
6180
1E00
ENDCHAR
STARTCHAR 3172
ENCODING 9314
SWIDTH 2000 0
DWIDTH 20 0
BBX 14 10 3 1
BITMAP
05FC
8404
8404
FC04
8404
8404
8404
8404
8404
FC04
ENDCHAR
STARTCHAR 3173
ENCODING 9315
SWIDTH 2000 0
DWIDTH 20 0
BBX 16 10 2 1
BITMAP
0400
847E
8440
8440
FC40
8440
8440
8440
8440
FC7F
ENDCHAR
STARTCHAR 3174
ENCODING 9316
SWIDTH 2000 0
DWIDTH 20 0
BBX 16 10 2 1
BITMAP
085F
8841
88C1
88C1
F8C1
88C1
89A1
8921
8B11
FA11
ENDCHAR
STARTCHAR 3175
ENCODING 9317
SWIDTH 2000 0
DWIDTH 20 0
BBX 16 10 2 1
BITMAP
911E
9110
9110
9110
F110
9310
9290
9290
9450
F45F
ENDCHAR
STARTCHAR 3176
ENCODING 9318
SWIDTH 2000 0
DWIDTH 20 0
BBX 16 10 2 1
BITMAP
00FE
8410
8410
8418
FC18
8428
8464
8444
8482
FD01
ENDCHAR
STARTCHAR 3177
ENCODING 9319
SWIDTH 2000 0
DWIDTH 20 0
BBX 16 10 2 1
BITMAP
007E
8440
8440
8440
FC7E
8440
8440
8440
8440
FC7F
ENDCHAR
STARTCHAR 3178
ENCODING 9320
SWIDTH 2000 0
DWIDTH 20 0
BBX 10 17 5 -3
BITMAP
8040
8040
FFC0
8040
8040
8040
FFC0
0000
0000
1C00
2300
4080
4080
4080
4080
3300
1E00
ENDCHAR
STARTCHAR 3179
ENCODING 9321
SWIDTH 2000 0
DWIDTH 20 0
BBX 12 16 4 -2
BITMAP
8910
8910
F9F0
8910
8910
8910
F9F0
0000
0000
0F00
1080
2040
2040
2040
2040
1980
ENDCHAR
STARTCHAR 317A
ENCODING 9322
SWIDTH 2000 0
DWIDTH 20 0
BBX 16 10 2 1
BITMAP
087F
0801
0801
0801
1801
1401
2601
2201
4181
8080
ENDCHAR
STARTCHAR 317B
ENCODING 9323
SWIDTH 2000 0
DWIDTH 20 0
BBX 16 10 2 1
BITMAP
0800
0840
1840
1840
1840
1840
2440
6640
C340
817F
ENDCHAR
STARTCHAR 317C
ENCODING 9324
SWIDTH 2000 0
DWIDTH 20 0
BBX 16 10 2 1
BITMAP
107F
1040
1040
1840
1840
2840
2440
6440
4240
807F
ENDCHAR
STARTCHAR 317D
ENCODING 9325
SWIDTH 2000 0
DWIDTH 20 0
BBX 16 10 2 1
BITMAP
0841
0841
0841
187F
1841
1841
2441
2441
4241
817F
ENDCHAR
STARTCHAR 317E
ENCODING 9326
SWIDTH 2000 0
DWIDTH 20 0
BBX 16 10 2 1
BITMAP
107F
1008
1008
1018
101C
2814
2826
4462
C6C1
8200
ENDCHAR
STARTCHAR 317F
ENCODING 9327
SWIDTH 2000 0
DWIDTH 20 0
BBX 12 11 4 1
BITMAP
0600
0600
0F00
0900
1080
1080
2040
6060
4020
C030
FFF0
ENDCHAR
STARTCHAR 3180
ENCODING 9328
SWIDTH 2000 0
DWIDTH 20 0
BBX 16 11 2 0
BITMAP
3C1C
4622
8241
8241
8241
8241
8241
8241
4242
7C36
0008
ENDCHAR
STARTCHAR 3181
ENCODING 9329
SWIDTH 2000 0
DWIDTH 20 0
BBX 10 11 5 1
BITMAP
0C00
0800
1E00
7380
40C0
8040
8040
8040
C0C0
6180
3F00
ENDCHAR
STARTCHAR 3182
ENCODING 9330
SWIDTH 2000 0
DWIDTH 20 0
BBX 16 11 2 1
BITMAP
1000
1010
7810
4410
8218
8218
8228
8224
C266
44C3
3880
ENDCHAR
STARTCHAR 3183
ENCODING 9331
SWIDTH 2000 0
DWIDTH 20 0
BBX 16 11 2 1
BITMAP
1000
1000
7C10
4430
8228
8228
8244
8244
8282
4482
38FF
ENDCHAR
STARTCHAR 3184
ENCODING 9332
SWIDTH 2000 0
DWIDTH 20 0
BBX 12 17 4 -3
BITMAP
FFF0
0000
2080
1080
1080
1080
FFF0
0000
0000
0F80
1080
2040
2040
2040
30C0
1980
0600
ENDCHAR
STARTCHAR 3185
ENCODING 9333
SWIDTH 2000 0
DWIDTH 20 0
BBX 18 12 1 0
BITMAP
1E0000
001E00
000000
FFFFC0
000000
1E1E00
233100
412080
412080
412080
233100
1E1E00
ENDCHAR
STARTCHAR 3186
ENCODING 9334
SWIDTH 2000 0
DWIDTH 20 0
BBX 16 12 2 -1
BITMAP
FFFF
0000
0000
0000
03C0
0420
0810
0810
0810
0810
0420
03C0
ENDCHAR
STARTCHAR 3187
ENCODING 9335
SWIDTH 2000 0
DWIDTH 20 0
BBX 17 16 2 -2
BITMAP
000800
000800
000800
110800
110800
110F00
110800
110800
110800
110800
1FFF80
F80800
000800
000800
000800
000800
ENDCHAR
STARTCHAR 3188
ENCODING 9336
SWIDTH 2000 0
DWIDTH 20 0
BBX 14 16 3 -2
BITMAP
0004
0024
0024
0024
1224
123C
1224
1224
1224
123C
1FE4
E024
0024
0024
0024
0004
ENDCHAR
STARTCHAR 3189
ENCODING 9337
SWIDTH 2000 0
DWIDTH 20 0
BBX 14 16 3 -2
BITMAP
0004
0004
0004
1004
1084
1084
1084
1084
1084
1084
1084
FFFC
0004
0004
0004
0004
ENDCHAR
STARTCHAR 318A
ENCODING 9338
SWIDTH 2000 0
DWIDTH 20 0
BBX 14 16 3 -2
BITMAP
0004
0004
0004
0004
FFE4
0904
093C
0904
0904
0904
093C
0904
0904
0904
0004
0004
ENDCHAR
STARTCHAR 318B
ENCODING 9339
SWIDTH 2000 0
DWIDTH 20 0
BBX 14 16 3 -2
BITMAP
0024
0024
0024
0024
01A4
FE24
1224
12E4
1224
1224
12E4
1224
1224
0024
0024
0004
ENDCHAR
STARTCHAR 318C
ENCODING 9340
SWIDTH 2000 0
DWIDTH 20 0
BBX 14 16 3 -2
BITMAP
0004
0004
0004
0004
0004
001C
FFE4
0884
0884
0884
0884
0884
0884
0884
0004
0004
ENDCHAR
STARTCHAR 318D
ENCODING 9341
SWIDTH 2000 0
DWIDTH 20 0
BBX 3 3 8 4
BITMAP
E0
E0
E0
ENDCHAR
STARTCHAR 318E
ENCODING 9342
SWIDTH 2000 0
DWIDTH 20 0
BBX 10 16 5 -2
BITMAP
0040
0040
0040
0040
0040
0040
E040
E040
E040
0040
0040
0040
0040
0040
0040
0040
ENDCHAR
STARTCHAR 2170
ENCODING 9505
SWIDTH 2000 0
DWIDTH 20 0
BBX 2 14 9 0
BITMAP
C0
C0
00
00
00
80
80
80
80
80
80
80
80
80
ENDCHAR
STARTCHAR 2171
ENCODING 9506
SWIDTH 2000 0
DWIDTH 20 0
BBX 8 14 6 0
BITMAP
C3
C3
00
00
00
81
81
81
81
81
81
81
81
81
ENDCHAR
STARTCHAR 2172
ENCODING 9507
SWIDTH 2000 0
DWIDTH 20 0
BBX 12 14 4 0
BITMAP
C630
C630
0000
0000
0000
4420
4420
4420
4420
4420
4420
4420
4420
4420
ENDCHAR
STARTCHAR 2173
ENCODING 9508
SWIDTH 2000 0
DWIDTH 20 0
BBX 11 14 4 0
BITMAP
C000
C000
0000
0000
0000
4820
4420
4420
4240
4240
4240
4180
4180
4080
ENDCHAR
STARTCHAR 2174
ENCODING 9509
SWIDTH 2000 0
DWIDTH 20 0
BBX 8 8 6 1
BITMAP
81
42
42
66
24
24
18
18
ENDCHAR
STARTCHAR 2175
ENCODING 9510
SWIDTH 2000 0
DWIDTH 20 0
BBX 12 14 4 0
BITMAP
0030
0030
0000
0000
0000
C220
4420
4420
4420
2820
2820
2820
1020
1020
ENDCHAR
STARTCHAR 2176
ENCODING 9511
SWIDTH 2000 0
DWIDTH 20 0
BBX 14 14 3 0
BITMAP
00CC
00CC
0000
0000
0000
8448
C448
4848
4848
4848
3048
3048
3048
0048
ENDCHAR
STARTCHAR 2177
ENCODING 9512
SWIDTH 2000 0
DWIDTH 20 0
BBX 16 14 2 0
BITMAP
009B
009B
0000
0000
0000
8492
C492
4492
4892
4892
2892
3092
3092
1092
ENDCHAR
STARTCHAR 2178
ENCODING 9513
SWIDTH 2000 0
DWIDTH 20 0
BBX 12 14 4 0
BITMAP
C000
C000
0000
0000
0000
4430
4660
4240
41C0
4180
4180
4240
4260
4420
ENDCHAR
STARTCHAR 2179
ENCODING 9514
SWIDTH 2000 0
DWIDTH 20 0
BBX 8 9 6 0
BITMAP
42
66
24
18
18
18
24
62
C3
ENDCHAR
STARTCHAR 2160
ENCODING 9520
SWIDTH 2000 0
DWIDTH 20 0
BBX 2 14 9 0
BITMAP
C0
C0
C0
C0
C0
C0
C0
C0
C0
C0
C0
C0
C0
C0
ENDCHAR
STARTCHAR 2161
ENCODING 9521
SWIDTH 2000 0
DWIDTH 20 0
BBX 8 14 6 0
BITMAP
81
81
81
81
81
81
81
81
81
81
81
81
81
81
ENDCHAR
STARTCHAR 2162
ENCODING 9522
SWIDTH 2000 0
DWIDTH 20 0
BBX 12 14 4 0
BITMAP
8230
8230
8230
8230
8230
8230
8230
8230
8230
8230
8230
8230
8230
8230
ENDCHAR
STARTCHAR 2163
ENCODING 9523
SWIDTH 2000 0
DWIDTH 20 0
BBX 12 14 4 0
BITMAP
9810
8830
8820
8C20
8420
8440
8440
8240
8240
8280
8380
8180
8100
8100
ENDCHAR
STARTCHAR 2164
ENCODING 9524
SWIDTH 2000 0
DWIDTH 20 0
BBX 8 14 6 0
BITMAP
81
81
C3
42
42
42
24
24
24
34
18
18
18
08
ENDCHAR
STARTCHAR 2165
ENCODING 9525
SWIDTH 2000 0
DWIDTH 20 0
BBX 12 14 4 0
BITMAP
8190
C110
4110
4310
6210
2210
2210
2610
1410
1410
1410
1810
0810
0810
ENDCHAR
STARTCHAR 2166
ENCODING 9526
SWIDTH 2000 0
DWIDTH 20 0
BBX 14 14 3 0
BITMAP
8124
8324
C224
4224
4224
4424
2424
2424
2424
2824
1824
1824
1824
0024
ENDCHAR
STARTCHAR 2167
ENCODING 9527
SWIDTH 2000 0
DWIDTH 20 0
BBX 16 14 2 0
BITMAP
8249
8649
C449
4449
4449
4449
4849
2849
2849
2849
3049
1049
1049
1049
ENDCHAR
STARTCHAR 2168
ENCODING 9528
SWIDTH 2000 0
DWIDTH 20 0
BBX 12 14 4 0
BITMAP
8C30
8420
8460
8640
82C0
8380
8180
8180
8380
82C0
8240
8460
8420
8830
ENDCHAR
STARTCHAR 2169
ENCODING 9529
SWIDTH 2000 0
DWIDTH 20 0
BBX 8 14 6 0
BITMAP
C3
42
66
24
2C
18
18
18
18
24
24
46
42
C3
ENDCHAR
STARTCHAR 0391
ENCODING 9537
SWIDTH 2000 0
DWIDTH 20 0
BBX 14 14 3 0
BITMAP
0030
0050
0050
0090
0118
0218
0208
0408
0808
1FF8
1008
2008
400C
C00C
ENDCHAR
STARTCHAR 0392
ENCODING 9538
SWIDTH 2000 0
DWIDTH 20 0
BBX 12 14 4 0
BITMAP
0FE0
0830
1810
1010
1010
3020
3FC0
20C0
2060
4060
4060
4040
C0C0
FF00
ENDCHAR
STARTCHAR 0393
ENCODING 9539
SWIDTH 2000 0
DWIDTH 20 0
BBX 12 14 4 0
BITMAP
0FF0
0800
0800
1800
1000
1000
3000
2000
2000
2000
4000
4000
4000
C000
ENDCHAR
STARTCHAR 0394
ENCODING 9540
SWIDTH 2000 0
DWIDTH 20 0
BBX 13 14 4 0
BITMAP
0030
0070
00B0
0130
0230
0238
0438
0818
1018
1018
2018
4018
4018
FFF8
ENDCHAR
STARTCHAR 0395
ENCODING 9541
SWIDTH 2000 0
DWIDTH 20 0
BBX 12 14 4 0
BITMAP
0FF0
0800
1800
1000
1000
3000
3FC0
2000
6000
4000
4000
4000
C000
FF00
ENDCHAR
STARTCHAR 0396
ENCODING 9542
SWIDTH 2000 0
DWIDTH 20 0
BBX 14 14 3 0
BITMAP
0FFC
0008
0010
0020
0040
0080
0100
0200
0400
0800
1000
2000
4000
FFE0
ENDCHAR
STARTCHAR 0397
ENCODING 9543
SWIDTH 2000 0
DWIDTH 20 0
BBX 14 14 3 0
BITMAP
0804
0804
100C
1008
1008
2018
3FF0
2010
6030
4020
4020
C020
8040
8040
ENDCHAR
STARTCHAR 0398
ENCODING 9544
SWIDTH 2000 0
DWIDTH 20 0
BBX 12 14 4 0
BITMAP
0FC0
1820
3030
2010
4010
4010
DF90
8030
8020
8020
8060
8040
4180
3F00
ENDCHAR
STARTCHAR 0399
ENCODING 9545
SWIDTH 2000 0
DWIDTH 20 0
BBX 6 14 7 0
BITMAP
0C
08
08
18
10
10
10
20
20
20
60
40
40
C0
ENDCHAR
STARTCHAR 039A
ENCODING 9546
SWIDTH 2000 0
DWIDTH 20 0
BBX 13 14 3 0
BITMAP
0C08
0830
0860
1880
1300
1600
3800
2C00
2600
2300
6100
4080
4040
C020
ENDCHAR
STARTCHAR 039B
ENCODING 9547
SWIDTH 2000 0
DWIDTH 20 0
BBX 13 14 3 0
BITMAP
0060
00E0
00A0
0130
0330
0210
0410
0C10
0810
1018
3018
2008
6008
C008
ENDCHAR
STARTCHAR 039C
ENCODING 9548
SWIDTH 2000 0
DWIDTH 20 0
BBX 18 14 1 0
BITMAP
0E00C0
1E01C0
160340
1602C0
160680
260C80
260980
221900
631100
432100
436300
C34200
838200
838600
ENDCHAR
STARTCHAR 039D
ENCODING 9549
SWIDTH 2000 0
DWIDTH 20 0
BBX 14 14 3 0
BITMAP
1C04
1404
1404
160C
3208
2208
2218
6310
4110
4130
C1A0
80A0
80E0
80C0
ENDCHAR
STARTCHAR 039E
ENCODING 9550
SWIDTH 2000 0
DWIDTH 20 0
BBX 12 14 4 0
BITMAP
0FF0
0000
0000
0000
0000
0000
3FC0
0000
0000
0000
0000
0000
0000
FF80
ENDCHAR
STARTCHAR 039F
ENCODING 9551
SWIDTH 2000 0
DWIDTH 20 0
BBX 12 14 4 0
BITMAP
0FC0
1860
3030
6010
4010
4010
C010
8030
8020
8020
8060
C040
4080
3F00
ENDCHAR
STARTCHAR 03A0
ENCODING 9552
SWIDTH 2000 0
DWIDTH 20 0
BBX 14 14 3 0
BITMAP
0FFC
0804
1808
1008
1008
3018
2010
2010
6030
4020
4020
4060
C040
8040
ENDCHAR
STARTCHAR 03A1
ENCODING 9553
SWIDTH 2000 0
DWIDTH 20 0
BBX 12 14 4 0
BITMAP
0FE0
1830
1010
1010
3010
2030
2060
3FC0
4000
4000
4000
C000
8000
8000
ENDCHAR
STARTCHAR 03A3
ENCODING 9554
SWIDTH 2000 0
DWIDTH 20 0
BBX 12 14 4 0
BITMAP
0FF0
1800
0800
0400
0600
0200
0300
0600
0C00
1800
3000
4000
8000
FF80
ENDCHAR
STARTCHAR 03A4
ENCODING 9555
SWIDTH 2000 0
DWIDTH 20 0
BBX 10 14 5 0
BITMAP
FFC0
0C00
0800
0800
1800
1000
1000
1000
2000
2000
2000
6000
4000
4000
ENDCHAR
STARTCHAR 03A5
ENCODING 9556
SWIDTH 2000 0
DWIDTH 20 0
BBX 12 14 4 0
BITMAP
8030
4020
4040
6080
2100
2200
3600
1C00
1800
1000
1000
1000
2000
2000
ENDCHAR
STARTCHAR 03A6
ENCODING 9557
SWIDTH 2000 0
DWIDTH 20 0
BBX 14 14 3 0
BITMAP
00C0
07E0
1898
2188
4104
4104
8304
820C
8208
8618
4430
64E0
1F80
0C00
ENDCHAR
STARTCHAR 03A7
ENCODING 9558
SWIDTH 2000 0
DWIDTH 20 0
BBX 14 14 3 0
BITMAP
100C
0818
0810
0420
0440
0280
0300
0300
0500
0880
10C0
2040
6060
C020
ENDCHAR
STARTCHAR 03A8
ENCODING 9559
SWIDTH 2000 0
DWIDTH 20 0
BBX 14 14 3 0
BITMAP
4104
410C
C208
8208
8218
8610
8410
8420
CC60
3F80
0800
0800
1000
1000
ENDCHAR
STARTCHAR 03A9
ENCODING 9560
SWIDTH 2000 0
DWIDTH 20 0
BBX 14 14 3 0
BITMAP
03F0
0408
080C
1004
1004
3004
2004
2008
2008
1010
1820
0DC0
0900
F9F0
ENDCHAR
STARTCHAR 03B1
ENCODING 9569
SWIDTH 2000 0
DWIDTH 20 0
BBX 10 10 5 0
BITMAP
0E40
31C0
6080
4080
C080
8180
8100
8300
C700
7B00
ENDCHAR
STARTCHAR 03B2
ENCODING 9570
SWIDTH 2000 0
DWIDTH 20 0
BBX 12 18 4 -4
BITMAP
01E0
0210
0410
0C10
0C30
08E0
0900
18C0
1020
1020
3020
2020
3040
6F80
4000
4000
C000
8000
ENDCHAR
STARTCHAR 03B3
ENCODING 9571
SWIDTH 2000 0
DWIDTH 20 0
BBX 8 13 6 -3
BITMAP
81
82
82
84
8C
88
D0
70
60
40
40
C0
C0
ENDCHAR
STARTCHAR 03B4
ENCODING 9572
SWIDTH 2000 0
DWIDTH 20 0
BBX 11 14 4 0
BITMAP
07E0
0600
0200
0100
0780
1880
20C0
6040
40C0
40C0
C080
C180
4300
7E00
ENDCHAR
STARTCHAR 03B5
ENCODING 9573
SWIDTH 2000 0
DWIDTH 20 0
BBX 8 10 6 0
BITMAP
1F
30
20
20
1E
60
80
80
80
7C
ENDCHAR
STARTCHAR 03B6
ENCODING 9574
SWIDTH 2000 0
DWIDTH 20 0
BBX 10 18 5 -4
BITMAP
0FC0
0080
0100
0200
0400
0800
1000
2000
6000
4000
8000
8000
C000
7800
0C00
0400
0C00
3000
ENDCHAR
STARTCHAR 03B7
ENCODING 9575
SWIDTH 2000 0
DWIDTH 20 0
BBX 10 10 5 0
BITMAP
1100
16C0
3840
2040
20C0
6080
4080
4080
C100
8100
ENDCHAR
STARTCHAR 03B8
ENCODING 9576
SWIDTH 2000 0
DWIDTH 20 0
BBX 10 14 5 0
BITMAP
0780
0880
1040
2040
2040
40C0
7F80
4080
C080
8180
8100
8300
C600
7C00
ENDCHAR
STARTCHAR 03B9
ENCODING 9577
SWIDTH 2000 0
DWIDTH 20 0
BBX 4 10 8 0
BITMAP
10
30
20
20
20
40
40
40
C0
80
ENDCHAR
STARTCHAR 03BA
ENCODING 9578
SWIDTH 2000 0
DWIDTH 20 0
BBX 10 10 5 0
BITMAP
10C0
3100
2200
2C00
7800
5800
4C00
4400
C200
8300
ENDCHAR
STARTCHAR 03BB
ENCODING 9579
SWIDTH 2000 0
DWIDTH 20 0
BBX 8 14 6 0
BITMAP
04
04
06
06
02
06
0A
0A
13
33
21
41
C1
81
ENDCHAR
STARTCHAR 03BC
ENCODING 9580
SWIDTH 2000 0
DWIDTH 20 0
BBX 12 14 4 -4
BITMAP
0810
0830
1820
1020
1060
1040
3040
30C0
3140
6E40
4000
4000
4000
8000
ENDCHAR
STARTCHAR 03BD
ENCODING 9581
SWIDTH 2000 0
DWIDTH 20 0
BBX 9 9 5 0
BITMAP
C080
4180
4100
4200
4600
6400
6800
3800
3000
ENDCHAR
STARTCHAR 03BE
ENCODING 9582
SWIDTH 2000 0
DWIDTH 20 0
BBX 10 17 5 -3
BITMAP
0FC0
0200
0C00
1800
1800
0800
0F00
7000
4000
8000
8000
8000
C000
7800
0C00
0C00
3800
ENDCHAR
STARTCHAR 03BF
ENCODING 9583
SWIDTH 2000 0
DWIDTH 20 0
BBX 10 10 5 0
BITMAP
0F00
1880
20C0
60C0
40C0
C080
8080
8100
C300
7E00
ENDCHAR
STARTCHAR 03C0
ENCODING 9584
SWIDTH 2000 0
DWIDTH 20 0
BBX 10 10 5 0
BITMAP
1FC0
30C0
2080
2080
6080
4180
4100
C100
8300
8200
ENDCHAR
STARTCHAR 03C1
ENCODING 9585
SWIDTH 2000 0
DWIDTH 20 0
BBX 10 14 5 -4
BITMAP
0300
0CC0
1040
1040
2040
2040
2040
20C0
7180
5F00
4400
C000
8000
8000
ENDCHAR
STARTCHAR 03C3
ENCODING 9586
SWIDTH 2000 0
DWIDTH 20 0
BBX 10 10 5 0
BITMAP
1FC0
3300
6180
C080
8080
8180
8100
8300
8600
7800
ENDCHAR
STARTCHAR 03C4
ENCODING 9587
SWIDTH 2000 0
DWIDTH 20 0
BBX 8 9 6 0
BITMAP
FF
10
10
30
20
20
60
40
40
ENDCHAR
STARTCHAR 03C5
ENCODING 9588
SWIDTH 2000 0
DWIDTH 20 0
BBX 10 10 5 0
BITMAP
20C0
2080
6080
4080
4100
4100
8100
8300
C600
3800
ENDCHAR
STARTCHAR 03C6
ENCODING 9589
SWIDTH 2000 0
DWIDTH 20 0
BBX 12 14 4 -4
BITMAP
09E0
3310
6210
4210
C230
8620
8420
8460
4CC0
3F80
0800
1800
1800
1000
ENDCHAR
STARTCHAR 03C7
ENCODING 9590
SWIDTH 2000 0
DWIDTH 20 0
BBX 10 10 5 0
BITMAP
30C0
1180
1900
0A00
0C00
0C00
1600
2200
6300
C100
ENDCHAR
STARTCHAR 03C8
ENCODING 9591
SWIDTH 2000 0
DWIDTH 20 0
BBX 13 14 3 -4
BITMAP
2108
2118
6310
4210
4210
4630
C420
C420
4440
7F80
0800
0800
1800
1000
ENDCHAR
STARTCHAR 03C9
ENCODING 9592
SWIDTH 2000 0
DWIDTH 20 0
BBX 12 10 4 0
BITMAP
1020
2030
6210
4210
C630
C430
8420
8C60
4CC0
3380
ENDCHAR
STARTCHAR 2500
ENCODING 9761
SWIDTH 2000 0
DWIDTH 20 0
BBX 20 1 0 6
BITMAP
FFFFF0
ENDCHAR
STARTCHAR 2502
ENCODING 9762
SWIDTH 2000 0
DWIDTH 20 0
BBX 1 20 9 -4
BITMAP
80
80
80
80
80
80
80
80
80
80
80
80
80
80
80
80
80
80
80
80
ENDCHAR
STARTCHAR 250C
ENCODING 9763
SWIDTH 2000 0
DWIDTH 20 0
BBX 11 10 5 -4
BITMAP
FFE0
8000
8000
8000
8000
8000
8000
8000
8000
8000
ENDCHAR
STARTCHAR 2510
ENCODING 9764
SWIDTH 2000 0
DWIDTH 20 0
BBX 11 10 4 -4
BITMAP
FFE0
0020
0020
0020
0020
0020
0020
0020
0020
0020
ENDCHAR
STARTCHAR 2518
ENCODING 9765
SWIDTH 2000 0
DWIDTH 20 0
BBX 11 10 4 6
BITMAP
0020
0020
0020
0020
0020
0020
0020
0020
0020
FFE0
ENDCHAR
STARTCHAR 2514
ENCODING 9766
SWIDTH 2000 0
DWIDTH 20 0
BBX 11 10 5 6
BITMAP
8000
8000
8000
8000
8000
8000
8000
8000
8000
FFE0
ENDCHAR
STARTCHAR 251C
ENCODING 9767
SWIDTH 2000 0
DWIDTH 20 0
BBX 11 20 5 -4
BITMAP
8000
8000
8000
8000
8000
8000
8000
8000
8000
8000
FFE0
8000
8000
8000
8000
8000
8000
8000
8000
8000
ENDCHAR
STARTCHAR 252C
ENCODING 9768
SWIDTH 2000 0
DWIDTH 20 0
BBX 21 10 -1 -4
BITMAP
FFFFF8
002000
002000
002000
002000
002000
002000
002000
002000
002000
ENDCHAR
STARTCHAR 2524
ENCODING 9769
SWIDTH 2000 0
DWIDTH 20 0
BBX 11 20 4 -4
BITMAP
0020
0020
0020
0020
0020
0020
0020
0020
0020
0020
FFE0
0020
0020
0020
0020
0020
0020
0020
0020
0020
ENDCHAR
STARTCHAR 2534
ENCODING 9770
SWIDTH 2000 0
DWIDTH 20 0
BBX 21 11 -1 5
BITMAP
002000
002000
002000
002000
002000
002000
002000
002000
002000
002000
FFFFF8
ENDCHAR
STARTCHAR 253C
ENCODING 9771
SWIDTH 2000 0
DWIDTH 20 0
BBX 21 20 -1 -4
BITMAP
002000
002000
002000
002000
002000
002000
002000
002000
002000
002000
FFFFF8
002000
002000
002000
002000
002000
002000
002000
002000
002000
ENDCHAR
STARTCHAR 2501
ENCODING 9772
SWIDTH 2000 0
DWIDTH 20 0
BBX 20 1 0 5
BITMAP
FFFFF0
ENDCHAR
STARTCHAR 2503
ENCODING 9773
SWIDTH 2000 0
DWIDTH 20 0
BBX 1 20 9 -4
BITMAP
80
80
80
80
80
80
80
80
80
80
80
80
80
80
80
80
80
80
80
80
ENDCHAR
STARTCHAR 250F
ENCODING 9774
SWIDTH 2000 0
DWIDTH 20 0
BBX 10 10 5 -4
BITMAP
FFC0
8000
8000
8000
8000
8000
8000
8000
8000
8000
ENDCHAR
STARTCHAR 2513
ENCODING 9775
SWIDTH 2000 0
DWIDTH 20 0
BBX 10 10 5 -4
BITMAP
FFC0
0040
0040
0040
0040
0040
0040
0040
0040
0040
ENDCHAR
STARTCHAR 251B
ENCODING 9776
SWIDTH 2000 0
DWIDTH 20 0
BBX 10 11 5 5
BITMAP
0040
0040
0040
0040
0040
0040
0040
0040
0040
0040
FFC0
ENDCHAR
STARTCHAR 2517
ENCODING 9777
SWIDTH 2000 0
DWIDTH 20 0
BBX 10 11 5 5
BITMAP
8000
8000
8000
8000
8000
8000
8000
8000
8000
8000
FFC0
ENDCHAR
STARTCHAR 2523
ENCODING 9778
SWIDTH 2000 0
DWIDTH 20 0
BBX 10 20 5 -4
BITMAP
8000
8000
8000
8000
8000
8000
8000
8000
8000
8000
FFC0
8000
8000
8000
8000
8000
8000
8000
8000
8000
ENDCHAR
STARTCHAR 2533
ENCODING 9779
SWIDTH 2000 0
DWIDTH 20 0
BBX 19 10 0 -4
BITMAP
FFFFE0
004000
004000
004000
004000
004000
004000
004000
004000
004000
ENDCHAR
STARTCHAR 252B
ENCODING 9780
SWIDTH 2000 0
DWIDTH 20 0
BBX 10 20 5 -4
BITMAP
0040
0040
0040
0040
0040
0040
0040
0040
0040
0040
FFC0
0040
0040
0040
0040
0040
0040
0040
0040
0040
ENDCHAR
STARTCHAR 253B
ENCODING 9781
SWIDTH 2000 0
DWIDTH 20 0
BBX 19 11 1 5
BITMAP
004000
004000
004000
004000
004000
004000
004000
004000
004000
004000
FFFFE0
ENDCHAR
STARTCHAR 254B
ENCODING 9782
SWIDTH 2000 0
DWIDTH 20 0
BBX 19 20 1 -4
BITMAP
004000
004000
004000
004000
004000
004000
004000
004000
004000
004000
FFFFE0
004000
004000
004000
004000
004000
004000
004000
004000
004000
ENDCHAR
STARTCHAR 2520
ENCODING 9783
SWIDTH 2000 0
DWIDTH 20 0
BBX 10 20 5 -4
BITMAP
8000
8000
8000
8000
8000
8000
8000
8000
8000
FFC0
8000
8000
8000
8000
8000
8000
8000
8000
8000
8000
ENDCHAR
STARTCHAR 252F
ENCODING 9784
SWIDTH 2000 0
DWIDTH 20 0
BBX 21 10 -1 -4
BITMAP
FFFFF8
002000
002000
002000
002000
002000
002000
002000
002000
002000
ENDCHAR
STARTCHAR 2528
ENCODING 9785
SWIDTH 2000 0
DWIDTH 20 0
BBX 10 20 5 -4
BITMAP
0040
0040
0040
0040
0040
0040
0040
0040
0040
FFC0
0040
0040
0040
0040
0040
0040
0040
0040
0040
0040
ENDCHAR
STARTCHAR 2537
ENCODING 9786
SWIDTH 2000 0
DWIDTH 20 0
BBX 21 11 -1 5
BITMAP
002000
002000
002000
002000
002000
002000
002000
002000
002000
002000
FFFFF8
ENDCHAR
STARTCHAR 253F
ENCODING 9787
SWIDTH 2000 0
DWIDTH 20 0
BBX 21 20 -1 -4
BITMAP
002000
002000
002000
002000
002000
002000
002000
002000
002000
002000
FFFFF8
002000
002000
002000
002000
002000
002000
002000
002000
002000
ENDCHAR
STARTCHAR 251D
ENCODING 9788
SWIDTH 2000 0
DWIDTH 20 0
BBX 11 20 5 -4
BITMAP
8000
8000
8000
8000
8000
8000
8000
8000
8000
8000
FFE0
8000
8000
8000
8000
8000
8000
8000
8000
8000
ENDCHAR
STARTCHAR 2530
ENCODING 9789
SWIDTH 2000 0
DWIDTH 20 0
BBX 19 10 0 -4
BITMAP
FFFFE0
004000
004000
004000
004000
004000
004000
004000
004000
004000
ENDCHAR
STARTCHAR 2525
ENCODING 9790
SWIDTH 2000 0
DWIDTH 20 0
BBX 11 20 4 -4
BITMAP
0020
0020
0020
0020
0020
0020
0020
0020
0020
0020
FFE0
0020
0020
0020
0020
0020
0020
0020
0020
0020
ENDCHAR
STARTCHAR 2538
ENCODING 9791
SWIDTH 2000 0
DWIDTH 20 0
BBX 19 11 0 5
BITMAP
004000
004000
004000
004000
004000
004000
004000
004000
004000
004000
FFFFE0
ENDCHAR
STARTCHAR 2542
ENCODING 9792
SWIDTH 2000 0
DWIDTH 20 0
BBX 19 20 0 -4
BITMAP
004000
004000
004000
004000
004000
004000
004000
004000
004000
004000
FFFFE0
004000
004000
004000
004000
004000
004000
004000
004000
004000
ENDCHAR
STARTCHAR 2512
ENCODING 9793
SWIDTH 2000 0
DWIDTH 20 0
BBX 10 10 5 -4
BITMAP
FFC0
0040
0040
0040
0040
0040
0040
0040
0040
0040
ENDCHAR
STARTCHAR 2511
ENCODING 9794
SWIDTH 2000 0
DWIDTH 20 0
BBX 11 10 4 -4
BITMAP
FFE0
0020
0020
0020
0020
0020
0020
0020
0020
0020
ENDCHAR
STARTCHAR 251A
ENCODING 9795
SWIDTH 2000 0
DWIDTH 20 0
BBX 10 11 5 5
BITMAP
0040
0040
0040
0040
0040
0040
0040
0040
0040
0040
FFC0
ENDCHAR
STARTCHAR 2519
ENCODING 9796
SWIDTH 2000 0
DWIDTH 20 0
BBX 11 11 4 5
BITMAP
0020
0020
0020
0020
0020
0020
0020
0020
0020
0020
FFE0
ENDCHAR
STARTCHAR 2516
ENCODING 9797
SWIDTH 2000 0
DWIDTH 20 0
BBX 10 11 5 5
BITMAP
8000
8000
8000
8000
8000
8000
8000
8000
8000
8000
FFC0
ENDCHAR
STARTCHAR 2515
ENCODING 9798
SWIDTH 2000 0
DWIDTH 20 0
BBX 11 11 5 5
BITMAP
8000
8000
8000
8000
8000
8000
8000
8000
8000
8000
FFE0
ENDCHAR
STARTCHAR 250E
ENCODING 9799
SWIDTH 2000 0
DWIDTH 20 0
BBX 10 11 5 -4
BITMAP
FFC0
8000
8000
8000
8000
8000
8000
8000
8000
8000
8000
ENDCHAR
STARTCHAR 250D
ENCODING 9800
SWIDTH 2000 0
DWIDTH 20 0
BBX 11 10 5 -4
BITMAP
FFE0
8000
8000
8000
8000
8000
8000
8000
8000
8000
ENDCHAR
STARTCHAR 251E
ENCODING 9801
SWIDTH 2000 0
DWIDTH 20 0
BBX 10 20 5 -4
BITMAP
8000
8000
8000
8000
8000
8000
8000
8000
8000
8000
FFC0
8000
8000
8000
8000
8000
8000
8000
8000
8000
ENDCHAR
STARTCHAR 251F
ENCODING 9802
SWIDTH 2000 0
DWIDTH 20 0
BBX 10 20 5 -4
BITMAP
8000
8000
8000
8000
8000
8000
8000
8000
8000
FFC0
8000
8000
8000
8000
8000
8000
8000
8000
8000
8000
ENDCHAR
STARTCHAR 2521
ENCODING 9803
SWIDTH 2000 0
DWIDTH 20 0
BBX 10 20 5 -4
BITMAP
8000
8000
8000
8000
8000
8000
8000
8000
8000
8000
FFC0
8000
8000
8000
8000
8000
8000
8000
8000
8000
ENDCHAR
STARTCHAR 2522
ENCODING 9804
SWIDTH 2000 0
DWIDTH 20 0
BBX 10 20 5 -4
BITMAP
8000
8000
8000
8000
8000
8000
8000
8000
8000
8000
FFC0
8000
8000
8000
8000
8000
8000
8000
8000
8000
ENDCHAR
STARTCHAR 2526
ENCODING 9805
SWIDTH 2000 0
DWIDTH 20 0
BBX 10 20 5 -4
BITMAP
0040
0040
0040
0040
0040
0040
0040
0040
0040
0040
FFC0
0040
0040
0040
0040
0040
0040
0040
0040
0040
ENDCHAR
STARTCHAR 2527
ENCODING 9806
SWIDTH 2000 0
DWIDTH 20 0
BBX 10 20 5 -4
BITMAP
0040
0040
0040
0040
0040
0040
0040
0040
0040
FFC0
0040
0040
0040
0040
0040
0040
0040
0040
0040
0040
ENDCHAR
STARTCHAR 2529
ENCODING 9807
SWIDTH 2000 0
DWIDTH 20 0
BBX 10 20 5 -4
BITMAP
0040
0040
0040
0040
0040
0040
0040
0040
0040
0040
FFC0
0040
0040
0040
0040
0040
0040
0040
0040
0040
ENDCHAR
STARTCHAR 252A
ENCODING 9808
SWIDTH 2000 0
DWIDTH 20 0
BBX 10 20 5 -4
BITMAP
0040
0040
0040
0040
0040
0040
0040
0040
0040
0040
FFC0
0040
0040
0040
0040
0040
0040
0040
0040
0040
ENDCHAR
STARTCHAR 252D
ENCODING 9809
SWIDTH 2000 0
DWIDTH 20 0
BBX 21 10 -1 -4
BITMAP
FFFFF8
002000
002000
002000
002000
002000
002000
002000
002000
002000
ENDCHAR
STARTCHAR 252E
ENCODING 9810
SWIDTH 2000 0
DWIDTH 20 0
BBX 21 10 -1 -4
BITMAP
FFFFF8
002000
002000
002000
002000
002000
002000
002000
002000
002000
ENDCHAR
STARTCHAR 2531
ENCODING 9811
SWIDTH 2000 0
DWIDTH 20 0
BBX 19 10 0 -4
BITMAP
FFFFE0
004000
004000
004000
004000
004000
004000
004000
004000
004000
ENDCHAR
STARTCHAR 2532
ENCODING 9812
SWIDTH 2000 0
DWIDTH 20 0
BBX 19 10 0 -4
BITMAP
FFFFE0
004000
004000
004000
004000
004000
004000
004000
004000
004000
ENDCHAR
STARTCHAR 2535
ENCODING 9813
SWIDTH 2000 0
DWIDTH 20 0
BBX 21 11 -1 5
BITMAP
002000
002000
002000
002000
002000
002000
002000
002000
002000
002000
FFFFF8
ENDCHAR
STARTCHAR 2536
ENCODING 9814
SWIDTH 2000 0
DWIDTH 20 0
BBX 21 11 -1 5
BITMAP
002000
002000
002000
002000
002000
002000
002000
002000
002000
002000
FFFFF8
ENDCHAR
STARTCHAR 2539
ENCODING 9815
SWIDTH 2000 0
DWIDTH 20 0
BBX 19 11 0 5
BITMAP
004000
004000
004000
004000
004000
004000
004000
004000
004000
004000
FFFFE0
ENDCHAR
STARTCHAR 253A
ENCODING 9816
SWIDTH 2000 0
DWIDTH 20 0
BBX 19 11 0 5
BITMAP
004000
004000
004000
004000
004000
004000
004000
004000
004000
004000
FFFFE0
ENDCHAR
STARTCHAR 253D
ENCODING 9817
SWIDTH 2000 0
DWIDTH 20 0
BBX 21 20 -1 -4
BITMAP
002000
002000
002000
002000
002000
002000
002000
002000
002000
002000
FFFFF8
002000
002000
002000
002000
002000
002000
002000
002000
002000
ENDCHAR
STARTCHAR 253E
ENCODING 9818
SWIDTH 2000 0
DWIDTH 20 0
BBX 21 20 -1 -4
BITMAP
002000
002000
002000
002000
002000
002000
002000
002000
002000
002000
FFFFF8
002000
002000
002000
002000
002000
002000
002000
002000
002000
ENDCHAR
STARTCHAR 2540
ENCODING 9819
SWIDTH 2000 0
DWIDTH 20 0
BBX 19 20 0 -4
BITMAP
004000
004000
004000
004000
004000
004000
004000
004000
004000
004000
FFFFE0
004000
004000
004000
004000
004000
004000
004000
004000
004000
ENDCHAR
STARTCHAR 2541
ENCODING 9820
SWIDTH 2000 0
DWIDTH 20 0
BBX 19 20 0 -4
BITMAP
004000
004000
004000
004000
004000
004000
004000
004000
004000
004000
FFFFE0
004000
004000
004000
004000
004000
004000
004000
004000
004000
ENDCHAR
STARTCHAR 2543
ENCODING 9821
SWIDTH 2000 0
DWIDTH 20 0
BBX 19 20 0 -4
BITMAP
004000
004000
004000
004000
004000
004000
004000
004000
004000
007FE0
FFC000
004000
004000
004000
004000
004000
004000
004000
004000
004000
ENDCHAR
STARTCHAR 2544
ENCODING 9822
SWIDTH 2000 0
DWIDTH 20 0
BBX 19 20 0 -4
BITMAP
004000
004000
004000
004000
004000
004000
004000
004000
004000
004000
FFFFE0
004000
004000
004000
004000
004000
004000
004000
004000
004000
ENDCHAR
STARTCHAR 2545
ENCODING 9823
SWIDTH 2000 0
DWIDTH 20 0
BBX 19 20 0 -4
BITMAP
004000
004000
004000
004000
004000
004000
004000
004000
004000
004000
FFFFE0
004000
004000
004000
004000
004000
004000
004000
004000
004000
ENDCHAR
STARTCHAR 2546
ENCODING 9824
SWIDTH 2000 0
DWIDTH 20 0
BBX 19 20 0 -4
BITMAP
004000
004000
004000
004000
004000
004000
004000
004000
004000
004000
FFFFE0
004000
004000
004000
004000
004000
004000
004000
004000
004000
ENDCHAR
STARTCHAR 2547
ENCODING 9825
SWIDTH 2000 0
DWIDTH 20 0
BBX 19 20 1 -4
BITMAP
004000
004000
004000
004000
004000
004000
004000
004000
004000
004000
FFFFE0
008000
008000
008000
008000
008000
008000
008000
008000
008000
ENDCHAR
STARTCHAR 2548
ENCODING 9826
SWIDTH 2000 0
DWIDTH 20 0
BBX 19 20 1 -4
BITMAP
008000
008000
008000
008000
008000
008000
008000
008000
008000
008000
FFFFE0
004000
004000
004000
004000
004000
004000
004000
004000
004000
ENDCHAR
STARTCHAR 2549
ENCODING 9827
SWIDTH 2000 0
DWIDTH 20 0
BBX 19 20 0 -4
BITMAP
004000
004000
004000
004000
004000
004000
004000
004000
004000
004000
FFFFE0
004000
004000
004000
004000
004000
004000
004000
004000
004000
ENDCHAR
STARTCHAR 254A
ENCODING 9828
SWIDTH 2000 0
DWIDTH 20 0
BBX 19 20 0 -4
BITMAP
004000
004000
004000
004000
004000
004000
004000
004000
004000
004000
FFFFE0
004000
004000
004000
004000
004000
004000
004000
004000
004000
ENDCHAR
STARTCHAR 3395
ENCODING 10017
SWIDTH 2000 0
DWIDTH 20 0
BBX 18 18 1 -4
BITMAP
000380
000480
000440
000440
082880
104880
104880
104980
20C900
208A00
208E00
218C00
611440
560380
480000
800000
800000
800000
ENDCHAR
STARTCHAR 3396
ENCODING 10018
SWIDTH 2000 0
DWIDTH 20 0
BBX 17 14 1 0
BITMAP
000700
000900
000880
001080
FF9100
889100
889100
889200
889200
889400
889C00
889880
88A880
888700
ENDCHAR
STARTCHAR 3397
ENCODING 10019
SWIDTH 2000 0
DWIDTH 20 0
BBX 16 14 2 0
BITMAP
010E
0112
0112
0122
3D22
4322
8322
8124
8124
8128
8130
8321
4351
3D0E
ENDCHAR
STARTCHAR 2113
ENCODING 10020
SWIDTH 2000 0
DWIDTH 20 0
BBX 8 14 6 0
BITMAP
1E
32
22
22
22
42
44
44
4C
48
30
21
F3
1E
ENDCHAR
STARTCHAR 3398
ENCODING 10021
SWIDTH 2000 0
DWIDTH 20 0
BBX 16 14 2 0
BITMAP
800E
8012
8012
8022
8222
8422
8822
B024
F024
C828
8830
8421
82D1
831E
ENDCHAR
STARTCHAR 33C4
ENCODING 10022
SWIDTH 2000 0
DWIDTH 20 0
BBX 18 10 1 0
BITMAP
3C0F80
621080
412040
802000
802000
802000
802040
812040
431080
3E0F00
ENDCHAR
STARTCHAR 33A3
ENCODING 10023
SWIDTH 2000 0
DWIDTH 20 0
BBX 18 15 1 0
BITMAP
0000C0
000040
000040
000040
000080
A65B00
D96C80
914880
914880
914880
914880
914880
914880
914880
914880
ENDCHAR
STARTCHAR 33A4
ENCODING 10024
SWIDTH 2000 0
DWIDTH 20 0
BBX 19 15 0 0
BITMAP
000020
000020
000020
000020
000040
3E2D80
413640
412440
802440
802440
802440
812440
412440
632440
3C2440
ENDCHAR
STARTCHAR 33A5
ENCODING 10025
SWIDTH 2000 0
DWIDTH 20 0
BBX 15 15 3 0
BITMAP
000C
0004
0002
0004
0000
BCF0
C308
8208
8208
8208
8208
8208
8208
8208
8208
ENDCHAR
STARTCHAR 33A6
ENCODING 10026
SWIDTH 2000 0
DWIDTH 20 0
BBX 18 15 1 0
BITMAP
0000C0
800040
800040
800140
800080
82B300
84CC80
888880
908880
B08880
C88880
888880
848880
828880
828880
ENDCHAR
STARTCHAR 3399
ENCODING 10027
SWIDTH 2000 0
DWIDTH 20 0
BBX 15 14 2 0
BITMAP
3800
2000
2000
2000
F9EC
2112
2112
2112
2112
2112
2112
2112
2112
2112
ENDCHAR
STARTCHAR 339A
ENCODING 10028
SWIDTH 2000 0
DWIDTH 20 0
BBX 18 10 1 0
BITMAP
BC7FC0
C24440
824440
824440
824440
824440
824440
824440
824440
824440
ENDCHAR
STARTCHAR 339B
ENCODING 10029
SWIDTH 2000 0
DWIDTH 20 0
BBX 19 14 1 -4
BITMAP
08BFE0
10A220
10A220
112220
212220
212220
222220
422220
422220
6E2220
900000
800000
800000
800000
ENDCHAR
STARTCHAR 339C
ENCODING 10030
SWIDTH 2000 0
DWIDTH 20 0
BBX 18 10 1 0
BITMAP
F63DC0
992640
912440
912440
912440
912440
912440
912440
912440
912440
ENDCHAR
STARTCHAR 339D
ENCODING 10031
SWIDTH 2000 0
DWIDTH 20 0
BBX 18 10 1 0
BITMAP
3C2D80
423640
412440
802440
802440
802440
802440
812440
422440
3C2440
ENDCHAR
STARTCHAR 339E
ENCODING 10032
SWIDTH 2000 0
DWIDTH 20 0
BBX 16 14 2 0
BITMAP
8000
8000
8000
8000
82F7
8489
8889
B089
F089
C889
8889
8489
8289
8289
ENDCHAR
STARTCHAR 339F
ENCODING 10033
SWIDTH 2000 0
DWIDTH 20 0
BBX 18 15 1 0
BITMAP
0000C0
000040
000080
000100
000080
F67B00
994C80
914880
914880
914880
914880
914880
914880
914880
914880
ENDCHAR
STARTCHAR 33A0
ENCODING 10034
SWIDTH 2000 0
DWIDTH 20 0
BBX 19 15 0 0
BITMAP
000060
000020
000040
000080
000040
1E2D80
633240
412240
402240
802240
802240
802240
412240
612240
1E2240
ENDCHAR
STARTCHAR 33A1
ENCODING 10035
SWIDTH 2000 0
DWIDTH 20 0
BBX 15 15 3 0
BITMAP
000E
0002
000C
0008
0004
BCF0
C308
8208
8208
8208
8208
8208
8208
8208
8208
ENDCHAR
STARTCHAR 33A2
ENCODING 10036
SWIDTH 2000 0
DWIDTH 20 0
BBX 18 15 1 0
BITMAP
0000C0
800040
800080
800000
8000C0
82FF80
848880
888880
908880
B08880
C88880
888880
848880
828880
828880
ENDCHAR
STARTCHAR 33CA
ENCODING 10037
SWIDTH 2000 0
DWIDTH 20 0
BBX 16 14 2 0
BITMAP
8000
8000
8000
8000
BC3C
C442
8442
8406
843E
8462
8442
8442
8446
8039
ENDCHAR
STARTCHAR 338D
ENCODING 10038
SWIDTH 2000 0
DWIDTH 20 0
BBX 18 14 1 -4
BITMAP
109FC0
11A100
112100
212100
212100
221300
422C00
422000
661F00
7A2080
804040
804040
803B80
800400
ENDCHAR
STARTCHAR 338E
ENCODING 10039
SWIDTH 2000 0
DWIDTH 20 0
BBX 18 14 1 -4
BITMAP
B60CC0
C93300
892100
896100
892100
893300
893E00
896000
893C00
894380
00C040
00C040
006180
001F00
ENDCHAR
STARTCHAR 338F
ENCODING 10040
SWIDTH 2000 0
DWIDTH 20 0
BBX 17 18 1 -4
BITMAP
800000
800000
800000
800000
821D80
842200
884300
B04100
F04200
C82200
887C00
844000
823E00
824100
008080
00C080
007300
001C00
ENDCHAR
STARTCHAR 33CF
ENCODING 10041
SWIDTH 2000 0
DWIDTH 20 0
BBX 12 14 4 0
BITMAP
8000
8040
8040
8040
82F0
8440
8840
B040
F040
C840
8840
8440
8240
8230
ENDCHAR
STARTCHAR 3388
ENCODING 10042
SWIDTH 2000 0
DWIDTH 20 0
BBX 18 15 1 -1
BITMAP
000040
000040
000040
000040
383840
444440
82C240
808240
800E40
807240
804240
828240
42C640
647E40
183000
ENDCHAR
STARTCHAR 3389
ENCODING 10043
SWIDTH 2000 0
DWIDTH 20 0
BBX 18 14 1 0
BITMAP
800040
800040
800040
800040
8B8E40
949240
945140
A40340
A40740
E40940
941140
945140
949340
8B9D40
ENDCHAR
STARTCHAR 33C8
ENCODING 10044
SWIDTH 2000 0
DWIDTH 20 0
BBX 18 14 1 0
BITMAP
013F00
012080
012080
012080
3D2080
432080
833F00
812080
812040
812040
812040
832040
432080
3D3F00
ENDCHAR
STARTCHAR 33A7
ENCODING 10045
SWIDTH 2000 0
DWIDTH 20 0
BBX 18 18 1 -3
BITMAP
318000
CE4000
844000
884040
884180
884300
884400
804800
001000
002780
004840
008840
030800
040780
080040
100840
200840
000780
ENDCHAR
STARTCHAR 33A8
ENCODING 10046
SWIDTH 2000 0
DWIDTH 20 0
BBX 18 18 1 -3
BITMAP
FB8000
CC4000
844000
844040
844180
844300
8444C0
844840
001080
002600
004900
009080
030800
060600
080100
101080
200900
000F00
ENDCHAR
STARTCHAR 33B0
ENCODING 10047
SWIDTH 2000 0
DWIDTH 20 0
BBX 17 13 1 -2
BITMAP
1C0000
3E1F00
632080
412080
413000
809C00
810300
410080
412080
A22080
9C1F00
800000
800000
ENDCHAR
STARTCHAR 33B1
ENCODING 10048
SWIDTH 2000 0
DWIDTH 20 0
BBX 16 10 2 0
BITMAP
BC7E
C442
8441
8440
8438
8406
8401
8481
8443
803C
ENDCHAR
STARTCHAR 33B2
ENCODING 10049
SWIDTH 2000 0
DWIDTH 20 0
BBX 20 14 0 -4
BITMAP
0827C0
082420
082800
106400
104300
1040E0
20C010
208810
218430
5283E0
4C0000
400000
400000
800000
ENDCHAR
STARTCHAR 33B3
ENCODING 10050
SWIDTH 2000 0
DWIDTH 20 0
BBX 18 10 1 0
BITMAP
FF9F80
88A080
88A080
889000
888E00
888180
888040
88A040
889080
888F00
ENDCHAR
STARTCHAR 33B4
ENCODING 10051
SWIDTH 2000 0
DWIDTH 20 0
BBX 17 18 1 -4
BITMAP
008080
004080
004080
004080
1C4100
E22100
C12100
812200
811200
811200
811400
C11400
C30C00
BE0C00
980000
800000
800000
800000
ENDCHAR
STARTCHAR 33B5
ENCODING 10052
SWIDTH 2000 0
DWIDTH 20 0
BBX 17 14 1 0
BITMAP
008080
008080
00C100
004100
1C4100
E24100
422200
822200
822200
822400
821400
821400
821800
020800
ENDCHAR
STARTCHAR 33B6
ENCODING 10053
SWIDTH 2000 0
DWIDTH 20 0
BBX 18 17 1 -3
BITMAP
003040
001040
001040
001040
002840
104880
104880
104880
208480
208500
208500
418500
610300
770200
880000
800000
800000
ENDCHAR
STARTCHAR 33B7
ENCODING 10054
SWIDTH 2000 0
DWIDTH 20 0
BBX 18 14 1 0
BITMAP
004040
004040
004080
002080
F72080
892100
891100
891100
891100
891200
890A00
890A00
890C00
890400
ENDCHAR
STARTCHAR 33B8
ENCODING 10055
SWIDTH 2000 0
DWIDTH 20 0
BBX 17 14 1 0
BITMAP
808080
804080
804080
804100
824100
842100
982100
B02200
F02200
C81200
881400
841400
820C00
820800
ENDCHAR
STARTCHAR 33B9
ENCODING 10056
SWIDTH 2000 0
DWIDTH 20 0
BBX 18 14 1 0
BITMAP
80A040
C19040
C19040
C19080
C29080
A29080
A28880
A28900
948900
948900
948500
948600
888600
888600
ENDCHAR
STARTCHAR 3380
ENCODING 10057
SWIDTH 2000 0
DWIDTH 20 0
BBX 16 17 2 -3
BITMAP
0018
0018
0018
1828
FC24
C224
8224
8142
817E
8142
8242
8281
C481
B881
8000
8000
8000
ENDCHAR
STARTCHAR 3381
ENCODING 10058
SWIDTH 2000 0
DWIDTH 20 0
BBX 16 14 2 0
BITMAP
0018
0018
0018
0024
F824
8424
8424
8442
8442
847E
8442
8441
8481
8481
ENDCHAR
STARTCHAR 3382
ENCODING 10059
SWIDTH 2000 0
DWIDTH 20 0
BBX 18 18 1 -4
BITMAP
000400
000C00
000A00
000A00
084A00
08D200
089100
109100
109F00
112080
212080
212080
232080
3D4040
400000
400000
400000
800000
ENDCHAR
STARTCHAR 3383
ENCODING 10060
SWIDTH 2000 0
DWIDTH 20 0
BBX 18 14 1 0
BITMAP
000400
000600
000A00
000A00
F70900
890900
891100
891100
891F80
891080
891080
892040
892040
892040
ENDCHAR
STARTCHAR 3384
ENCODING 10061
SWIDTH 2000 0
DWIDTH 20 0
BBX 16 15 2 -1
BITMAP
8018
8018
8018
8014
8224
8424
8824
B022
F042
C87E
8842
8441
8281
8281
0081
ENDCHAR
STARTCHAR 33BA
ENCODING 10062
SWIDTH 2000 0
DWIDTH 20 0
BBX 18 18 1 -4
BITMAP
008840
008C40
008C40
008C40
188C80
E65480
825280
815280
815280
815280
815300
833100
C22100
FE2100
980000
800000
800000
800000
ENDCHAR
STARTCHAR 33BB
ENCODING 10063
SWIDTH 2000 0
DWIDTH 20 0
BBX 18 14 1 0
BITMAP
000840
008880
008880
009480
BC9480
C49480
849480
845480
845500
846300
846300
846300
842300
802100
ENDCHAR
STARTCHAR 33BC
ENCODING 10064
SWIDTH 2000 0
DWIDTH 20 0
BBX 20 18 0 -4
BITMAP
000210
002220
002220
002520
002520
08A520
10A520
109520
111540
1118C0
2118C0
2118C0
2308C0
6408C0
580000
400000
400000
800000
ENDCHAR
STARTCHAR 33BD
ENCODING 10065
SWIDTH 2000 0
DWIDTH 20 0
BBX 18 14 1 0
BITMAP
008440
008C40
008C40
008C40
B74C40
D94A80
914A80
915280
915280
913280
913280
913180
913100
913100
ENDCHAR
STARTCHAR 33BE
ENCODING 10066
SWIDTH 2000 0
DWIDTH 20 0
BBX 18 14 1 0
BITMAP
808840
808C40
808C40
808C80
828C80
845480
885480
B05280
F05280
C85280
885300
842300
822100
832100
ENDCHAR
STARTCHAR 33BF
ENCODING 10067
SWIDTH 2000 0
DWIDTH 20 0
BBX 18 14 1 0
BITMAP
828440
828C40
C68C40
C68C40
C64C40
CA4C80
CA5280
AA5280
AA5280
AA5280
AA3280
B23100
B23100
922100
ENDCHAR
STARTCHAR 3390
ENCODING 10068
SWIDTH 2000 0
DWIDTH 20 0
BBX 18 14 1 0
BITMAP
810000
810000
810000
810000
813FC0
810080
FF0180
810100
810200
810400
810800
811000
811000
813FC0
ENDCHAR
STARTCHAR 3391
ENCODING 10069
SWIDTH 2000 0
DWIDTH 20 0
BBX 18 14 1 0
BITMAP
822000
822000
822000
822000
8A27C0
922040
93E080
A22080
A22100
E22200
922200
922400
8A2400
8A2FC0
ENDCHAR
STARTCHAR 3392
ENCODING 10070
SWIDTH 2000 0
DWIDTH 20 0
BBX 18 14 1 0
BITMAP
848800
848800
8C8800
CC8800
CC8BC0
CC8840
D4F880
D48880
D48900
D48900
B48900
B48A00
B48A00
B48BC0
ENDCHAR
STARTCHAR 3393
ENCODING 10071
SWIDTH 2000 0
DWIDTH 20 0
BBX 19 15 1 -1
BITMAP
310800
490800
850800
850800
810FC0
810840
81F880
9D0880
850900
850900
850A00
850A00
850C00
5D0FE0
200000
ENDCHAR
STARTCHAR 3394
ENCODING 10072
SWIDTH 2000 0
DWIDTH 20 0
BBX 19 14 1 0
BITMAP
FA1000
221000
221000
221000
2217C0
221040
23F080
221080
221100
221100
221200
221600
221400
2217E0
ENDCHAR
STARTCHAR 2126
ENCODING 10073
SWIDTH 2000 0
DWIDTH 20 0
BBX 12 14 4 0
BITMAP
1F80
6060
4030
8010
8010
8010
8010
8010
C030
6060
1980
0900
0900
F9F0
ENDCHAR
STARTCHAR 33C0
ENCODING 10074
SWIDTH 2000 0
DWIDTH 20 0
BBX 18 14 1 0
BITMAP
800F00
803180
802080
806040
824040
844040
884040
B04040
F02080
C83080
880B00
840A00
820A00
827BC0
ENDCHAR
STARTCHAR 33C1
ENCODING 10075
SWIDTH 2000 0
DWIDTH 20 0
BBX 18 14 1 0
BITMAP
820F00
823180
C62080
C66040
C64040
CA4040
CA4040
AA4040
AA2080
AA3080
AA0B00
B20A00
B20A00
927BC0
ENDCHAR
STARTCHAR 338A
ENCODING 10076
SWIDTH 2000 0
DWIDTH 20 0
BBX 16 17 2 -3
BITMAP
007F
0040
0040
1840
FE40
C240
837E
8140
8140
8140
8140
8240
C240
BC40
8000
8000
8000
ENDCHAR
STARTCHAR 338B
ENCODING 10077
SWIDTH 2000 0
DWIDTH 20 0
BBX 16 14 2 0
BITMAP
007F
0040
0040
0040
B840
C440
847E
8440
8440
8440
8440
8440
8440
8440
ENDCHAR
STARTCHAR 338C
ENCODING 10078
SWIDTH 2000 0
DWIDTH 20 0
BBX 19 18 1 -4
BITMAP
000FE0
000800
000800
000800
082800
104800
104FC0
104800
208800
208800
208800
418800
610800
670800
980000
800000
800000
800000
ENDCHAR
STARTCHAR 33D6
ENCODING 10079
SWIDTH 2000 0
DWIDTH 20 0
BBX 16 14 2 0
BITMAP
0001
0001
0001
0001
EE39
9225
9245
9245
9245
9245
9245
9245
9225
9239
ENDCHAR
STARTCHAR 33C5
ENCODING 10080
SWIDTH 2000 0
DWIDTH 20 0
BBX 18 14 1 0
BITMAP
000040
000040
000040
000040
1E0F40
2110C0
412040
402040
802040
802040
802040
412040
4110C0
3E0F40
ENDCHAR
STARTCHAR 33AD
ENCODING 10081
SWIDTH 2000 0
DWIDTH 20 0
BBX 18 14 1 0
BITMAP
000040
000040
000040
000040
99C340
A224C0
C22440
C02440
80E440
812440
822440
822440
822440
83D3C0
ENDCHAR
STARTCHAR 33AE
ENCODING 10082
SWIDTH 2000 0
DWIDTH 20 0
BBX 18 18 1 -3
BITMAP
001000
001000
001000
EE7000
829000
869000
8A9000
929000
92B180
0C4600
000800
003000
00C780
010400
060300
0800C0
300440
000380
ENDCHAR
STARTCHAR 33AF
ENCODING 10083
SWIDTH 2000 0
DWIDTH 20 0
BBX 18 18 1 -3
BITMAP
002000
002000
0C2000
F4E000
852000
8D2000
952000
952000
9B6340
008C40
001000
002300
00C480
010400
060300
080080
300480
000300
ENDCHAR
STARTCHAR 33DB
ENCODING 10084
SWIDTH 2000 0
DWIDTH 20 0
BBX 14 10 3 0
BITMAP
7E2C
4230
4120
4020
3820
0620
0120
8120
4320
3E20
ENDCHAR
STARTCHAR 33A9
ENCODING 10085
SWIDTH 2000 0
DWIDTH 20 0
BBX 17 14 1 0
BITMAP
FC0000
830000
808000
808000
809E00
80A100
812100
FE0100
800F00
803100
802100
802100
802300
801C80
ENDCHAR
STARTCHAR 33AA
ENCODING 10086
SWIDTH 2000 0
DWIDTH 20 0
BBX 18 14 1 0
BITMAP
83C000
822000
821000
821000
8A1700
8A1880
922080
A3E180
A20280
E20C80
920880
921880
8A0980
8A0EC0
ENDCHAR
STARTCHAR 33AB
ENCODING 10087
SWIDTH 2000 0
DWIDTH 20 0
BBX 19 14 0 0
BITMAP
82F000
C68800
C68400
C68400
C685C0
CA8620
CA8820
AAF060
AA80A0
AA8120
AA8220
B28220
B28260
9281A0
ENDCHAR
STARTCHAR 33AC
ENCODING 10088
SWIDTH 2000 0
DWIDTH 20 0
BBX 19 15 1 -1
BITMAP
31E000
491000
850800
850800
810B80
810C40
811440
9DE0C0
850140
850240
850440
850440
8504C0
5D0360
200000
ENDCHAR
STARTCHAR 33DD
ENCODING 10089
SWIDTH 2000 0
DWIDTH 20 0
BBX 20 14 0 0
BITMAP
042800
844800
444800
4A4800
4A4BC0
4A4C20
4A4830
4A4810
2A8810
328810
318810
318810
118C20
118BC0
ENDCHAR
STARTCHAR 33D0
ENCODING 10090
SWIDTH 2000 0
DWIDTH 20 0
BBX 12 14 4 0
BITMAP
8000
8000
8000
8000
8F70
8990
8910
8910
8910
8910
8910
8910
8910
8910
ENDCHAR
STARTCHAR 33D3
ENCODING 10091
SWIDTH 2000 0
DWIDTH 20 0
BBX 12 14 4 0
BITMAP
8000
8000
8000
8000
8820
8840
8440
8280
8100
8180
8280
8440
8820
8830
ENDCHAR
STARTCHAR 33C3
ENCODING 10092
SWIDTH 2000 0
DWIDTH 20 0
BBX 16 17 2 -3
BITMAP
FC00
8200
8200
8200
823D
8267
FC43
8281
8181
8181
8181
8181
8343
FE25
0019
0001
0001
ENDCHAR
STARTCHAR 33C9
ENCODING 10093
SWIDTH 2000 0
DWIDTH 20 0
BBX 17 18 1 -4
BITMAP
3C0000
420000
420000
810000
802080
801080
801080
871100
810900
810900
810A00
810600
410600
430400
3C0400
000400
000800
003000
ENDCHAR
STARTCHAR 33DC
ENCODING 10094
SWIDTH 2000 0
DWIDTH 20 0
BBX 18 15 1 -1
BITMAP
1E0000
610000
408000
808000
802040
402080
302080
0E1080
011100
009100
808900
808A00
408A00
410600
3E0000
ENDCHAR
STARTCHAR 33C6
ENCODING 10095
SWIDTH 2000 0
DWIDTH 20 0
BBX 19 20 0 -4
BITMAP
200000
500000
808000
808000
810000
810000
820000
820000
948000
648000
048080
089360
08A240
10E240
10A180
209200
208BE0
200420
400220
4001C0
ENDCHAR
STARTCHAR 00C6
ENCODING 10273
SWIDTH 2000 0
DWIDTH 20 0
BBX 18 14 1 0
BITMAP
00FFC0
014000
014000
024000
064000
044000
087F80
084000
1FC000
304000
204000
604000
404000
807FC0
ENDCHAR
STARTCHAR 00D0
ENCODING 10274
SWIDTH 2000 0
DWIDTH 20 0
BBX 14 14 3 0
BITMAP
1FE0
1018
1008
1004
1004
1004
FE04
1004
1004
1004
1008
1018
10F0
1FC0
ENDCHAR
STARTCHAR 00AA
ENCODING 10275
SWIDTH 2000 0
DWIDTH 20 0
BBX 10 13 5 0
BITMAP
1E00
6300
4100
0100
0700
3900
4100
C100
C300
6FC0
3800
0000
7FC0
ENDCHAR
STARTCHAR 0126
ENCODING 10276
SWIDTH 2000 0
DWIDTH 20 0
BBX 14 14 3 0
BITMAP
2010
2010
FFFC
2010
2010
2010
3FF0
2010
2010
2010
2010
2010
2010
2010
ENDCHAR
STARTCHAR 0132
ENCODING 10278
SWIDTH 2000 0
DWIDTH 20 0
BBX 10 14 5 0
BITMAP
8040
8040
8040
8040
8040
8040
8040
8040
8040
9040
9040
9040
9880
8F00
ENDCHAR
STARTCHAR 013F
ENCODING 10280
SWIDTH 2000 0
DWIDTH 20 0
BBX 9 14 6 0
BITMAP
8000
8000
8000
8000
8000
8000
8C00
8C00
8000
8000
8000
8000
8000
FF80
ENDCHAR
STARTCHAR 0141
ENCODING 10281
SWIDTH 2000 0
DWIDTH 20 0
BBX 12 14 4 0
BITMAP
1000
1000
1200
1600
1400
1800
1000
3000
3000
5000
9000
1000
1000
1FF0
ENDCHAR
STARTCHAR 00D8
ENCODING 10282
SWIDTH 2000 0
DWIDTH 20 0
BBX 14 16 3 -1
BITMAP
0384
1FEC
3038
2018
6028
4048
4088
410C
420C
4408
4C08
7808
3010
7030
CEC0
8100
ENDCHAR
STARTCHAR 0152
ENCODING 10283
SWIDTH 2000 0
DWIDTH 20 0
BBX 19 15 0 0
BITMAP
020000
1FFFE0
302000
602000
402000
402000
C02000
C03FC0
C02000
402000
402000
402000
202000
102000
0FFFE0
ENDCHAR
STARTCHAR 00BA
ENCODING 10284
SWIDTH 2000 0
DWIDTH 20 0
BBX 10 12 5 0
BITMAP
3E00
6300
4100
8080
8080
8080
8080
4100
6300
3E00
0000
FFC0
ENDCHAR
STARTCHAR 00DE
ENCODING 10285
SWIDTH 2000 0
DWIDTH 20 0
BBX 10 14 5 0
BITMAP
8000
8000
8000
FF00
8180
8040
8040
8040
8040
8080
FF00
8000
8000
8000
ENDCHAR
STARTCHAR 0166
ENCODING 10286
SWIDTH 2000 0
DWIDTH 20 0
BBX 11 14 4 0
BITMAP
FFE0
0400
0400
0400
0400
0400
0400
3F80
0400
0400
0400
0400
0400
0400
ENDCHAR
STARTCHAR 014A
ENCODING 10287
SWIDTH 2000 0
DWIDTH 20 0
BBX 9 14 5 0
BITMAP
9E00
E180
8080
8080
8080
8080
8080
8080
8080
8080
8080
8080
8080
8700
ENDCHAR
STARTCHAR 3260
ENCODING 10289
SWIDTH 2000 0
DWIDTH 20 0
BBX 19 18 0 -3
BITMAP
01F800
060600
180180
200080
200040
4FFE40
400220
800220
800220
800220
800220
400220
400240
400040
200080
100080
0C0300
039C00
ENDCHAR
STARTCHAR 3261
ENCODING 10290
SWIDTH 2000 0
DWIDTH 20 0
BBX 19 18 0 -3
BITMAP
01F800
060600
180180
200080
200040
440040
440020
840020
840020
840020
840020
440020
47FF40
400040
200080
100080
0C0300
039C00
ENDCHAR
STARTCHAR 3262
ENCODING 10291
SWIDTH 2000 0
DWIDTH 20 0
BBX 19 18 0 -3
BITMAP
01F800
060600
180180
200080
200040
47FE40
440020
840020
840020
840020
840020
440020
47FF40
400040
200080
100080
0C0300
039C00
ENDCHAR
STARTCHAR 3263
ENCODING 10292
SWIDTH 2000 0
DWIDTH 20 0
BBX 19 18 0 -3
BITMAP
01F800
060600
180180
200080
200040
47FE40
400220
800220
87FE20
840020
840020
440020
47FF40
400040
200080
100080
0C0300
039C00
ENDCHAR
STARTCHAR 3264
ENCODING 10293
SWIDTH 2000 0
DWIDTH 20 0
BBX 19 18 0 -3
BITMAP
01F800
060600
180180
200080
200040
47FE40
440220
840220
840220
840220
840220
440220
47FE40
440240
200080
100080
0C0300
039C00
ENDCHAR
STARTCHAR 3265
ENCODING 10294
SWIDTH 2000 0
DWIDTH 20 0
BBX 19 18 0 -3
BITMAP
01F800
060600
180180
200080
200040
440240
440220
840220
87FE20
840220
840220
440220
47FE40
440240
200080
100080
0C0300
039C00
ENDCHAR
STARTCHAR 3266
ENCODING 10295
SWIDTH 2000 0
DWIDTH 20 0
BBX 19 18 0 -3
BITMAP
01F800
060600
180180
200080
204040
404040
406020
80A020
809020
810820
820420
440220
480140
400040
200080
100080
0C0300
039C00
ENDCHAR
STARTCHAR 3267
ENCODING 10296
SWIDTH 2000 0
DWIDTH 20 0
BBX 19 18 0 -3
BITMAP
01F800
060600
180180
200080
200040
41F840
420420
840220
840220
840220
840220
420420
41F840
400040
200080
100080
0C0300
039C00
ENDCHAR
STARTCHAR 3268
ENCODING 10297
SWIDTH 2000 0
DWIDTH 20 0
BBX 19 18 0 -3
BITMAP
01F800
060600
180180
200080
200040
47FE40
404020
806020
806020
809020
810820
420420
4C0340
400040
200080
100080
0C0300
039C00
ENDCHAR
STARTCHAR 3269
ENCODING 10298
SWIDTH 2000 0
DWIDTH 20 0
BBX 19 18 0 -3
BITMAP
01F800
060600
180180
200080
21F840
400040
47FE20
804020
806020
809020
810820
420620
4C0140
400040
200080
100080
0C0300
039C00
ENDCHAR
STARTCHAR 326A
ENCODING 10299
SWIDTH 2000 0
DWIDTH 20 0
BBX 19 18 0 -3
BITMAP
01F800
060600
180180
200080
200040
4FFE40
400220
800220
800220
8FF220
800220
400220
400440
400040
200080
100080
0C0300
039C00
ENDCHAR
STARTCHAR 326B
ENCODING 10300
SWIDTH 2000 0
DWIDTH 20 0
BBX 19 18 0 -3
BITMAP
01F800
060600
180180
200080
400040
47FE40
440020
840020
87FE20
840020
840020
440020
47FF40
200040
200080
100080
0C0300
03FC00
ENDCHAR
STARTCHAR 326C
ENCODING 10301
SWIDTH 2000 0
DWIDTH 20 0
BBX 19 18 0 -3
BITMAP
01F800
060600
180180
200080
200040
4FFE40
400020
820020
820820
810820
810820
410820
4FFF40
400040
200080
100080
0C0300
039C00
ENDCHAR
STARTCHAR 326D
ENCODING 10302
SWIDTH 2000 0
DWIDTH 20 0
BBX 19 18 0 -3
BITMAP
01F800
060600
180180
200080
21F840
400040
4FFF20
800020
80F020
830C20
820420
420420
430840
40F040
200080
100080
0C0300
039C00
ENDCHAR
STARTCHAR 326E
ENCODING 10303
SWIDTH 2000 0
DWIDTH 20 0
BBX 19 18 0 -3
BITMAP
01F800
060600
180180
200280
200240
4FC240
404220
804220
808220
8083A0
810220
420220
4C0240
400240
200280
100080
0C0300
039C00
ENDCHAR
STARTCHAR 326F
ENCODING 10304
SWIDTH 2000 0
DWIDTH 20 0
BBX 19 18 0 -3
BITMAP
01F800
060600
180180
200280
200240
440240
440220
840220
840220
8403A0
840220
47F220
400240
400240
200280
100280
0C0300
039C00
ENDCHAR
STARTCHAR 3270
ENCODING 10305
SWIDTH 2000 0
DWIDTH 20 0
BBX 19 18 0 -3
BITMAP
01F800
060600
180580
200480
200440
4FE440
480420
880420
880720
880420
880420
4FF420
400440
400440
200480
100080
0C0300
039C00
ENDCHAR
STARTCHAR 3271
ENCODING 10306
SWIDTH 2000 0
DWIDTH 20 0
BBX 19 18 0 -3
BITMAP
01F800
060600
180180
200280
200240
4FC240
404220
804220
8FC220
8803A0
880220
480220
4FF240
400240
200280
100080
0C0300
039C00
ENDCHAR
STARTCHAR 3272
ENCODING 10307
SWIDTH 2000 0
DWIDTH 20 0
BBX 19 18 0 -3
BITMAP
01F800
060600
180180
200480
200440
4FE440
482420
882420
882420
882720
882420
4FE420
400440
400440
200480
100480
0C0300
039C00
ENDCHAR
STARTCHAR 3273
ENCODING 10308
SWIDTH 2000 0
DWIDTH 20 0
BBX 19 18 0 -3
BITMAP
01F800
060600
180180
200280
284240
484240
484220
8FC220
884220
8843A0
884220
484220
4FC240
400240
200280
100280
0C0300
039C00
ENDCHAR
STARTCHAR 3274
ENCODING 10309
SWIDTH 2000 0
DWIDTH 20 0
BBX 19 18 0 -3
BITMAP
01F800
060600
180180
200280
210240
410240
410220
810220
828220
8483A0
844220
482220
500240
400240
200280
100280
0C0300
039C00
ENDCHAR
STARTCHAR 3275
ENCODING 10310
SWIDTH 2000 0
DWIDTH 20 0
BBX 18 18 1 -3
BITMAP
03F800
0C0400
300B00
400900
470880
888840
904840
104840
104E40
104840
104840
888840
870840
800880
400900
200100
180600
073800
ENDCHAR
STARTCHAR 3276
ENCODING 10311
SWIDTH 2000 0
DWIDTH 20 0
BBX 19 18 0 -3
BITMAP
01F800
060600
180180
200480
200440
4FF440
410420
818420
818420
818720
824420
462420
4C3440
480440
200480
100480
0C0300
039C00
ENDCHAR
STARTCHAR 3277
ENCODING 10312
SWIDTH 2000 0
DWIDTH 20 0
BBX 19 18 0 -3
BITMAP
01F800
060600
180180
200480
23C440
400440
4FE420
810420
818420
818720
824420
444420
4C3440
400440
200480
100480
0C0300
039C00
ENDCHAR
STARTCHAR 3278
ENCODING 10313
SWIDTH 2000 0
DWIDTH 20 0
BBX 19 18 0 -3
BITMAP
01F800
060600
180180
200480
200440
4FE440
402420
802420
8FC420
804720
808420
410420
420440
4C0440
200480
100480
0C0300
039C00
ENDCHAR
STARTCHAR 3279
ENCODING 10314
SWIDTH 2000 0
DWIDTH 20 0
BBX 19 18 0 -3
BITMAP
01F800
060600
180580
200480
200440
47E440
440420
840420
87E720
840420
840420
440420
47F440
400440
200480
100080
0C0300
039C00
ENDCHAR
STARTCHAR 327A
ENCODING 10315
SWIDTH 2000 0
DWIDTH 20 0
BBX 19 18 0 -3
BITMAP
01F800
060600
180180
200480
200440
4FE440
444420
844420
844420
848720
848420
5FF420
400440
400440
200480
100480
0C0300
039C00
ENDCHAR
STARTCHAR 327B
ENCODING 10316
SWIDTH 2000 0
DWIDTH 20 0
BBX 19 18 0 -3
BITMAP
01F800
060600
180180
200480
238440
400440
5FE420
800420
87C420
882720
882420
482420
47C440
400440
200480
100080
0C0300
039C00
ENDCHAR
STARTCHAR 24D0
ENCODING 10317
SWIDTH 2000 0
DWIDTH 20 0
BBX 19 18 0 -3
BITMAP
01F800
060600
180180
200080
20F040
410840
420820
800820
80F820
818820
820820
420820
413C40
40C040
200080
100080
0C0300
039C00
ENDCHAR
STARTCHAR 24D1
ENCODING 10318
SWIDTH 2000 0
DWIDTH 20 0
BBX 19 18 0 -3
BITMAP
01F800
060600
180180
210080
210040
410040
417820
818420
810220
810220
810220
410220
410240
418440
217880
100080
0C0300
039C00
ENDCHAR
STARTCHAR 24D2
ENCODING 10319
SWIDTH 2000 0
DWIDTH 20 0
BBX 19 18 0 -3
BITMAP
01F800
060600
180180
200080
206040
419840
410C20
820020
820020
820020
820420
410820
409840
406040
200080
100080
0C0300
039C00
ENDCHAR
STARTCHAR 24D3
ENCODING 10320
SWIDTH 2000 0
DWIDTH 20 0
BBX 19 18 0 -3
BITMAP
01F800
060600
180180
200880
200840
400840
41E820
821820
840820
840820
840820
440820
460840
421840
21E880
100080
0C0300
039C00
ENDCHAR
STARTCHAR 24D4
ENCODING 10321
SWIDTH 2000 0
DWIDTH 20 0
BBX 19 18 0 -3
BITMAP
01F800
060600
180180
200080
200040
40F040
410820
820420
83FC20
820020
820020
410820
40F840
400040
200080
100080
0C0300
039C00
ENDCHAR
STARTCHAR 24D5
ENCODING 10322
SWIDTH 2000 0
DWIDTH 20 0
BBX 19 18 0 -3
BITMAP
01F800
060600
183180
204080
204040
404040
40F020
804020
804020
804020
804020
404020
404040
404040
204080
100080
0C0300
039C00
ENDCHAR
STARTCHAR 24D6
ENCODING 10323
SWIDTH 2000 0
DWIDTH 20 0
BBX 19 18 0 -3
BITMAP
00F000
070E00
180100
20F480
210C40
430440
420420
820420
820420
820420
810C20
40F420
400440
410840
21F080
100080
0C0300
039C00
ENDCHAR
STARTCHAR 24D7
ENCODING 10324
SWIDTH 2000 0
DWIDTH 20 0
BBX 19 18 0 -3
BITMAP
01F800
060600
180180
210080
210040
410040
417820
818420
810420
810420
810420
410420
410440
410440
210480
100080
0C0300
039C00
ENDCHAR
STARTCHAR 24D8
ENCODING 10325
SWIDTH 2000 0
DWIDTH 20 0
BBX 19 18 0 -3
BITMAP
01F800
060600
180180
204080
200040
400040
404020
804020
804020
804020
804020
404020
404040
404040
204080
100080
0C0300
039C00
ENDCHAR
STARTCHAR 24D9
ENCODING 10326
SWIDTH 2000 0
DWIDTH 20 0
BBX 19 18 0 -3
BITMAP
01F800
062600
182180
200080
200040
402040
402020
802020
802020
802020
802020
402020
402040
402040
202080
106080
0CC300
039C00
ENDCHAR
STARTCHAR 24DA
ENCODING 10327
SWIDTH 2000 0
DWIDTH 20 0
BBX 19 18 0 -3
BITMAP
01F800
060600
188180
208080
208040
408040
408420
808820
809020
80F020
80D020
408820
408440
408440
208280
100080
0C0300
039C00
ENDCHAR
STARTCHAR 24DB
ENCODING 10328
SWIDTH 2000 0
DWIDTH 20 0
BBX 19 18 0 -3
BITMAP
01F800
060600
180180
204080
204040
404040
404020
804020
804020
804020
804020
404020
404040
404040
204080
100080
0C0300
039C00
ENDCHAR
STARTCHAR 24DC
ENCODING 10329
SWIDTH 2000 0
DWIDTH 20 0
BBX 19 18 0 -3
BITMAP
01F800
060600
180180
200080
218C40
4A5340
4C2120
882120
882120
882120
882120
482120
482140
400040
200080
100080
0C0300
039C00
ENDCHAR
STARTCHAR 24DD
ENCODING 10330
SWIDTH 2000 0
DWIDTH 20 0
BBX 19 18 0 -3
BITMAP
01F800
060600
180180
200080
202040
41D840
410820
810820
810820
810820
810820
410820
410840
400040
200080
100080
0C0300
039C00
ENDCHAR
STARTCHAR 24DE
ENCODING 10331
SWIDTH 2000 0
DWIDTH 20 0
BBX 19 18 0 -3
BITMAP
01F800
060600
180180
200080
20F040
410840
420420
820420
820420
820420
820420
420420
410840
40F040
200080
100080
0C0300
039C00
ENDCHAR
STARTCHAR 24DF
ENCODING 10332
SWIDTH 2000 0
DWIDTH 20 0
BBX 19 18 0 -3
BITMAP
01F800
060600
180180
213880
21C440
410640
410220
810220
810220
810220
818420
417C20
410040
410040
210080
100080
0C0300
039C00
ENDCHAR
STARTCHAR 24E0
ENCODING 10333
SWIDTH 2000 0
DWIDTH 20 0
BBX 19 18 0 -3
BITMAP
00F000
070E00
180100
21E880
221840
440840
440820
840820
840820
840820
821820
41E820
400840
400840
200880
100080
0C0300
039C00
ENDCHAR
STARTCHAR 24E1
ENCODING 10334
SWIDTH 2000 0
DWIDTH 20 0
BBX 19 18 0 -3
BITMAP
01F800
060600
180180
200080
200040
405840
406020
804020
804020
804020
804020
404020
404040
404040
200080
100080
0C0300
039C00
ENDCHAR
STARTCHAR 24E2
ENCODING 10335
SWIDTH 2000 0
DWIDTH 20 0
BBX 19 18 0 -3
BITMAP
01F800
060600
180180
200080
207040
408840
408420
808020
807020
800C20
810420
408420
407840
400040
200080
100080
0C0300
039C00
ENDCHAR
STARTCHAR 24E3
ENCODING 10336
SWIDTH 2000 0
DWIDTH 20 0
BBX 19 18 0 -3
BITMAP
01F800
060600
180180
204080
204040
404040
40F020
804020
804020
804020
804020
404020
404040
404040
203080
100080
0C0300
039C00
ENDCHAR
STARTCHAR 24E4
ENCODING 10337
SWIDTH 2000 0
DWIDTH 20 0
BBX 19 18 0 -3
BITMAP
01F800
060600
180180
200080
200040
410440
410420
810420
810420
810420
810420
410420
418C40
40F440
200080
100080
0C0300
039C00
ENDCHAR
STARTCHAR 24E5
ENCODING 10338
SWIDTH 2000 0
DWIDTH 20 0
BBX 19 18 0 -3
BITMAP
01F800
060600
180180
200080
200040
420440
410820
810820
810820
809020
809020
40A020
406040
406040
200080
100080
0C0300
039C00
ENDCHAR
STARTCHAR 24E6
ENCODING 10339
SWIDTH 2000 0
DWIDTH 20 0
BBX 19 18 0 -3
BITMAP
01F800
060600
180180
200080
200040
482140
446120
846220
845220
829220
829420
428C20
430C40
410C40
200080
100080
0C0300
039C00
ENDCHAR
STARTCHAR 24E7
ENCODING 10340
SWIDTH 2000 0
DWIDTH 20 0
BBX 19 18 0 -3
BITMAP
01F800
060600
180180
200080
200040
410840
409020
805020
806020
806020
809020
408820
410840
400040
200080
100080
0C0300
039C00
ENDCHAR
STARTCHAR 24E8
ENCODING 10341
SWIDTH 2000 0
DWIDTH 20 0
BBX 19 18 0 -3
BITMAP
01F800
060600
180180
200080
210440
410840
408820
808820
805020
805020
806020
402020
402040
404040
21C080
100080
0C0300
039C00
ENDCHAR
STARTCHAR 24E9
ENCODING 10342
SWIDTH 2000 0
DWIDTH 20 0
BBX 19 18 0 -3
BITMAP
01F800
060600
180180
200080
200040
41F840
400820
801020
802020
804020
808020
410020
43FC40
400040
200080
100080
0C0300
039C00
ENDCHAR
STARTCHAR 2460
ENCODING 10343
SWIDTH 2000 0
DWIDTH 20 0
BBX 19 18 0 -3
BITMAP
01F800
060600
180180
202080
206040
41E040
402020
802020
802020
802020
802020
402020
402040
402040
202080
100080
0C0300
039C00
ENDCHAR
STARTCHAR 2461
ENCODING 10344
SWIDTH 2000 0
DWIDTH 20 0
BBX 19 18 0 -3
BITMAP
00F000
070E00
186100
20D880
210C40
410440
430420
800C20
800820
803020
80C020
418020
410040
420040
23FC80
100080
0C0300
039C00
ENDCHAR
STARTCHAR 2462
ENCODING 10345
SWIDTH 2000 0
DWIDTH 20 0
BBX 19 18 0 -3
BITMAP
00F000
070E00
180100
21F880
210840
420840
400820
800820
807020
800820
800420
400420
420440
430840
21F880
100080
0C0300
039C00
ENDCHAR
STARTCHAR 2463
ENCODING 10346
SWIDTH 2000 0
DWIDTH 20 0
BBX 19 18 0 -3
BITMAP
01F800
060600
180180
201080
203040
405040
405020
809020
811020
811020
821020
43FC20
401040
401040
201080
100080
0C0300
039C00
ENDCHAR
STARTCHAR 2464
ENCODING 10347
SWIDTH 2000 0
DWIDTH 20 0
BBX 19 18 0 -3
BITMAP
01F800
060600
180180
21F880
210040
410040
410020
816020
819820
800C20
800420
400420
420440
410840
21F080
100080
0C0300
039C00
ENDCHAR
STARTCHAR 2465
ENCODING 10348
SWIDTH 2000 0
DWIDTH 20 0
BBX 19 18 0 -3
BITMAP
00F000
070E00
180100
20F880
210840
410440
420020
826020
829820
830420
830420
430420
410440
410840
20F880
100080
0C0300
039C00
ENDCHAR
STARTCHAR 2466
ENCODING 10349
SWIDTH 2000 0
DWIDTH 20 0
BBX 19 18 0 -3
BITMAP
01F800
060600
180180
200080
21FC40
400840
400820
801020
802020
802020
802020
404020
404040
404040
208080
108080
0C0300
039C00
ENDCHAR
STARTCHAR 2467
ENCODING 10350
SWIDTH 2000 0
DWIDTH 20 0
BBX 19 18 0 -3
BITMAP
00F000
070E00
180100
21F080
230840
420840
420820
811820
80E020
831820
820420
420420
420440
430840
21F080
100080
0C0300
039C00
ENDCHAR
STARTCHAR 2468
ENCODING 10351
SWIDTH 2000 0
DWIDTH 20 0
BBX 19 18 0 -3
BITMAP
01F800
060600
180180
21F880
210840
420440
420420
830420
810C20
81FC20
806420
400420
410440
410840
20F080
100080
0C0300
039C00
ENDCHAR
STARTCHAR 2469
ENCODING 10352
SWIDTH 2000 0
DWIDTH 20 0
BBX 19 18 0 -3
BITMAP
01F800
060600
180100
200080
221E40
422240
4E2120
822120
822120
822120
822120
422120
422240
421E40
200080
100100
0C0200
039C00
ENDCHAR
STARTCHAR 246A
ENCODING 10353
SWIDTH 2000 0
DWIDTH 20 0
BBX 19 18 0 -3
BITMAP
01F800
060600
180180
200080
220440
420440
4E1C20
820420
820420
820420
820420
420420
420440
420440
200080
100080
0C0300
039C00
ENDCHAR
STARTCHAR 246B
ENCODING 10354
SWIDTH 2000 0
DWIDTH 20 0
BBX 19 18 0 -3
BITMAP
01F800
060600
180180
200080
221E40
422140
4E2120
820120
820220
820420
821820
422020
422040
423F40
200080
100080
0C0300
039C00
ENDCHAR
STARTCHAR 246C
ENCODING 10355
SWIDTH 2000 0
DWIDTH 20 0
BBX 19 18 0 -3
BITMAP
01F800
060600
180100
200880
223640
422240
4E0220
820220
820E20
820120
820120
420120
422240
421C40
200080
100100
0C0200
039C00
ENDCHAR
STARTCHAR 246D
ENCODING 10356
SWIDTH 2000 0
DWIDTH 20 0
BBX 19 18 0 -3
BITMAP
01F800
060600
180180
200280
220640
420A40
4E0A20
821220
821220
822220
823F20
420220
420240
420240
200080
100080
0C0300
039C00
ENDCHAR
STARTCHAR 246E
ENCODING 10357
SWIDTH 2000 0
DWIDTH 20 0
BBX 19 18 0 -3
BITMAP
01F800
060600
180100
200080
221E40
421040
4E2020
822020
823E20
820120
820120
420120
422140
421E40
200080
100100
0C0200
039C00
ENDCHAR
STARTCHAR 00BD
ENCODING 10358
SWIDTH 2000 0
DWIDTH 20 0
BBX 14 14 3 -1
BITMAP
2040
E040
2080
2080
2100
2130
224C
2204
0404
0808
0830
1040
1080
20FC
ENDCHAR
STARTCHAR 2153
ENCODING 10359
SWIDTH 2000 0
DWIDTH 20 0
BBX 13 14 4 -1
BITMAP
4080
C080
4100
4100
4200
4200
44F0
4808
0808
1070
1018
2108
2108
40F0
ENDCHAR
STARTCHAR 2154
ENCODING 10360
SWIDTH 2000 0
DWIDTH 20 0
BBX 16 14 2 -1
BITMAP
3008
4C10
0410
0420
0840
3040
409E
80A1
FD01
010E
0203
0421
0421
081E
ENDCHAR
STARTCHAR 00BC
ENCODING 10361
SWIDTH 2000 0
DWIDTH 20 0
BBX 11 14 5 -1
BITMAP
4080
C080
4100
4100
4200
4400
4440
48C0
0940
1240
1240
27E0
4040
4040
ENDCHAR
STARTCHAR 00BE
ENCODING 10362
SWIDTH 2000 0
DWIDTH 20 0
BBX 14 14 3 -1
BITMAP
3010
C820
8820
0840
3040
0880
8498
8918
7928
0248
0448
04FC
0808
0808
ENDCHAR
STARTCHAR 215B
ENCODING 10363
SWIDTH 2000 0
DWIDTH 20 0
BBX 13 14 4 -1
BITMAP
4080
C080
4100
4100
4200
4270
4598
4918
0910
10F0
1108
2108
2108
40F0
ENDCHAR
STARTCHAR 215C
ENCODING 10364
SWIDTH 2000 0
DWIDTH 20 0
BBX 16 14 2 -1
BITMAP
3810
4410
8420
0820
3840
049E
84A2
4D23
3122
021E
0221
0421
0421
081E
ENDCHAR
STARTCHAR 215D
ENCODING 10365
SWIDTH 2000 0
DWIDTH 20 0
BBX 16 14 2 -1
BITMAP
7810
8020
8020
F840
8C40
049E
84A2
C923
3122
021E
0421
0421
0821
081E
ENDCHAR
STARTCHAR 215E
ENCODING 10366
SWIDTH 2000 0
DWIDTH 20 0
BBX 14 14 3 -1
BITMAP
F840
0840
1080
1100
2100
2230
4248
4444
0448
0878
0884
1084
2084
2078
ENDCHAR
STARTCHAR 00E6
ENCODING 10529
SWIDTH 2000 0
DWIDTH 20 0
BBX 16 10 2 0
BITMAP
3E38
63C6
4182
0103
3FFF
6100
C100
8182
42C6
7C38
ENDCHAR
STARTCHAR 0111
ENCODING 10530
SWIDTH 2000 0
DWIDTH 20 0
BBX 11 14 5 0
BITMAP
0080
0FE0
0080
1C80
7E80
6180
C180
8080
8080
8080
8080
4180
4180
3E80
ENDCHAR
STARTCHAR 00F0
ENCODING 10531
SWIDTH 2000 0
DWIDTH 20 0
BBX 8 15 6 -1
BITMAP
44
3C
38
6C
04
02
7E
83
81
81
81
81
C2
7E
18
ENDCHAR
STARTCHAR 0127
ENCODING 10532
SWIDTH 2000 0
DWIDTH 20 0
BBX 10 14 5 0
BITMAP
2000
FE00
2000
2300
2C80
3040
2040
2040
2040
2040
2040
2040
2040
2040
ENDCHAR
STARTCHAR 0131
ENCODING 10533
SWIDTH 2000 0
DWIDTH 20 0
BBX 1 10 9 0
BITMAP
80
80
80
80
80
80
80
80
80
80
ENDCHAR
STARTCHAR 0133
ENCODING 10534
SWIDTH 2000 0
DWIDTH 20 0
BBX 6 18 7 -4
BITMAP
84
84
00
00
84
84
84
84
84
84
84
84
84
84
04
04
04
1C
ENDCHAR
STARTCHAR 0138
ENCODING 10535
SWIDTH 2000 0
DWIDTH 20 0
BBX 7 10 6 0
BITMAP
86
8C
98
B0
F0
C8
88
84
82
82
ENDCHAR
STARTCHAR 0140
ENCODING 10536
SWIDTH 2000 0
DWIDTH 20 0
BBX 6 14 7 0
BITMAP
80
80
80
80
80
80
8C
8C
80
80
80
80
80
80
ENDCHAR
STARTCHAR 0142
ENCODING 10537
SWIDTH 2000 0
DWIDTH 20 0
BBX 7 14 7 0
BITMAP
10
10
12
12
14
18
10
30
30
50
90
90
10
10
ENDCHAR
STARTCHAR 00F8
ENCODING 10538
SWIDTH 2000 0
DWIDTH 20 0
BBX 10 11 5 0
BITMAP
0C40
3F80
2180
43C0
4640
4C40
5840
7040
6080
A100
1E00
ENDCHAR
STARTCHAR 0153
ENCODING 10539
SWIDTH 2000 0
DWIDTH 20 0
BBX 17 10 2 0
BITMAP
3E3E00
634300
C18100
808180
80FF80
808000
808000
81C100
416300
3E3C00
ENDCHAR
STARTCHAR 00DF
ENCODING 10540
SWIDTH 2000 0
DWIDTH 20 0
BBX 8 14 6 0
BITMAP
7C
86
82
82
82
84
9C
82
81
81
81
81
83
9E
ENDCHAR
STARTCHAR 00FE
ENCODING 10541
SWIDTH 2000 0
DWIDTH 20 0
BBX 9 16 6 -2
BITMAP
8000
8000
8000
8000
9E00
E300
C180
8080
8080
8080
8080
C080
C100
BE00
8000
8000
ENDCHAR
STARTCHAR 0167
ENCODING 10542
SWIDTH 2000 0
DWIDTH 20 0
BBX 4 14 8 -1
BITMAP
40
40
40
F0
40
40
F0
40
40
40
40
40
40
30
ENDCHAR
STARTCHAR 014B
ENCODING 10543
SWIDTH 2000 0
DWIDTH 20 0
BBX 8 14 6 -4
BITMAP
9E
A3
C1
81
81
81
81
81
81
81
01
01
03
0E
ENDCHAR
STARTCHAR 0149
ENCODING 10544
SWIDTH 2000 0
DWIDTH 20 0
BBX 11 12 5 0
BITMAP
6000
C000
97C0
1860
1020
1020
1020
1020
1020
1020
1020
1020
ENDCHAR
STARTCHAR 3200
ENCODING 10545
SWIDTH 2000 0
DWIDTH 20 0
BBX 18 16 1 -2
BITMAP
000200
200100
400100
400080
5FFC80
800440
800440
800440
800440
800440
800440
800480
400480
400100
200200
100000
ENDCHAR
STARTCHAR 3201
ENCODING 10546
SWIDTH 2000 0
DWIDTH 20 0
BBX 18 16 1 -2
BITMAP
000200
200100
400100
400080
480080
880040
880040
880040
880040
880040
880040
8FFE80
400080
400100
200200
100000
ENDCHAR
STARTCHAR 3202
ENCODING 10547
SWIDTH 2000 0
DWIDTH 20 0
BBX 18 16 1 -2
BITMAP
000200
200100
400100
400080
4FFE80
880040
880040
880040
880040
880040
880040
8FFE80
400080
400100
200200
100000
ENDCHAR
STARTCHAR 3203
ENCODING 10548
SWIDTH 2000 0
DWIDTH 20 0
BBX 18 16 1 -2
BITMAP
000200
200100
400100
400080
4FFC80
800440
800440
8FFC40
880040
880040
880040
8FFE80
400080
400100
200200
100000
ENDCHAR
STARTCHAR 3204
ENCODING 10549
SWIDTH 2000 0
DWIDTH 20 0
BBX 18 16 1 -2
BITMAP
000200
200100
400100
400080
4FFC80
880440
880440
880440
880440
880440
880440
8FFC80
480480
400100
200200
100000
ENDCHAR
STARTCHAR 3205
ENCODING 10550
SWIDTH 2000 0
DWIDTH 20 0
BBX 18 16 1 -2
BITMAP
000200
200100
400100
480480
480480
880440
8FFC40
880440
880440
880440
880440
8FFC80
480480
400100
200200
100000
ENDCHAR
STARTCHAR 3206
ENCODING 10551
SWIDTH 2000 0
DWIDTH 20 0
BBX 18 16 1 -2
BITMAP
000200
200100
400100
404080
408080
808040
80C040
80C040
812040
821040
840840
980680
400080
400100
200200
100000
ENDCHAR
STARTCHAR 3207
ENCODING 10552
SWIDTH 2000 0
DWIDTH 20 0
BBX 18 16 1 -2
BITMAP
100200
200100
400100
400080
83F080
840840
880440
880440
880440
880440
840840
83F080
400080
400100
200200
100000
ENDCHAR
STARTCHAR 3208
ENCODING 10553
SWIDTH 2000 0
DWIDTH 20 0
BBX 18 16 1 -2
BITMAP
000200
200200
400100
400080
5FFC80
808040
80C040
80C040
812040
821040
860840
980680
400080
400100
200200
100000
ENDCHAR
STARTCHAR 3209
ENCODING 10554
SWIDTH 2000 0
DWIDTH 20 0
BBX 18 16 1 -2
BITMAP
000200
200100
400100
43F080
400080
800040
8FFC40
808040
80C040
814040
832040
841880
580680
400100
200200
100000
ENDCHAR
STARTCHAR 320A
ENCODING 10555
SWIDTH 2000 0
DWIDTH 20 0
BBX 18 16 1 -2
BITMAP
000200
200100
400100
400080
5FFC80
800440
800440
807440
9F8440
800440
800440
800880
400880
400100
200200
100000
ENDCHAR
STARTCHAR 320B
ENCODING 10556
SWIDTH 2000 0
DWIDTH 20 0
BBX 18 15 1 -1
BITMAP
000200
200100
400100
400080
8FFC80
880040
880040
8FFC40
880040
880040
880040
8FFE80
400080
400100
200200
ENDCHAR
STARTCHAR 320C
ENCODING 10557
SWIDTH 2000 0
DWIDTH 20 0
BBX 18 16 1 -2
BITMAP
000200
200100
400100
400080
5FFC80
800040
800840
841040
821040
821040
821040
9FFE80
400080
400100
200200
100000
ENDCHAR
STARTCHAR 320D
ENCODING 10558
SWIDTH 2000 0
DWIDTH 20 0
BBX 18 16 1 -2
BITMAP
000200
200100
400100
43F080
400080
9FFE40
800040
800040
83F040
861840
840840
840880
461880
43F100
200200
100000
ENDCHAR
STARTCHAR 320E
ENCODING 10559
SWIDTH 2000 0
DWIDTH 20 0
BBX 18 16 1 -2
BITMAP
000200
200900
400900
400880
5F8880
808840
808840
810840
810E40
820840
840840
880880
500880
400900
200A00
100000
ENDCHAR
STARTCHAR 320F
ENCODING 10560
SWIDTH 2000 0
DWIDTH 20 0
BBX 18 15 1 -2
BITMAP
200A00
400900
400880
500880
900840
900840
900840
900E40
900840
9FE840
800880
400880
400900
200A00
100000
ENDCHAR
STARTCHAR 3210
ENCODING 10561
SWIDTH 2000 0
DWIDTH 20 0
BBX 18 16 1 -2
BITMAP
000200
200A00
400900
400880
5FC880
900840
900840
900E40
900840
900840
91E840
8E0880
400880
400900
200200
100000
ENDCHAR
STARTCHAR 3211
ENCODING 10562
SWIDTH 2000 0
DWIDTH 20 0
BBX 18 16 1 -2
BITMAP
000200
200900
400900
400880
5F8880
808840
808840
9F8840
900E40
900840
900840
9FE880
400880
400900
200A00
100000
ENDCHAR
STARTCHAR 3212
ENCODING 10563
SWIDTH 2000 0
DWIDTH 20 0
BBX 18 15 1 -2
BITMAP
200A00
400900
400880
5F8880
908840
908840
908840
908E40
908840
9F8840
800880
400880
400900
200A00
100000
ENDCHAR
STARTCHAR 3213
ENCODING 10564
SWIDTH 2000 0
DWIDTH 20 0
BBX 18 16 1 -2
BITMAP
000200
200100
400900
508880
508880
908840
9F8840
908840
908E40
908840
908840
9F8880
400880
400900
200A00
100000
ENDCHAR
STARTCHAR 3214
ENCODING 10565
SWIDTH 2000 0
DWIDTH 20 0
BBX 18 16 1 -2
BITMAP
000200
200900
400900
420880
420880
820840
860840
850840
850E40
888840
904840
804880
400880
400900
200A00
100000
ENDCHAR
STARTCHAR 3215
ENCODING 10566
SWIDTH 2000 0
DWIDTH 20 0
BBX 18 16 1 -2
BITMAP
000200
200100
400900
4F0880
490880
908840
908840
908840
908E40
908840
890840
8F0880
400880
400900
200A00
100000
ENDCHAR
STARTCHAR 3216
ENCODING 10567
SWIDTH 2000 0
DWIDTH 20 0
BBX 18 16 1 -2
BITMAP
000200
200900
400900
400880
5FC880
820840
830840
830840
830E40
848840
88C840
986880
500880
400900
200A00
100000
ENDCHAR
STARTCHAR 3217
ENCODING 10568
SWIDTH 2000 0
DWIDTH 20 0
BBX 18 16 1 -2
BITMAP
000200
200100
400900
478880
400880
9FC840
820840
820840
830E40
848840
848840
986880
400880
400900
200A00
100000
ENDCHAR
STARTCHAR 3218
ENCODING 10569
SWIDTH 2000 0
DWIDTH 20 0
BBX 18 16 1 -2
BITMAP
000200
200900
400900
400880
5FC880
808840
808840
878840
988E40
810840
820840
840880
580880
400900
200A00
100000
ENDCHAR
STARTCHAR 3219
ENCODING 10570
SWIDTH 2000 0
DWIDTH 20 0
BBX 18 16 1 -2
BITMAP
100200
200900
400900
400880
8FC880
880840
880840
8FCE40
880840
880840
880840
8FE880
400880
400900
200A00
100000
ENDCHAR
STARTCHAR 321A
ENCODING 10571
SWIDTH 2000 0
DWIDTH 20 0
BBX 18 16 1 -2
BITMAP
000200
200900
400900
5FC880
400880
888840
888840
888840
890E40
890840
BFE840
800880
400880
400900
200A00
100000
ENDCHAR
STARTCHAR 321B
ENCODING 10572
SWIDTH 2000 0
DWIDTH 20 0
BBX 18 16 1 -2
BITMAP
000200
200100
400900
470880
400880
BFE840
800840
8F8840
88CE40
904840
904840
88C880
4F8880
400900
200A00
100000
ENDCHAR
STARTCHAR 249C
ENCODING 10573
SWIDTH 2000 0
DWIDTH 20 0
BBX 18 16 1 -2
BITMAP
000200
200100
400100
41E080
423080
841040
803040
81F040
871040
841040
841040
827880
418080
400100
200200
100000
ENDCHAR
STARTCHAR 249D
ENCODING 10574
SWIDTH 2000 0
DWIDTH 20 0
BBX 18 16 1 -2
BITMAP
000200
200100
440100
440080
440080
85E040
861040
840840
840840
840840
840840
840880
461080
45E100
200200
100000
ENDCHAR
STARTCHAR 249E
ENCODING 10575
SWIDTH 2000 0
DWIDTH 20 0
BBX 18 16 1 -2
BITMAP
000200
200100
400100
40C080
433080
821040
840040
840040
840040
840840
821040
813080
40C080
400100
200200
100000
ENDCHAR
STARTCHAR 249F
ENCODING 10576
SWIDTH 2000 0
DWIDTH 20 0
BBX 18 16 1 -2
BITMAP
000200
200100
401100
401080
401080
83D040
843040
881040
881040
881040
881040
881080
443080
43D100
200200
100000
ENDCHAR
STARTCHAR 24A0
ENCODING 10577
SWIDTH 2000 0
DWIDTH 20 0
BBX 18 16 1 -2
BITMAP
000200
200100
400100
40C080
433080
841040
840840
87F840
840040
840040
821040
83F080
400080
400100
200200
100000
ENDCHAR
STARTCHAR 24A1
ENCODING 10578
SWIDTH 2000 0
DWIDTH 20 0
BBX 18 16 1 -2
BITMAP
000200
200100
404100
408080
408080
808040
81E040
808040
808040
808040
808040
808080
408080
408100
208200
100000
ENDCHAR
STARTCHAR 24A2
ENCODING 10579
SWIDTH 2000 0
DWIDTH 20 0
BBX 18 16 1 -2
BITMAP
000200
200100
41E900
421880
441880
840840
840840
840840
840840
821840
81E840
800880
421080
43E100
200200
100000
ENDCHAR
STARTCHAR 24A3
ENCODING 10580
SWIDTH 2000 0
DWIDTH 20 0
BBX 18 16 1 -2
BITMAP
000200
200100
420100
420080
420080
82F040
831840
820840
820840
820840
820840
820880
420880
420900
200200
100000
ENDCHAR
STARTCHAR 24A4
ENCODING 10581
SWIDTH 2000 0
DWIDTH 20 0
BBX 18 16 1 -2
BITMAP
000200
200100
408100
400080
400080
808040
808040
808040
808040
808040
808040
808080
408080
408100
200200
100000
ENDCHAR
STARTCHAR 24A5
ENCODING 10582
SWIDTH 2000 0
DWIDTH 20 0
BBX 18 16 1 -2
BITMAP
004200
204100
400100
400080
404080
804040
804040
804040
804040
804040
804040
804080
404080
404100
20C200
118000
ENDCHAR
STARTCHAR 24A6
ENCODING 10583
SWIDTH 2000 0
DWIDTH 20 0
BBX 18 16 1 -2
BITMAP
000200
200100
420100
420080
420080
821040
822040
824040
828040
834040
822040
822080
421080
420900
200200
100000
ENDCHAR
STARTCHAR 24A7
ENCODING 10584
SWIDTH 2000 0
DWIDTH 20 0
BBX 18 16 1 -2
BITMAP
000200
200100
408100
408080
408080
808040
808040
808040
808040
808040
808040
808080
408080
408100
200200
100000
ENDCHAR
STARTCHAR 24A8
ENCODING 10585
SWIDTH 2000 0
DWIDTH 20 0
BBX 18 16 1 -2
BITMAP
000200
200100
400100
431C80
54A680
984240
904240
904240
904240
904240
904240
904280
400080
400100
200200
100000
ENDCHAR
STARTCHAR 24A9
ENCODING 10586
SWIDTH 2000 0
DWIDTH 20 0
BBX 18 16 1 -2
BITMAP
000200
200100
400100
404080
45B080
861040
841040
841040
841040
841040
841040
841080
400080
400100
200200
100000
ENDCHAR
STARTCHAR 24AA
ENCODING 10587
SWIDTH 2000 0
DWIDTH 20 0
BBX 18 15 1 -1
BITMAP
000200
200100
400100
41E080
421080
840840
840840
840840
840840
840840
840840
821080
41E080
400100
200200
ENDCHAR
STARTCHAR 24AB
ENCODING 10588
SWIDTH 2000 0
DWIDTH 20 0
BBX 18 16 1 -2
BITMAP
000200
200100
427100
438880
420C80
820440
820440
820440
820C40
830840
82F840
820080
420080
420100
200200
100000
ENDCHAR
STARTCHAR 24AC
ENCODING 10589
SWIDTH 2000 0
DWIDTH 20 0
BBX 18 16 1 -2
BITMAP
000200
200100
418100
465080
443080
881040
881040
881040
881040
843040
835040
809080
401080
401100
200200
100000
ENDCHAR
STARTCHAR 24AD
ENCODING 10590
SWIDTH 2000 0
DWIDTH 20 0
BBX 18 16 1 -2
BITMAP
000200
200100
400100
400080
40B080
80C040
808040
808040
808040
808040
808040
808080
400080
400100
200200
100000
ENDCHAR
STARTCHAR 24AE
ENCODING 10591
SWIDTH 2000 0
DWIDTH 20 0
BBX 18 16 1 -2
BITMAP
000200
200100
400100
41E080
421080
821040
820040
81C040
803040
821040
821040
81E080
400080
400100
200200
100000
ENDCHAR
STARTCHAR 24AF
ENCODING 10592
SWIDTH 2000 0
DWIDTH 20 0
BBX 18 16 1 -2
BITMAP
000200
200100
408100
408080
408080
81E040
808040
808040
808040
808040
808040
808080
408080
40E100
200200
100000
ENDCHAR
STARTCHAR 24B0
ENCODING 10593
SWIDTH 2000 0
DWIDTH 20 0
BBX 18 16 1 -2
BITMAP
000200
200100
400100
400080
421080
821040
821040
821040
821040
821040
821040
823080
41D080
400100
200200
100000
ENDCHAR
STARTCHAR 24B1
ENCODING 10594
SWIDTH 2000 0
DWIDTH 20 0
BBX 18 16 1 -2
BITMAP
000200
200100
400100
400080
440880
841040
821040
821040
812040
812040
814040
80C080
40C080
400100
200200
100000
ENDCHAR
STARTCHAR 24B2
ENCODING 10595
SWIDTH 2000 0
DWIDTH 20 0
BBX 18 16 1 -2
BITMAP
000200
200100
400100
400080
504280
88C240
88C440
88A440
852440
852840
851840
861880
421080
400100
200200
100000
ENDCHAR
STARTCHAR 24B3
ENCODING 10596
SWIDTH 2000 0
DWIDTH 20 0
BBX 18 16 1 -2
BITMAP
000200
200100
400100
400080
421080
812040
81C040
80C040
80C040
812040
831040
821080
400080
400100
200200
100000
ENDCHAR
STARTCHAR 24B4
ENCODING 10597
SWIDTH 2000 0
DWIDTH 20 0
BBX 18 16 1 -2
BITMAP
000200
200100
400100
420880
421080
821040
811040
812040
80A040
80A040
80C040
804080
408080
408100
230200
100000
ENDCHAR
STARTCHAR 24B5
ENCODING 10598
SWIDTH 2000 0
DWIDTH 20 0
BBX 18 16 1 -2
BITMAP
000200
200100
400100
400080
43F080
801040
802040
804040
808040
810040
820040
87F080
400080
400100
200200
100000
ENDCHAR
STARTCHAR 2474
ENCODING 10599
SWIDTH 2000 0
DWIDTH 20 0
BBX 18 16 1 -2
BITMAP
000200
200100
404100
404080
43C080
804040
804040
804040
804040
804040
804040
804080
404080
404100
200200
100000
ENDCHAR
STARTCHAR 2475
ENCODING 10600
SWIDTH 2000 0
DWIDTH 20 0
BBX 18 16 1 -2
BITMAP
000200
20E100
433100
420880
420880
800840
801840
803040
806040
818040
830040
820080
440080
47F900
200200
100000
ENDCHAR
STARTCHAR 2476
ENCODING 10601
SWIDTH 2000 0
DWIDTH 20 0
BBX 18 16 1 -2
BITMAP
000200
200100
43E100
421080
441080
801040
801040
80E040
803040
801840
800840
840880
461080
43F100
200200
100000
ENDCHAR
STARTCHAR 2477
ENCODING 10602
SWIDTH 2000 0
DWIDTH 20 0
BBX 18 16 1 -2
BITMAP
000200
200100
402100
406080
40A080
80A040
812040
822040
822040
842040
87F840
802080
402080
402100
200200
100000
ENDCHAR
STARTCHAR 2478
ENCODING 10603
SWIDTH 2000 0
DWIDTH 20 0
BBX 18 16 1 -2
BITMAP
000200
200100
43F100
420080
420080
820040
82C040
833040
801840
800840
800840
860880
421080
41F100
200200
100000
ENDCHAR
STARTCHAR 2479
ENCODING 10604
SWIDTH 2000 0
DWIDTH 20 0
BBX 18 16 1 -2
BITMAP
000200
200100
41F100
421080
420880
840040
84C040
873040
860840
840840
840840
860880
421080
41F100
200200
100000
ENDCHAR
STARTCHAR 247A
ENCODING 10605
SWIDTH 2000 0
DWIDTH 20 0
BBX 18 16 1 -2
BITMAP
000200
200100
43F900
401080
401080
802040
804040
804040
804040
808040
808040
808080
410080
410100
200200
100000
ENDCHAR
STARTCHAR 247B
ENCODING 10606
SWIDTH 2000 0
DWIDTH 20 0
BBX 18 16 1 -2
BITMAP
000200
200100
41E100
421080
421880
821840
821040
81E040
821040
840840
840840
840880
421880
41E100
200200
100000
ENDCHAR
STARTCHAR 247C
ENCODING 10607
SWIDTH 2000 0
DWIDTH 20 0
BBX 18 16 1 -2
BITMAP
000200
200100
43E100
421080
440880
840840
840840
840840
833840
80C840
800840
821880
421080
43E100
200200
100000
ENDCHAR
STARTCHAR 247D
ENCODING 10608
SWIDTH 2000 0
DWIDTH 20 0
BBX 18 16 1 -2
BITMAP
000200
241D00
443500
4C2280
442280
842240
842240
842240
842240
842240
842240
842280
442280
441500
200A00
100000
ENDCHAR
STARTCHAR 247E
ENCODING 10609
SWIDTH 2000 0
DWIDTH 20 0
BBX 18 16 1 -2
BITMAP
000200
240900
440900
4C1880
440880
840840
840840
840840
840840
840840
840840
840880
440880
440900
200200
100000
ENDCHAR
STARTCHAR 247F
ENCODING 10610
SWIDTH 2000 0
DWIDTH 20 0
BBX 18 16 1 -2
BITMAP
000200
240100
443D00
5C4280
444280
840440
840440
840840
841040
842040
842040
844080
444080
444100
207E00
100000
ENDCHAR
STARTCHAR 2480
ENCODING 10611
SWIDTH 2000 0
DWIDTH 20 0
BBX 18 16 1 -2
BITMAP
000200
241D00
442500
5C2280
440280
840440
840440
841C40
840240
840240
840240
842280
442280
442500
201E00
100000
ENDCHAR
STARTCHAR 2481
ENCODING 10612
SWIDTH 2000 0
DWIDTH 20 0
BBX 18 16 1 -2
BITMAP
000200
240500
440D00
5C0C80
441480
841440
841440
842440
842440
844440
847E40
840480
440480
440500
200200
100000
ENDCHAR
STARTCHAR 2482
ENCODING 10613
SWIDTH 2000 0
DWIDTH 20 0
BBX 18 16 1 -2
BITMAP
000200
200100
447900
4C4080
444080
844040
845840
846440
844240
844240
840240
840280
442280
442300
243600
100800
ENDCHAR
STARTCHAR 00B9
ENCODING 10614
SWIDTH 2000 0
DWIDTH 20 0
BBX 3 8 9 7
BITMAP
20
E0
20
20
20
20
20
20
ENDCHAR
STARTCHAR 00B2
ENCODING 10615
SWIDTH 2000 0
DWIDTH 20 0
BBX 6 8 7 7
BITMAP
78
04
04
08
30
40
80
FC
ENDCHAR
STARTCHAR 00B3
ENCODING 10616
SWIDTH 2000 0
DWIDTH 20 0
BBX 6 8 7 7
BITMAP
78
84
0C
38
04
84
84
78
ENDCHAR
STARTCHAR 2074
ENCODING 10617
SWIDTH 2000 0
DWIDTH 20 0
BBX 6 8 7 7
BITMAP
08
18
28
48
48
FC
08
08
ENDCHAR
STARTCHAR 207F
ENCODING 10618
SWIDTH 2000 0
DWIDTH 20 0
BBX 6 7 7 7
BITMAP
B8
C4
84
84
84
84
84
ENDCHAR
STARTCHAR 2081
ENCODING 10619
SWIDTH 2000 0
DWIDTH 20 0
BBX 3 8 9 -3
BITMAP
20
E0
20
20
20
20
20
20
ENDCHAR
STARTCHAR 2082
ENCODING 10620
SWIDTH 2000 0
DWIDTH 20 0
BBX 6 9 7 -3
BITMAP
30
4C
84
04
08
30
40
80
FC
ENDCHAR
STARTCHAR 2083
ENCODING 10621
SWIDTH 2000 0
DWIDTH 20 0
BBX 6 9 7 -4
BITMAP
38
44
04
08
38
04
84
4C
30
ENDCHAR
STARTCHAR 2084
ENCODING 10622
SWIDTH 2000 0
DWIDTH 20 0
BBX 6 8 7 -3
BITMAP
08
18
28
48
48
FC
08
08
ENDCHAR
STARTCHAR 3041
ENCODING 10785
SWIDTH 2000 0
DWIDTH 20 0
BBX 10 11 5 -2
BITMAP
0800
1000
7C00
1200
1600
3D80
5440
9840
9040
A880
4300
ENDCHAR
STARTCHAR 3042
ENCODING 10786
SWIDTH 2000 0
DWIDTH 20 0
BBX 14 16 3 -2
BITMAP
0600
0400
0440
7F80
0400
0840
09E0
0E98
3884
4904
C504
8604
8404
8E0C
F018
0060
ENDCHAR
STARTCHAR 3043
ENCODING 10787
SWIDTH 2000 0
DWIDTH 20 0
BBX 10 8 5 -2
BITMAP
8000
8100
8080
8080
8040
4040
4800
3000
ENDCHAR
STARTCHAR 3044
ENCODING 10788
SWIDTH 2000 0
DWIDTH 20 0
BBX 15 12 2 0
BITMAP
C000
4000
4018
4008
4004
4004
4002
4002
6200
2200
3400
1800
ENDCHAR
STARTCHAR 3045
ENCODING 10789
SWIDTH 2000 0
DWIDTH 20 0
BBX 6 12 7 -2
BITMAP
30
08
00
00
7C
84
04
04
04
04
08
10
ENDCHAR
STARTCHAR 3046
ENCODING 10790
SWIDTH 2000 0
DWIDTH 20 0
BBX 9 16 6 -2
BITMAP
1000
0C00
0200
0000
1F00
E100
8080
0080
0080
0180
0100
0100
0300
0200
0C00
0800
ENDCHAR
STARTCHAR 3047
ENCODING 10791
SWIDTH 2000 0
DWIDTH 20 0
BBX 10 11 5 -2
BITMAP
0C00
0200
0000
0E00
7400
0800
1000
1C00
2200
4200
83C0
ENDCHAR
STARTCHAR 3048
ENCODING 10792
SWIDTH 2000 0
DWIDTH 20 0
BBX 14 16 3 -2
BITMAP
0600
03C0
0000
0000
0180
3EC0
2180
0300
0200
0400
0F80
1880
2080
6080
C07C
0010
ENDCHAR
STARTCHAR 3049
ENCODING 10793
SWIDTH 2000 0
DWIDTH 20 0
BBX 11 10 4 -2
BITMAP
1000
1040
7C20
1000
1000
1FC0
3040
D040
9040
7080
ENDCHAR
STARTCHAR 304A
ENCODING 10794
SWIDTH 2000 0
DWIDTH 20 0
BBX 15 15 2 -1
BITMAP
0800
0800
0808
090C
7E02
0800
0800
08E0
0F18
1804
2804
4804
8804
4808
7870
ENDCHAR
STARTCHAR 304B
ENCODING 10795
SWIDTH 2000 0
DWIDTH 20 0
BBX 16 15 2 -1
BITMAP
0400
0400
0800
0808
3F8C
C846
1043
1041
3040
2040
6040
4080
C080
8700
0600
ENDCHAR
STARTCHAR 304C
ENCODING 10796
SWIDTH 2000 0
DWIDTH 20 0
BBX 16 16 2 -1
BITMAP
0003
0000
0C06
0802
0800
0F8C
F8C6
1042
1041
1040
2040
2040
4080
C080
8180
0700
ENDCHAR
STARTCHAR 304D
ENCODING 10797
SWIDTH 2000 0
DWIDTH 20 0
BBX 10 16 5 -2
BITMAP
1800
0880
0F80
7C00
0440
03C0
1E00
E100
0080
1C80
E3C0
8000
8000
8000
7000
0E00
ENDCHAR
STARTCHAR 304E
ENCODING 10798
SWIDTH 2000 0
DWIDTH 20 0
BBX 14 16 3 -2
BITMAP
0808
0824
0790
7C00
0220
03C0
1F00
6100
0080
1C40
63E0
8000
8000
C000
7000
0F00
ENDCHAR
STARTCHAR 304F
ENCODING 10799
SWIDTH 2000 0
DWIDTH 20 0
BBX 6 16 7 -2
BITMAP
04
0C
18
10
20
40
80
80
80
40
20
10
18
0C
04
04
ENDCHAR
STARTCHAR 3050
ENCODING 10800
SWIDTH 2000 0
DWIDTH 20 0
BBX 11 16 4 -2
BITMAP
0400
0400
0800
1820
1080
2040
4000
8000
4000
2000
1000
1800
0800
0400
0600
0200
ENDCHAR
STARTCHAR 3051
ENCODING 10801
SWIDTH 2000 0
DWIDTH 20 0
BBX 14 16 3 -2
BITMAP
4020
C020
8020
8024
87FC
8020
8020
8020
8020
8020
A020
C020
C060
4040
00C0
0180
ENDCHAR
STARTCHAR 3052
ENCODING 10802
SWIDTH 2000 0
DWIDTH 20 0
BBX 16 18 2 -2
BITMAP
0002
0001
4024
4022
8020
8020
87FC
8020
8020
8020
8020
8020
8020
C020
C020
4040
40C0
0180
ENDCHAR
STARTCHAR 3053
ENCODING 10803
SWIDTH 2000 0
DWIDTH 20 0
BBX 12 13 4 0
BITMAP
3840
0F80
0000
0000
0000
0000
0000
0000
8000
8000
8000
6000
1FF0
ENDCHAR
STARTCHAR 3054
ENCODING 10804
SWIDTH 2000 0
DWIDTH 20 0
BBX 16 13 2 0
BITMAP
3860
0780
0003
0004
0000
0000
0000
0000
8000
8000
8000
6000
1FF0
ENDCHAR
STARTCHAR 3055
ENCODING 10805
SWIDTH 2000 0
DWIDTH 20 0
BBX 11 15 4 -2
BITMAP
0600
0220
03E0
7F00
0080
0080
0040
0E60
71E0
4020
8000
C000
6000
3F80
0300
ENDCHAR
STARTCHAR 3056
ENCODING 10806
SWIDTH 2000 0
DWIDTH 20 0
BBX 16 17 2 -2
BITMAP
0006
0203
0208
0204
01E0
7F00
0080
0080
0040
0E20
71F0
4000
8000
4000
6000
3F80
0300
ENDCHAR
STARTCHAR 3057
ENCODING 10807
SWIDTH 2000 0
DWIDTH 20 0
BBX 10 15 5 -1
BITMAP
8000
8000
8000
8000
8000
8000
8000
8000
8000
8000
8040
8040
8080
C300
3C00
ENDCHAR
STARTCHAR 3058
ENCODING 10808
SWIDTH 2000 0
DWIDTH 20 0
BBX 10 16 5 -2
BITMAP
8000
8180
82C0
8300
8000
8000
8000
8000
8000
8000
8000
8040
80C0
8180
6700
1800
ENDCHAR
STARTCHAR 3059
ENCODING 10809
SWIDTH 2000 0
DWIDTH 20 0
BBX 15 16 3 -2
BITMAP
0080
0080
0080
7FFE
C080
0080
0780
0880
1080
1080
0980
0680
0080
0100
0200
0400
ENDCHAR
STARTCHAR 305A
ENCODING 10810
SWIDTH 2000 0
DWIDTH 20 0
BBX 16 18 2 -2
BITMAP
0002
0001
0084
0080
0080
7FFE
C080
0080
0780
0880
1080
1080
0980
0680
0080
0100
0200
0400
ENDCHAR
STARTCHAR 305B
ENCODING 10811
SWIDTH 2000 0
DWIDTH 20 0
BBX 16 15 2 -1
BITMAP
0010
0810
0810
0810
0810
3FFF
C810
0810
0810
0820
0860
0800
0800
0C00
07F8
ENDCHAR
STARTCHAR 305C
ENCODING 10812
SWIDTH 2000 0
DWIDTH 20 0
BBX 18 15 1 -1
BITMAP
000080
001240
081100
081000
081000
0FFF00
F81000
081000
081000
083000
086000
080000
080000
0C0000
03F800
ENDCHAR
STARTCHAR 305D
ENCODING 10813
SWIDTH 2000 0
DWIDTH 20 0
BBX 14 16 3 -2
BITMAP
0020
1060
0840
0880
0100
037C
0FE0
F080
0100
0200
0200
0200
0200
0200
0180
0060
ENDCHAR
STARTCHAR 305E
ENCODING 10814
SWIDTH 2000 0
DWIDTH 20 0
BBX 16 16 2 -2
BITMAP
0022
3041
18C4
0080
0100
027C
1FE0
E180
0100
0200
0400
0400
0600
0200
0180
0060
ENDCHAR
STARTCHAR 305F
ENCODING 10815
SWIDTH 2000 0
DWIDTH 20 0
BBX 14 15 3 -1
BITMAP
0800
0800
0800
1A00
FC00
1000
10FC
1000
2000
2000
2000
6300
4200
4180
C07C
ENDCHAR
STARTCHAR 3060
ENCODING 10816
SWIDTH 2000 0
DWIDTH 20 0
BBX 16 15 2 -1
BITMAP
0C00
0803
080D
0A06
FC00
1000
10FC
1000
3000
2000
2000
2100
4200
4180
C07C
ENDCHAR
STARTCHAR 3061
ENCODING 10817
SWIDTH 2000 0
DWIDTH 20 0
BBX 14 15 3 -1
BITMAP
0800
0800
08C0
1F00
F000
1000
1000
11F0
17B8
1C0C
1004
0004
0008
0030
03C0
ENDCHAR
STARTCHAR 3062
ENCODING 10818
SWIDTH 2000 0
DWIDTH 20 0
BBX 15 15 3 -1
BITMAP
1000
1004
1092
1F08
F000
3000
2000
23E0
2F30
3818
3008
0008
0010
0020
07C0
ENDCHAR
STARTCHAR 3063
ENCODING 10819
SWIDTH 2000 0
DWIDTH 20 0
BBX 10 8 5 -2
BITMAP
0700
78C0
8040
0040
0040
0040
0180
0600
ENDCHAR
STARTCHAR 3064
ENCODING 10820
SWIDTH 2000 0
DWIDTH 20 0
BBX 15 11 3 0
BITMAP
0FF8
F00C
8004
0002
0002
0006
0004
000C
0018
00E0
0180
ENDCHAR
STARTCHAR 3065
ENCODING 10821
SWIDTH 2000 0
DWIDTH 20 0
BBX 17 14 2 0
BITMAP
000100
000480
000200
0FF800
F00C00
800400
000200
000200
000400
000400
000C00
001800
00E000
018000
ENDCHAR
STARTCHAR 3066
ENCODING 10822
SWIDTH 2000 0
DWIDTH 20 0
BBX 14 14 3 -1
BITMAP
003C
3FF0
C0C0
0180
0100
0200
0200
0200
0200
0200
0300
0180
00E0
0030
ENDCHAR
STARTCHAR 3067
ENCODING 10823
SWIDTH 2000 0
DWIDTH 20 0
BBX 16 14 2 -1
BITMAP
003C
7FE0
C080
0102
0305
0206
0200
0200
0200
0200
0200
0100
00E0
0030
ENDCHAR
STARTCHAR 3068
ENCODING 10824
SWIDTH 2000 0
DWIDTH 20 0
BBX 10 14 5 -1
BITMAP
2000
2000
3040
11C0
1300
1C00
1000
6000
C000
8000
8000
8000
C000
7FC0
ENDCHAR
STARTCHAR 3069
ENCODING 10825
SWIDTH 2000 0
DWIDTH 20 0
BBX 14 15 3 -1
BITMAP
2008
2014
2018
1040
11C0
1700
0C00
3000
4000
C000
8000
8000
8000
C040
3FC0
ENDCHAR
STARTCHAR 306A
ENCODING 10826
SWIDTH 2000 0
DWIDTH 20 0
BBX 14 16 3 -2
BITMAP
0800
0800
1000
FE08
1004
3000
2040
2040
4040
C040
8040
0340
0CF0
0858
0CC0
0700
ENDCHAR
STARTCHAR 306B
ENCODING 10827
SWIDTH 2000 0
DWIDTH 20 0
BBX 14 14 3 -1
BITMAP
4000
41F8
4200
8000
8000
8000
8000
8000
8000
8200
A200
C384
407C
4000
ENDCHAR
STARTCHAR 306C
ENCODING 10828
SWIDTH 2000 0
DWIDTH 20 0
BBX 16 15 2 -1
BITMAP
0180
0100
0100
43F0
2F08
3104
2206
5202
5202
8C02
8C06
8AFC
908E
6099
0060
ENDCHAR
STARTCHAR 306D
ENCODING 10829
SWIDTH 2000 0
DWIDTH 20 0
BBX 16 15 2 -1
BITMAP
1800
1000
1000
1838
F9CC
9304
1406
1802
3002
7006
503C
90FE
1087
1098
1060
ENDCHAR
STARTCHAR 306E
ENCODING 10830
SWIDTH 2000 0
DWIDTH 20 0
BBX 16 13 2 -1
BITMAP
03E0
0C98
1084
2082
4103
8101
8301
8201
8603
C402
4C06
380C
0010
ENDCHAR
STARTCHAR 306F
ENCODING 10831
SWIDTH 2000 0
DWIDTH 20 0
BBX 14 16 3 -2
BITMAP
4000
4020
8020
8020
803C
87E0
8020
8020
8020
8020
8020
C1E0
C638
C424
47E0
03C0
ENDCHAR
STARTCHAR 3070
ENCODING 10832
SWIDTH 2000 0
DWIDTH 20 0
BBX 16 17 2 -2
BITMAP
0002
4001
4024
C020
8020
83FC
8020
8020
8020
8020
8020
8020
C3F0
C62C
C424
4360
0080
ENDCHAR
STARTCHAR 3071
ENCODING 10833
SWIDTH 2000 0
DWIDTH 20 0
BBX 16 17 2 -2
BITMAP
0002
0005
4025
4027
4020
83FC
8020
8020
8020
8020
8020
8020
81F0
A23C
C424
4260
4180
ENDCHAR
STARTCHAR 3072
ENCODING 10834
SWIDTH 2000 0
DWIDTH 20 0
BBX 15 14 3 -1
BITMAP
0060
3820
D030
2030
4028
4026
4020
8020
8020
8020
8040
C040
4080
3F00
ENDCHAR
STARTCHAR 3073
ENCODING 10835
SWIDTH 2000 0
DWIDTH 20 0
BBX 16 15 2 -1
BITMAP
0002
0025
F832
9030
2028
202C
4026
4020
8020
8020
8020
8040
4040
6080
1F00
ENDCHAR
STARTCHAR 3074
ENCODING 10836
SWIDTH 2000 0
DWIDTH 20 0
BBX 16 16 2 -1
BITMAP
0002
000D
0025
7837
9030
2028
202C
4026
4020
8020
8020
8020
8020
4040
6080
3F00
ENDCHAR
STARTCHAR 3075
ENCODING 10837
SWIDTH 2000 0
DWIDTH 20 0
BBX 16 14 2 -1
BITMAP
0300
01C0
0080
0000
0200
0200
0200
0300
0184
0082
8043
5020
6140
0080
ENDCHAR
STARTCHAR 3076
ENCODING 10838
SWIDTH 2000 0
DWIDTH 20 0
BBX 16 14 2 -1
BITMAP
0300
01C0
0083
0005
0206
0200
0200
0300
0184
0082
8043
5020
6140
0080
ENDCHAR
STARTCHAR 3077
ENCODING 10839
SWIDTH 2000 0
DWIDTH 20 0
BBX 16 14 2 -1
BITMAP
0300
01C0
008E
0009
020A
0204
0200
0300
0184
0082
8043
5020
6140
0080
ENDCHAR
STARTCHAR 3078
ENCODING 10840
SWIDTH 2000 0
DWIDTH 20 0
BBX 16 8 2 2
BITMAP
0400
1B00
3080
6040
C030
800C
0007
0001
ENDCHAR
STARTCHAR 3079
ENCODING 10841
SWIDTH 2000 0
DWIDTH 20 0
BBX 16 9 2 2
BITMAP
0004
041A
1B0C
3080
6040
C030
800C
0007
0001
ENDCHAR
STARTCHAR 307A
ENCODING 10842
SWIDTH 2000 0
DWIDTH 20 0
BBX 16 9 2 2
BITMAP
001E
0412
1B12
308C
6040
C030
800C
0007
0001
ENDCHAR
STARTCHAR 307B
ENCODING 10843
SWIDTH 2000 0
DWIDTH 20 0
BBX 14 15 3 -2
BITMAP
401C
47E0
C020
8020
8020
87F8
8020
8020
8020
8020
81A0
C670
C42C
86E4
8380
ENDCHAR
STARTCHAR 307C
ENCODING 10844
SWIDTH 2000 0
DWIDTH 20 0
BBX 16 15 2 -2
BITMAP
4FFA
4041
C044
8040
8078
8FC0
8040
8040
8040
8040
87C0
C830
C858
CCC0
C300
ENDCHAR
STARTCHAR 307D
ENCODING 10845
SWIDTH 2000 0
DWIDTH 20 0
BBX 16 16 2 -2
BITMAP
0018
4FFA
404D
8045
8047
80F0
8740
8040
8040
8040
8040
8FE0
C870
C848
8F80
8000
ENDCHAR
STARTCHAR 307E
ENCODING 10846
SWIDTH 2000 0
DWIDTH 20 0
BBX 11 15 4 -1
BITMAP
0200
0200
0200
7FC0
0200
0200
02C0
7F00
0200
0200
0200
3E00
4180
C260
7E00
ENDCHAR
STARTCHAR 307F
ENCODING 10847
SWIDTH 2000 0
DWIDTH 20 0
BBX 16 14 2 -1
BITMAP
0FC0
1080
0100
010C
0208
0208
1F88
3478
440C
8813
8810
9020
7040
0080
ENDCHAR
STARTCHAR 3080
ENCODING 10848
SWIDTH 2000 0
DWIDTH 20 0
BBX 15 15 3 -1
BITMAP
0800
0800
0800
FE08
0806
0800
7800
8800
8800
8800
8800
F008
1008
1008
0FF0
ENDCHAR
STARTCHAR 3081
ENCODING 10849
SWIDTH 2000 0
DWIDTH 20 0
BBX 16 15 2 -1
BITMAP
0060
0040
2040
31F0
174C
1886
3882
2902
4D01
4501
8202
8702
4904
3018
0030
ENDCHAR
STARTCHAR 3082
ENCODING 10850
SWIDTH 2000 0
DWIDTH 20 0
BBX 12 16 4 -2
BITMAP
0800
1800
1000
1000
7E00
1000
1000
2000
E660
3C20
2010
2010
2010
2030
1060
0F80
ENDCHAR
STARTCHAR 3083
ENCODING 10851
SWIDTH 2000 0
DWIDTH 20 0
BBX 11 9 5 -1
BITMAP
0800
4580
4640
3820
E040
13C0
1000
0800
0800
ENDCHAR
STARTCHAR 3084
ENCODING 10852
SWIDTH 2000 0
DWIDTH 20 0
BBX 15 16 3 -2
BITMAP
0200
0100
4100
607C
2384
3C02
3002
D806
880C
08F8
0400
0400
0200
0200
0300
0100
ENDCHAR
STARTCHAR 3085
ENCODING 10853
SWIDTH 2000 0
DWIDTH 20 0
BBX 11 10 4 -2
BITMAP
0100
4100
47C0
9920
A220
C220
4220
46C0
4500
0400
ENDCHAR
STARTCHAR 3086
ENCODING 10854
SWIDTH 2000 0
DWIDTH 20 0
BBX 15 14 2 -1
BITMAP
0040
4040
40F0
434C
4C46
8842
9042
A042
C042
C244
41C8
40F0
0180
0300
ENDCHAR
STARTCHAR 3087
ENCODING 10855
SWIDTH 2000 0
DWIDTH 20 0
BBX 8 11 6 -2
BITMAP
08
08
09
0E
08
08
08
08
FE
89
70
ENDCHAR
STARTCHAR 3088
ENCODING 10856
SWIDTH 2000 0
DWIDTH 20 0
BBX 12 16 4 -2
BITMAP
0200
0200
0200
0200
03F0
0200
0200
0200
0200
0200
0200
3E00
C3C0
8630
6E10
3C00
ENDCHAR
STARTCHAR 3089
ENCODING 10857
SWIDTH 2000 0
DWIDTH 20 0
BBX 10 15 5 -1
BITMAP
3000
1800
0000
8000
8000
8000
8000
8F80
B0C0
C040
8040
0040
0040
0180
0F00
ENDCHAR
STARTCHAR 308A
ENCODING 10858
SWIDTH 2000 0
DWIDTH 20 0
BBX 8 16 6 -2
BITMAP
C0
81
81
81
81
81
81
C1
C1
81
81
03
02
06
04
08
ENDCHAR
STARTCHAR 308B
ENCODING 10859
SWIDTH 2000 0
DWIDTH 20 0
BBX 14 14 3 -1
BITMAP
3FC0
2180
0100
0200
0400
0FF0
1808
2008
C00C
000C
0F08
0898
08B0
07C0
ENDCHAR
STARTCHAR 308C
ENCODING 10860
SWIDTH 2000 0
DWIDTH 20 0
BBX 16 15 2 -1
BITMAP
1000
1000
1000
10F0
7910
9210
1C10
1010
3010
5010
5030
9021
9022
101C
1000
ENDCHAR
STARTCHAR 308D
ENCODING 10861
SWIDTH 2000 0
DWIDTH 20 0
BBX 13 15 4 -2
BITMAP
0380
3D00
0300
0600
0400
0800
17C0
3830
6010
C008
8018
0010
0030
00E0
0380
ENDCHAR
STARTCHAR 308E
ENCODING 10862
SWIDTH 2000 0
DWIDTH 20 0
BBX 11 10 5 -2
BITMAP
2000
2000
3000
EF80
3040
6020
A040
A040
2180
2000
ENDCHAR
STARTCHAR 308F
ENCODING 10863
SWIDTH 2000 0
DWIDTH 20 0
BBX 16 15 2 -1
BITMAP
0800
0800
0800
0C00
7C30
09CC
0E02
1C02
1803
2802
6802
4806
880C
0838
0800
ENDCHAR
STARTCHAR 3090
ENCODING 10864
SWIDTH 2000 0
DWIDTH 20 0
BBX 14 14 3 -1
BITMAP
0F80
3180
0100
0300
02C0
0F30
3408
6404
4804
8804
9904
92C4
9228
E3F0
ENDCHAR
STARTCHAR 3091
ENCODING 10865
SWIDTH 2000 0
DWIDTH 20 0
BBX 14 15 3 -1
BITMAP
07C0
1880
0100
0200
07E0
0C10
3018
2708
0510
07E0
0800
30F0
7908
8604
8204
ENDCHAR
STARTCHAR 3092
ENCODING 10866
SWIDTH 2000 0
DWIDTH 20 0
BBX 13 16 4 -2
BITMAP
0400
0800
0B00
FC00
1000
2000
2C00
7338
C1E0
8300
0D00
1100
2000
2000
1000
0FC0
ENDCHAR
STARTCHAR 3093
ENCODING 10867
SWIDTH 2000 0
DWIDTH 20 0
BBX 15 15 3 -1
BITMAP
0200
0300
0600
0400
0C00
0800
1800
1000
3F00
3100
6080
4086
C084
8048
8070
ENDCHAR
STARTCHAR 30A1
ENCODING 11041
SWIDTH 2000 0
DWIDTH 20 0
BBX 10 9 5 -2
BITMAP
FFC0
0080
0900
0A00
0800
1000
1000
2000
4000
ENDCHAR
STARTCHAR 30A2
ENCODING 11042
SWIDTH 2000 0
DWIDTH 20 0
BBX 14 14 3 -1
BITMAP
FFFC
000C
0018
0030
0660
0600
0600
0400
0400
0400
0C00
1800
3000
6000
ENDCHAR
STARTCHAR 30A3
ENCODING 11043
SWIDTH 2000 0
DWIDTH 20 0
BBX 8 11 6 -2
BITMAP
01
03
06
0C
38
C8
08
08
08
08
08
ENDCHAR
STARTCHAR 30A4
ENCODING 11044
SWIDTH 2000 0
DWIDTH 20 0
BBX 11 15 5 -1
BITMAP
0020
0060
00C0
0180
0200
0E00
3A00
E200
8200
0200
0200
0200
0200
0200
0200
ENDCHAR
STARTCHAR 30A5
ENCODING 11045
SWIDTH 2000 0
DWIDTH 20 0
BBX 8 9 6 -2
BITMAP
10
FF
81
81
82
02
04
08
30
ENDCHAR
STARTCHAR 30A6
ENCODING 11046
SWIDTH 2000 0
DWIDTH 20 0
BBX 12 15 4 -1
BITMAP
0400
0400
0400
FFF0
8010
8010
8020
8020
0020
0040
00C0
0080
0100
0600
0C00
ENDCHAR
STARTCHAR 30A7
ENCODING 11047
SWIDTH 2000 0
DWIDTH 20 0
BBX 11 7 4 -2
BITMAP
7FC0
0400
0400
0400
0400
0400
FFE0
ENDCHAR
STARTCHAR 30A8
ENCODING 11048
SWIDTH 2000 0
DWIDTH 20 0
BBX 15 10 2 1
BITMAP
3FFC
0100
0100
0100
0100
0100
0100
0100
0100
FFFE
ENDCHAR
STARTCHAR 30A9
ENCODING 11049
SWIDTH 2000 0
DWIDTH 20 0
BBX 9 10 6 -2
BITMAP
0400
0400
FF80
0C00
1C00
1400
6400
8400
0400
1C00
ENDCHAR
STARTCHAR 30AA
ENCODING 11050
SWIDTH 2000 0
DWIDTH 20 0
BBX 14 14 4 -1
BITMAP
0080
0080
0080
FFFC
0180
0280
0680
0C80
1880
3080
E080
8080
0080
0700
ENDCHAR
STARTCHAR 30AB
ENCODING 11051
SWIDTH 2000 0
DWIDTH 20 0
BBX 13 14 3 -1
BITMAP
0200
0200
0200
0200
7FF8
0208
0208
0208
0408
0408
0818
1010
2010
C0E0
ENDCHAR
STARTCHAR 30AC
ENCODING 11052
SWIDTH 2000 0
DWIDTH 20 0
BBX 16 15 2 -1
BITMAP
0002
0001
0204
0200
0200
7FF8
0208
0208
0208
0408
0408
0818
1010
2010
C0E0
ENDCHAR
STARTCHAR 30AD
ENCODING 11053
SWIDTH 2000 0
DWIDTH 20 0
BBX 14 15 3 -1
BITMAP
0600
0200
0200
07F0
7A00
0200
0200
033C
3FC0
C100
0100
0100
0100
0100
0180
ENDCHAR
STARTCHAR 30AE
ENCODING 11054
SWIDTH 2000 0
DWIDTH 20 0
BBX 16 16 2 -1
BITMAP
0002
0609
0204
0200
07F0
7A00
0200
0200
033C
3FC0
C100
0100
0100
0100
0100
0180
ENDCHAR
STARTCHAR 30AF
ENCODING 11055
SWIDTH 2000 0
DWIDTH 20 0
BBX 12 15 4 -1
BITMAP
0200
0600
0400
0FF0
1030
2020
4060
8040
0080
0180
0300
0600
1800
7000
C000
ENDCHAR
STARTCHAR 30B0
ENCODING 11056
SWIDTH 2000 0
DWIDTH 20 0
BBX 15 15 3 -1
BITMAP
0404
040A
0804
1FE0
3020
6040
C040
0080
0180
0300
0600
0C00
1800
6000
8000
ENDCHAR
STARTCHAR 30B1
ENCODING 11057
SWIDTH 2000 0
DWIDTH 20 0
BBX 15 14 3 -1
BITMAP
0C00
0800
1800
1FFE
2040
6040
C040
8080
0080
0180
0100
0200
0400
0800
ENDCHAR
STARTCHAR 30B2
ENCODING 11058
SWIDTH 2000 0
DWIDTH 20 0
BBX 17 16 2 -1
BITMAP
000100
000080
0C0600
080200
180000
1FFE00
204000
604000
C0C000
008000
008000
018000
010000
020000
040000
080000
ENDCHAR
STARTCHAR 30B3
ENCODING 11059
SWIDTH 2000 0
DWIDTH 20 0
BBX 11 11 5 0
BITMAP
FFE0
0020
0020
0020
0020
0020
0020
0020
0020
FFE0
0020
ENDCHAR
STARTCHAR 30B4
ENCODING 11060
SWIDTH 2000 0
DWIDTH 20 0
BBX 15 15 3 0
BITMAP
000C
0016
0008
0000
FFE0
0020
0020
0020
0020
0020
0020
0020
0020
FFE0
0020
ENDCHAR
STARTCHAR 30B5
ENCODING 11061
SWIDTH 2000 0
DWIDTH 20 0
BBX 16 16 2 -2
BITMAP
0810
0810
0810
0810
FFFF
0810
0810
0810
0830
0820
0020
0040
0040
0080
0300
0200
ENDCHAR
STARTCHAR 30B6
ENCODING 11062
SWIDTH 2000 0
DWIDTH 20 0
BBX 16 17 2 -2
BITMAP
0002
0821
0824
0822
0820
FFFE
0820
0820
0820
0820
0840
0040
0040
0080
0180
0300
0200
ENDCHAR
STARTCHAR 30B7
ENCODING 11063
SWIDTH 2000 0
DWIDTH 20 0
BBX 14 14 3 -1
BITMAP
1000
0800
0400
0000
8000
6004
3008
0010
0060
00C0
0300
0E00
3800
2000
ENDCHAR
STARTCHAR 30B8
ENCODING 11064
SWIDTH 2000 0
DWIDTH 20 0
BBX 14 15 3 -1
BITMAP
0010
1008
1820
0410
0000
8000
6004
2008
0010
0060
00C0
0300
0E00
3800
2000
ENDCHAR
STARTCHAR 30B9
ENCODING 11065
SWIDTH 2000 0
DWIDTH 20 0
BBX 13 12 4 0
BITMAP
7FC0
0040
0040
0080
0180
0100
0380
04C0
0860
3030
E018
8000
ENDCHAR
STARTCHAR 30BA
ENCODING 11066
SWIDTH 2000 0
DWIDTH 20 0
BBX 16 15 2 0
BITMAP
0002
0009
0004
7FE0
0020
0060
0040
00C0
0180
0180
0260
0430
1818
700C
C000
ENDCHAR
STARTCHAR 30BB
ENCODING 11067
SWIDTH 2000 0
DWIDTH 20 0
BBX 14 14 3 -1
BITMAP
0800
0800
0800
0818
0BEC
7C08
C810
0830
0860
0800
0800
0800
0C08
07F8
ENDCHAR
STARTCHAR 30BC
ENCODING 11068
SWIDTH 2000 0
DWIDTH 20 0
BBX 16 15 2 0
BITMAP
0002
0001
0804
0802
0800
087C
0F88
F818
0810
0820
0840
0800
0800
0800
0FF8
ENDCHAR
STARTCHAR 30BD
ENCODING 11069
SWIDTH 2000 0
DWIDTH 20 0
BBX 12 14 4 -1
BITMAP
0010
8010
C030
4020
6020
0040
0040
0080
0180
0300
0600
0C00
1800
3000
ENDCHAR
STARTCHAR 30BE
ENCODING 11070
SWIDTH 2000 0
DWIDTH 20 0
BBX 16 17 2 -1
BITMAP
0002
0001
0004
0010
8018
4010
6030
2020
0020
0040
00C0
0080
0180
0300
0600
1C00
1000
ENDCHAR
STARTCHAR 30BF
ENCODING 11071
SWIDTH 2000 0
DWIDTH 20 0
BBX 12 16 4 -2
BITMAP
0400
0400
0C00
0FF0
1010
2020
4820
8460
0340
0180
0100
0200
0400
1800
3000
C000
ENDCHAR
STARTCHAR 30C0
ENCODING 11072
SWIDTH 2000 0
DWIDTH 20 0
BBX 16 17 2 -2
BITMAP
0002
0001
0204
0406
0FF0
1810
3010
6020
C620
0340
00C0
0180
0300
0600
0800
3000
4000
ENDCHAR
STARTCHAR 30C1
ENCODING 11073
SWIDTH 2000 0
DWIDTH 20 0
BBX 16 14 2 -1
BITMAP
0030
3FC0
0080
0080
0080
FFFF
0080
0080
0180
0100
0300
0600
0C00
1000
ENDCHAR
STARTCHAR 30C2
ENCODING 11074
SWIDTH 2000 0
DWIDTH 20 0
BBX 18 14 1 -1
BITMAP
003080
3FC240
008100
008000
008000
FFFE00
008000
008000
018000
010000
030000
060000
0C0000
100000
ENDCHAR
STARTCHAR 30C3
ENCODING 11075
SWIDTH 2000 0
DWIDTH 20 0
BBX 10 9 5 -2
BITMAP
1040
8840
4880
0080
0100
0300
0600
0C00
1000
ENDCHAR
STARTCHAR 30C4
ENCODING 11076
SWIDTH 2000 0
DWIDTH 20 0
BBX 14 13 3 -1
BITMAP
0404
8604
C20C
4208
4018
0010
0030
0020
0040
0080
0300
0600
0800
ENDCHAR
STARTCHAR 30C5
ENCODING 11077
SWIDTH 2000 0
DWIDTH 20 0
BBX 16 17 2 -1
BITMAP
0003
0001
0006
0002
0404
860C
C208
4008
4018
0010
0020
0060
00C0
0180
0300
0600
0800
ENDCHAR
STARTCHAR 30C6
ENCODING 11078
SWIDTH 2000 0
DWIDTH 20 0
BBX 14 14 3 -1
BITMAP
3FF0
0000
0000
0000
0000
FFFC
0100
0100
0100
0300
0200
0400
1800
3000
ENDCHAR
STARTCHAR 30C7
ENCODING 11079
SWIDTH 2000 0
DWIDTH 20 0
BBX 18 15 1 -1
BITMAP
000180
1FF8C0
000200
000100
000000
000000
FFFE00
008000
008000
008000
010000
030000
060000
0C0000
180000
ENDCHAR
STARTCHAR 30C8
ENCODING 11080
SWIDTH 2000 0
DWIDTH 20 0
BBX 6 15 7 -1
BITMAP
80
80
80
80
80
C0
F0
98
8C
80
80
80
80
80
80
ENDCHAR
STARTCHAR 30C9
ENCODING 11081
SWIDTH 2000 0
DWIDTH 20 0
BBX 8 15 6 -1
BITMAP
82
81
84
82
80
C0
B0
98
8C
80
80
80
80
80
80
ENDCHAR
STARTCHAR 30CA
ENCODING 11082
SWIDTH 2000 0
DWIDTH 20 0
BBX 16 15 2 -1
BITMAP
0080
0080
0080
0080
0080
FFFF
0080
0080
0180
0100
0100
0200
0600
0C00
1800
ENDCHAR
STARTCHAR 30CB
ENCODING 11083
SWIDTH 2000 0
DWIDTH 20 0
BBX 14 10 3 1
BITMAP
3FF0
0000
0000
0000
0000
0000
0000
0000
0000
FFFC
ENDCHAR
STARTCHAR 30CC
ENCODING 11084
SWIDTH 2000 0
DWIDTH 20 0
BBX 12 13 4 -1
BITMAP
7FF0
0010
0020
0020
0C60
0640
0180
01C0
0320
0400
1800
7000
C000
ENDCHAR
STARTCHAR 30CD
ENCODING 11085
SWIDTH 2000 0
DWIDTH 20 0
BBX 14 15 3 -1
BITMAP
0100
0100
0100
3FF0
0010
0020
0040
0180
0330
1D08
E104
0100
0100
0100
0100
ENDCHAR
STARTCHAR 30CE
ENCODING 11086
SWIDTH 2000 0
DWIDTH 20 0
BBX 12 14 4 -1
BITMAP
0030
0020
0020
0040
0040
0080
0180
0100
0200
0600
0C00
1800
6000
C000
ENDCHAR
STARTCHAR 30CF
ENCODING 11087
SWIDTH 2000 0
DWIDTH 20 0
BBX 16 10 2 1
BITMAP
0010
0418
0C08
080C
0804
1006
3002
2003
4001
8000
ENDCHAR
STARTCHAR 30D0
ENCODING 11088
SWIDTH 2000 0
DWIDTH 20 0
BBX 17 13 2 1
BITMAP
000100
000080
000200
002200
0C3000
081000
080800
100C00
100400
200600
600200
C00200
800000
ENDCHAR
STARTCHAR 30D1
ENCODING 11089
SWIDTH 2000 0
DWIDTH 20 0
BBX 17 13 2 1
BITMAP
000700
000480
000480
082300
0C3000
081000
081800
100800
100400
200400
600600
C00200
800000
ENDCHAR
STARTCHAR 30D2
ENCODING 11090
SWIDTH 2000 0
DWIDTH 20 0
BBX 12 13 4 0
BITMAP
C000
4000
4040
40C0
4700
7800
4000
4000
4000
4000
4000
4030
7FE0
ENDCHAR
STARTCHAR 30D3
ENCODING 11091
SWIDTH 2000 0
DWIDTH 20 0
BBX 14 15 3 0
BITMAP
0008
0024
8010
8000
80C0
8380
8E00
F000
8000
8000
8000
8000
8000
8060
7FC0
ENDCHAR
STARTCHAR 30D4
ENCODING 11092
SWIDTH 2000 0
DWIDTH 20 0
BBX 14 15 3 0
BITMAP
0038
0024
8028
8010
80C0
8380
8E00
F000
8000
8000
8000
8000
8000
8060
7FC0
ENDCHAR
STARTCHAR 30D5
ENCODING 11093
SWIDTH 2000 0
DWIDTH 20 0
BBX 14 13 3 -1
BITMAP
FFF8
000C
0008
0018
0010
0030
0020
0040
0080
0100
0600
0C00
1000
ENDCHAR
STARTCHAR 30D6
ENCODING 11094
SWIDTH 2000 0
DWIDTH 20 0
BBX 16 17 2 -1
BITMAP
0002
0001
0004
0004
FFF8
0008
0008
0010
0010
0020
0060
0040
0080
0100
0600
0C00
1000
ENDCHAR
STARTCHAR 30D7
ENCODING 11095
SWIDTH 2000 0
DWIDTH 20 0
BBX 16 16 2 -1
BITMAP
000F
0009
000E
FFF8
0008
0018
0010
0010
0020
0060
00C0
0080
0300
0600
1C00
1000
ENDCHAR
STARTCHAR 30D8
ENCODING 11096
SWIDTH 2000 0
DWIDTH 20 0
BBX 16 8 2 2
BITMAP
0600
1900
3080
6060
C030
800C
0006
0003
ENDCHAR
STARTCHAR 30D9
ENCODING 11097
SWIDTH 2000 0
DWIDTH 20 0
BBX 16 11 2 2
BITMAP
0008
0034
0010
0600
1900
3080
6060
C030
800C
0006
0003
ENDCHAR
STARTCHAR 30DA
ENCODING 11098
SWIDTH 2000 0
DWIDTH 20 0
BBX 16 11 2 2
BITMAP
0038
0028
0024
0618
0900
3080
6040
C030
8018
0006
0003
ENDCHAR
STARTCHAR 30DB
ENCODING 11099
SWIDTH 2000 0
DWIDTH 20 0
BBX 16 14 2 -1
BITMAP
0080
0080
0080
3FFF
0080
0080
0080
1088
3084
2086
6082
C083
0580
0700
ENDCHAR
STARTCHAR 30DC
ENCODING 11100
SWIDTH 2000 0
DWIDTH 20 0
BBX 16 16 2 -1
BITMAP
0002
0001
008C
0084
0080
3FFF
0080
0080
0080
1088
3084
2086
6082
C083
0580
0700
ENDCHAR
STARTCHAR 30DD
ENCODING 11101
SWIDTH 2000 0
DWIDTH 20 0
BBX 16 15 2 -1
BITMAP
000E
0089
008A
0084
3FFF
008F
0080
0080
1088
1084
2086
6082
C083
0580
0700
ENDCHAR
STARTCHAR 30DE
ENCODING 11102
SWIDTH 2000 0
DWIDTH 20 0
BBX 14 11 3 0
BITMAP
FFFC
000C
0008
0010
0020
1840
0C80
0700
0300
0100
0080
ENDCHAR
STARTCHAR 30DF
ENCODING 11103
SWIDTH 2000 0
DWIDTH 20 0
BBX 8 14 6 -1
BITMAP
70
1C
02
00
00
F0
1C
04
00
00
C0
38
06
01
ENDCHAR
STARTCHAR 30E0
ENCODING 11104
SWIDTH 2000 0
DWIDTH 20 0
BBX 15 13 3 0
BITMAP
0300
0200
0200
0600
0400
0C00
0800
1820
1010
3018
2008
FFF4
0006
ENDCHAR
STARTCHAR 30E1
ENCODING 11105
SWIDTH 2000 0
DWIDTH 20 0
BBX 12 14 4 -1
BITMAP
0010
0030
0020
0060
0C40
06C0
0380
0180
0340
0620
0C00
1800
6000
C000
ENDCHAR
STARTCHAR 30E2
ENCODING 11106
SWIDTH 2000 0
DWIDTH 20 0
BBX 15 12 2 0
BITMAP
3FF8
0200
0200
0200
0200
FFFE
0200
0200
0200
0200
0200
01FC
ENDCHAR
STARTCHAR 30E3
ENCODING 11107
SWIDTH 2000 0
DWIDTH 20 0
BBX 10 10 5 -2
BITMAP
2000
1000
17C0
F880
1080
0900
0800
0800
0800
0800
ENDCHAR
STARTCHAR 30E4
ENCODING 11108
SWIDTH 2000 0
DWIDTH 20 0
BBX 14 14 3 -1
BITMAP
0800
0800
0800
087C
3F84
E408
0410
0420
0400
0200
0200
0200
0200
0300
ENDCHAR
STARTCHAR 30E5
ENCODING 11109
SWIDTH 2000 0
DWIDTH 20 0
BBX 10 8 5 -2
BITMAP
7F00
0100
0100
0100
0100
0200
0200
FFC0
ENDCHAR
STARTCHAR 30E6
ENCODING 11110
SWIDTH 2000 0
DWIDTH 20 0
BBX 16 10 2 1
BITMAP
1FF0
0030
0020
0020
0020
0020
0020
0020
0020
FFFF
ENDCHAR
STARTCHAR 30E7
ENCODING 11111
SWIDTH 2000 0
DWIDTH 20 0
BBX 8 8 6 -2
BITMAP
FF
01
01
FF
01
01
01
FF
ENDCHAR
STARTCHAR 30E8
ENCODING 11112
SWIDTH 2000 0
DWIDTH 20 0
BBX 11 12 5 0
BITMAP
FFE0
0020
0020
0020
0020
FFE0
0020
0020
0020
0020
FFE0
0020
ENDCHAR
STARTCHAR 30E9
ENCODING 11113
SWIDTH 2000 0
DWIDTH 20 0
BBX 12 14 4 -1
BITMAP
7FC0
0000
0000
0000
FFF0
0010
0020
0060
0040
0080
0100
0200
0C00
1000
ENDCHAR
STARTCHAR 30EA
ENCODING 11114
SWIDTH 2000 0
DWIDTH 20 0
BBX 8 15 6 -1
BITMAP
81
81
81
81
81
81
81
81
83
02
02
04
0C
18
10
ENDCHAR
STARTCHAR 30EB
ENCODING 11115
SWIDTH 2000 0
DWIDTH 20 0
BBX 16 13 2 0
BITMAP
0080
1080
1880
1880
1880
1081
1081
1082
1084
2098
20B0
40C0
8000
ENDCHAR
STARTCHAR 30EC
ENCODING 11116
SWIDTH 2000 0
DWIDTH 20 0
BBX 12 13 4 0
BITMAP
8000
8000
8000
8000
8000
8010
8030
8060
8180
8300
8C00
B000
C000
ENDCHAR
STARTCHAR 30ED
ENCODING 11117
SWIDTH 2000 0
DWIDTH 20 0
BBX 10 11 5 0
BITMAP
FFC0
8040
8040
8040
8040
8040
8040
8040
8040
FFC0
8040
ENDCHAR
STARTCHAR 30EE
ENCODING 11118
SWIDTH 2000 0
DWIDTH 20 0
BBX 9 10 5 -2
BITMAP
FF80
8080
8080
8080
8100
0100
0300
0200
0C00
0800
ENDCHAR
STARTCHAR 30EF
ENCODING 11119
SWIDTH 2000 0
DWIDTH 20 0
BBX 13 13 4 -1
BITMAP
FFF8
8018
8018
8010
8010
8010
0010
0020
0020
0040
0080
0300
0200
ENDCHAR
STARTCHAR 30F0
ENCODING 11120
SWIDTH 2000 0
DWIDTH 20 0
BBX 16 16 2 -2
BITMAP
0020
0020
0020
0020
7FFE
1020
1020
1020
1020
1020
FFFF
0020
0020
0020
0020
0020
ENDCHAR
STARTCHAR 30F1
ENCODING 11121
SWIDTH 2000 0
DWIDTH 20 0
BBX 15 11 2 1
BITMAP
3FFC
000C
0018
0130
0140
0100
0100
0100
0100
0100
FFFE
ENDCHAR
STARTCHAR 30F2
ENCODING 11122
SWIDTH 2000 0
DWIDTH 20 0
BBX 12 14 4 -1
BITMAP
FFF0
0010
0030
0020
0020
FFE0
0040
0040
0080
0100
0200
0C00
1800
2000
ENDCHAR
STARTCHAR 30F3
ENCODING 11123
SWIDTH 2000 0
DWIDTH 20 0
BBX 14 13 3 0
BITMAP
C000
6000
3000
0000
0004
000C
0018
0020
00C0
0380
0600
3800
E000
ENDCHAR
STARTCHAR 30F4
ENCODING 11124
SWIDTH 2000 0
DWIDTH 20 0
BBX 15 17 2 -2
BITMAP
0002
000A
0204
0200
0200
FFF8
8008
8008
8010
8010
0010
0020
0060
0040
0180
0300
0400
ENDCHAR
STARTCHAR 30F5
ENCODING 11125
SWIDTH 2000 0
DWIDTH 20 0
BBX 10 10 5 -2
BITMAP
0400
0400
0800
7FC0
0840
0840
1040
1080
2080
C380
ENDCHAR
STARTCHAR 30F6
ENCODING 11126
SWIDTH 2000 0
DWIDTH 20 0
BBX 10 10 5 -2
BITMAP
1000
1000
2000
3FC0
4200
8200
0200
0400
0C00
1000
ENDCHAR
STARTCHAR 0410
ENCODING 11297
SWIDTH 2000 0
DWIDTH 20 0
BBX 12 14 4 0
BITMAP
0600
0600
0F00
0900
0900
1980
1080
10C0
3040
3FC0
2060
4020
4020
C030
ENDCHAR
STARTCHAR 0411
ENCODING 11298
SWIDTH 2000 0
DWIDTH 20 0
BBX 10 14 5 0
BITMAP
FF00
8000
8000
8000
8000
8000
FF00
8180
8080
80C0
80C0
8080
8180
FF00
ENDCHAR
STARTCHAR 0412
ENCODING 11299
SWIDTH 2000 0
DWIDTH 20 0
BBX 10 14 5 0
BITMAP
FF00
8180
8080
8080
8080
8180
FE00
8180
8040
8040
8040
8040
8180
FF00
ENDCHAR
STARTCHAR 0413
ENCODING 11300
SWIDTH 2000 0
DWIDTH 20 0
BBX 8 14 6 0
BITMAP
FF
80
80
80
80
80
80
80
80
80
80
80
80
80
ENDCHAR
STARTCHAR 0414
ENCODING 11301
SWIDTH 2000 0
DWIDTH 20 0
BBX 14 18 3 -4
BITMAP
1FF0
1010
1010
1010
1010
1010
1010
1010
1010
1010
1010
1010
2010
FFFC
8004
8004
8004
8004
ENDCHAR
STARTCHAR 0415
ENCODING 11302
SWIDTH 2000 0
DWIDTH 20 0
BBX 9 14 5 0
BITMAP
FF80
8000
8000
8000
8000
8000
FF00
8000
8000
8000
8000
8000
8000
FF80
ENDCHAR
STARTCHAR 0401
ENCODING 11303
SWIDTH 2000 0
DWIDTH 20 0
BBX 10 15 5 0
BITMAP
6300
6300
0000
FF80
8000
8000
8000
8000
FF00
8000
8000
8000
8000
8000
FFC0
ENDCHAR
STARTCHAR 0416
ENCODING 11304
SWIDTH 2000 0
DWIDTH 20 0
BBX 15 14 2 0
BITMAP
C106
3108
3118
1110
1110
1930
1FF0
610C
4104
4104
4104
4104
4106
C106
ENDCHAR
STARTCHAR 0417
ENCODING 11305
SWIDTH 2000 0
DWIDTH 20 0
BBX 11 14 4 0
BITMAP
1F80
70C0
4040
C060
0060
00C0
0780
00C0
0060
C020
4020
6020
3040
1F80
ENDCHAR
STARTCHAR 0418
ENCODING 11306
SWIDTH 2000 0
DWIDTH 20 0
BBX 10 14 5 0
BITMAP
80C0
80C0
8140
8340
8240
8440
8440
8840
9840
9040
A040
A040
C040
C040
ENDCHAR
STARTCHAR 0419
ENCODING 11307
SWIDTH 2000 0
DWIDTH 20 0
BBX 10 16 5 0
BITMAP
2100
3300
1E00
0000
80C0
81C0
8140
8240
8640
8440
8840
9040
9040
A040
C040
C040
ENDCHAR
STARTCHAR 041A
ENCODING 11308
SWIDTH 2000 0
DWIDTH 20 0
BBX 10 14 5 0
BITMAP
81C0
8300
8200
8200
8600
8C00
FE00
8100
8080
8080
8080
8080
8080
8080
ENDCHAR
STARTCHAR 041B
ENCODING 11309
SWIDTH 2000 0
DWIDTH 20 0
BBX 12 14 4 0
BITMAP
1FF0
1010
1010
1010
1010
1010
1010
1010
1010
1010
1010
3010
2010
C010
ENDCHAR
STARTCHAR 041C
ENCODING 11310
SWIDTH 2000 0
DWIDTH 20 0
BBX 14 14 3 0
BITMAP
C00C
E01C
A014
A014
B034
9024
9824
8844
8844
84C4
8484
8684
8304
8304
ENDCHAR
STARTCHAR 041D
ENCODING 11311
SWIDTH 2000 0
DWIDTH 20 0
BBX 10 14 5 0
BITMAP
8040
8040
8040
8040
8040
8040
FFC0
8040
8040
8040
8040
8040
8040
8040
ENDCHAR
STARTCHAR 041E
ENCODING 11312
SWIDTH 2000 0
DWIDTH 20 0
BBX 12 14 4 0
BITMAP
1F80
30C0
4020
4020
8010
8010
8010
8010
8010
8010
4020
4020
30C0
1F80
ENDCHAR
STARTCHAR 041F
ENCODING 11313
SWIDTH 2000 0
DWIDTH 20 0
BBX 10 14 5 0
BITMAP
FFC0
8040
8040
8040
8040
8040
8040
8040
8040
8040
8040
8040
8040
8040
ENDCHAR
STARTCHAR 0420
ENCODING 11314
SWIDTH 2000 0
DWIDTH 20 0
BBX 10 14 5 0
BITMAP
FF00
8080
8040
8040
8040
80C0
8380
FF00
8000
8000
8000
8000
8000
8000
ENDCHAR
STARTCHAR 0421
ENCODING 11315
SWIDTH 2000 0
DWIDTH 20 0
BBX 12 15 4 0
BITMAP
0600
1FC0
6060
4020
C030
8000
8000
8000
8000
8000
8010
4010
6020
3060
1F80
ENDCHAR
STARTCHAR 0422
ENCODING 11316
SWIDTH 2000 0
DWIDTH 20 0
BBX 11 14 5 0
BITMAP
FFE0
0400
0400
0400
0400
0400
0400
0400
0400
0400
0400
0400
0400
0400
ENDCHAR
STARTCHAR 0423
ENCODING 11317
SWIDTH 2000 0
DWIDTH 20 0
BBX 10 14 5 0
BITMAP
8040
8040
4080
4080
6100
2100
3300
1200
1E00
0C00
0C00
0800
1800
7000
ENDCHAR
STARTCHAR 0424
ENCODING 11318
SWIDTH 2000 0
DWIDTH 20 0
BBX 14 14 3 0
BITMAP
0200
1FC0
2230
4208
8208
8204
8204
8204
8204
4208
6218
3FE0
0200
0200
ENDCHAR
STARTCHAR 0425
ENCODING 11319
SWIDTH 2000 0
DWIDTH 20 0
BBX 10 14 5 0
BITMAP
80C0
4080
6180
3300
1200
1E00
0C00
0C00
1E00
3200
2100
6180
C0C0
8040
ENDCHAR
STARTCHAR 0426
ENCODING 11320
SWIDTH 2000 0
DWIDTH 20 0
BBX 12 18 4 -4
BITMAP
8040
8040
8040
8040
8040
8040
8040
8040
8040
8040
8040
8040
8040
FFF0
0010
0010
0010
0010
ENDCHAR
STARTCHAR 0427
ENCODING 11321
SWIDTH 2000 0
DWIDTH 20 0
BBX 9 14 5 0
BITMAP
C080
C080
C080
C080
C080
C080
C080
4180
3E80
0080
0080
0080
0080
0080
ENDCHAR
STARTCHAR 0428
ENCODING 11322
SWIDTH 2000 0
DWIDTH 20 0
BBX 12 14 4 0
BITMAP
8410
8410
8410
8410
8410
8410
8410
8410
8410
8410
8410
8410
8410
FFF0
ENDCHAR
STARTCHAR 0429
ENCODING 11323
SWIDTH 2000 0
DWIDTH 20 0
BBX 14 18 3 -4
BITMAP
8208
8208
8208
8208
8208
8208
8208
8208
8208
8208
8208
8208
8208
FFFC
0004
0004
0004
0004
ENDCHAR
STARTCHAR 042A
ENCODING 11324
SWIDTH 2000 0
DWIDTH 20 0
BBX 13 14 4 0
BITMAP
F000
1000
1000
1000
1000
1000
1FC0
1030
1010
1018
1018
1010
1030
1FE0
ENDCHAR
STARTCHAR 042B
ENCODING 11325
SWIDTH 2000 0
DWIDTH 20 0
BBX 12 14 4 0
BITMAP
8010
8010
8010
8010
8010
8010
FC10
8210
8110
8110
8110
8110
8610
FC10
ENDCHAR
STARTCHAR 042C
ENCODING 11326
SWIDTH 2000 0
DWIDTH 20 0
BBX 9 14 5 0
BITMAP
8000
8000
8000
8000
8000
8000
FE00
8180
8080
8080
8080
8080
8380
FF00
ENDCHAR
STARTCHAR 042D
ENCODING 11327
SWIDTH 2000 0
DWIDTH 20 0
BBX 12 14 4 0
BITMAP
0F00
31C0
4060
8030
8010
0010
0010
07F0
0010
0010
8010
C020
60C0
1F80
ENDCHAR
STARTCHAR 042E
ENCODING 11328
SWIDTH 2000 0
DWIDTH 20 0
BBX 16 14 2 0
BITMAP
81F0
820C
8402
8C02
8801
8801
F801
8801
8801
8801
8802
8402
8604
81F8
ENDCHAR
STARTCHAR 042F
ENCODING 11329
SWIDTH 2000 0
DWIDTH 20 0
BBX 10 14 5 0
BITMAP
3FC0
4040
8040
8040
8040
C040
7FC0
7FC0
4040
C040
C040
C040
8040
8040
ENDCHAR
STARTCHAR 0430
ENCODING 11345
SWIDTH 2000 0
DWIDTH 20 0
BBX 9 11 5 -1
BITMAP
3E00
4300
4100
0100
0300
3D00
C100
8300
8300
FD00
3980
ENDCHAR
STARTCHAR 0431
ENCODING 11346
SWIDTH 2000 0
DWIDTH 20 0
BBX 9 15 6 0
BITMAP
1000
7F80
4000
8000
8000
9C00
BF00
C100
C080
8080
8080
8080
C100
4100
3E00
ENDCHAR
STARTCHAR 0432
ENCODING 11347
SWIDTH 2000 0
DWIDTH 20 0
BBX 7 10 6 0
BITMAP
FC
86
82
86
FC
82
82
82
82
FC
ENDCHAR
STARTCHAR 0433
ENCODING 11348
SWIDTH 2000 0
DWIDTH 20 0
BBX 6 10 7 0
BITMAP
FC
80
80
80
80
80
80
80
80
80
ENDCHAR
STARTCHAR 0434
ENCODING 11349
SWIDTH 2000 0
DWIDTH 20 0
BBX 10 14 5 -4
BITMAP
3F80
2080
2080
2080
2080
2080
2080
2080
4080
FFC0
8040
8040
8040
8040
ENDCHAR
STARTCHAR 0435
ENCODING 11350
SWIDTH 2000 0
DWIDTH 20 0
BBX 9 10 5 0
BITMAP
3E00
4100
4080
8080
FF80
8000
8000
C180
6100
3E00
ENDCHAR
STARTCHAR 0451
ENCODING 11351
SWIDTH 2000 0
DWIDTH 20 0
BBX 9 13 5 0
BITMAP
1200
1200
0C00
3300
4100
8080
8080
FF80
8000
8000
C180
6100
3E00
ENDCHAR
STARTCHAR 0436
ENCODING 11352
SWIDTH 2000 0
DWIDTH 20 0
BBX 11 10 4 0
BITMAP
C460
6440
2480
2480
1F00
64C0
4440
C460
8460
8420
ENDCHAR
STARTCHAR 0437
ENCODING 11353
SWIDTH 2000 0
DWIDTH 20 0
BBX 8 11 6 0
BITMAP
3C
42
81
01
02
1E
01
81
81
63
1C
ENDCHAR
STARTCHAR 0438
ENCODING 11354
SWIDTH 2000 0
DWIDTH 20 0
BBX 8 10 6 0
BITMAP
83
83
87
8D
89
91
B1
A1
C1
C1
ENDCHAR
STARTCHAR 0439
ENCODING 11355
SWIDTH 2000 0
DWIDTH 20 0
BBX 8 14 6 0
BITMAP
42
66
18
00
83
83
85
8D
89
91
B1
E1
C1
C1
ENDCHAR
STARTCHAR 043A
ENCODING 11356
SWIDTH 2000 0
DWIDTH 20 0
BBX 7 10 7 0
BITMAP
86
8C
88
98
F0
8C
84
84
84
86
ENDCHAR
STARTCHAR 043B
ENCODING 11357
SWIDTH 2000 0
DWIDTH 20 0
BBX 9 10 5 0
BITMAP
3F80
2080
2080
2080
2080
2080
2080
2080
2080
C080
ENDCHAR
STARTCHAR 043C
ENCODING 11358
SWIDTH 2000 0
DWIDTH 20 0
BBX 10 10 5 0
BITMAP
C0C0
C0C0
E1C0
A140
B140
9240
9240
8E40
8C40
8C40
ENDCHAR
STARTCHAR 043D
ENCODING 11359
SWIDTH 2000 0
DWIDTH 20 0
BBX 8 10 6 0
BITMAP
81
81
81
81
FF
81
81
81
81
81
ENDCHAR
STARTCHAR 043E
ENCODING 11360
SWIDTH 2000 0
DWIDTH 20 0
BBX 10 11 5 0
BITMAP
1C00
7300
4080
8040
8040
8040
8040
8040
4080
6180
1F00
ENDCHAR
STARTCHAR 043F
ENCODING 11361
SWIDTH 2000 0
DWIDTH 20 0
BBX 8 10 6 0
BITMAP
FF
81
81
81
81
81
81
81
81
81
ENDCHAR
STARTCHAR 0440
ENCODING 11362
SWIDTH 2000 0
DWIDTH 20 0
BBX 9 15 6 -4
BITMAP
9C00
E300
C100
8080
8080
8080
8080
8080
C100
E300
BE00
8000
8000
8000
8000
ENDCHAR
STARTCHAR 0441
ENCODING 11363
SWIDTH 2000 0
DWIDTH 20 0
BBX 9 11 6 -1
BITMAP
3E00
6300
4100
8000
8000
8000
8000
8080
4100
6300
1C00
ENDCHAR
STARTCHAR 0442
ENCODING 11364
SWIDTH 2000 0
DWIDTH 20 0
BBX 8 10 6 0
BITMAP
FF
10
10
10
10
10
10
10
10
10
ENDCHAR
STARTCHAR 0443
ENCODING 11365
SWIDTH 2000 0
DWIDTH 20 0
BBX 8 14 6 -4
BITMAP
81
81
C1
42
42
26
24
24
18
18
08
10
10
60
ENDCHAR
STARTCHAR 0444
ENCODING 11366
SWIDTH 2000 0
DWIDTH 20 0
BBX 15 18 2 -4
BITMAP
0100
0100
0100
0100
3F78
6184
4102
4102
C102
C102
C102
4182
6184
3F7C
0930
0100
0100
0100
ENDCHAR
STARTCHAR 0445
ENCODING 11367
SWIDTH 2000 0
DWIDTH 20 0
BBX 8 10 6 0
BITMAP
81
42
24
3C
18
18
24
66
42
81
ENDCHAR
STARTCHAR 0446
ENCODING 11368
SWIDTH 2000 0
DWIDTH 20 0
BBX 8 14 6 -4
BITMAP
82
82
82
82
82
82
82
82
82
FF
01
01
01
01
ENDCHAR
STARTCHAR 0447
ENCODING 11369
SWIDTH 2000 0
DWIDTH 20 0
BBX 7 10 6 0
BITMAP
82
82
82
82
C2
7E
02
02
02
02
ENDCHAR
STARTCHAR 0448
ENCODING 11370
SWIDTH 2000 0
DWIDTH 20 0
BBX 10 10 5 0
BITMAP
8440
8440
8440
8440
8440
8440
8440
8440
8440
FFC0
ENDCHAR
STARTCHAR 0449
ENCODING 11371
SWIDTH 2000 0
DWIDTH 20 0
BBX 12 14 4 -4
BITMAP
8420
8420
8420
8420
8420
8420
8420
8420
8420
FFF0
0010
0010
0010
0010
ENDCHAR
STARTCHAR 044A
ENCODING 11372
SWIDTH 2000 0
DWIDTH 20 0
BBX 10 10 5 0
BITMAP
F000
1000
1000
1000
1F80
1040
1040
1040
10C0
1F80
ENDCHAR
STARTCHAR 044B
ENCODING 11373
SWIDTH 2000 0
DWIDTH 20 0
BBX 10 10 5 0
BITMAP
8040
8040
8040
8040
F840
8440
8440
8440
8440
F840
ENDCHAR
STARTCHAR 044C
ENCODING 11374
SWIDTH 2000 0
DWIDTH 20 0
BBX 7 10 6 0
BITMAP
80
80
80
80
FC
86
82
82
82
FC
ENDCHAR
STARTCHAR 044D
ENCODING 11375
SWIDTH 2000 0
DWIDTH 20 0
BBX 8 11 6 0
BITMAP
3C
C6
83
01
01
3F
01
01
82
C6
3C
ENDCHAR
STARTCHAR 044E
ENCODING 11376
SWIDTH 2000 0
DWIDTH 20 0
BBX 12 11 4 0
BITMAP
8000
87C0
8820
9810
9010
F010
9010
9010
8820
8820
87C0
ENDCHAR
STARTCHAR 044F
ENCODING 11377
SWIDTH 2000 0
DWIDTH 20 0
BBX 7 10 6 0
BITMAP
7E
42
82
C2
42
7E
42
C2
C2
82
ENDCHAR
STARTCHAR AC00
ENCODING 12321
SWIDTH 2000 0
DWIDTH 20 0
BBX 18 18 1 -3
BITMAP
000200
000200
7F8200
008200
008200
008200
018200
010200
010200
0203C0
060200
0C0200
180200
300200
E00200
000200
000200
000200
ENDCHAR
STARTCHAR AC01
ENCODING 12322
SWIDTH 2000 0
DWIDTH 20 0
BBX 18 19 1 -4
BITMAP
000200
7F8200
008200
008200
018200
010200
0303C0
060200
0C0200
380200
E00200
000000
3FFE00
000200
000200
000200
000200
000200
000200
ENDCHAR
STARTCHAR AC04
ENCODING 12323
SWIDTH 2000 0
DWIDTH 20 0
BBX 18 18 1 -3
BITMAP
000200
7F8200
008200
008200
010200
010200
020200
0603C0
0C0200
300200
C00200
000200
000200
200200
200000
200000
200000
3FFE00
ENDCHAR
STARTCHAR AC07
ENCODING 12324
SWIDTH 2000 0
DWIDTH 20 0
BBX 18 18 1 -3
BITMAP
000200
7F8200
008200
008200
010200
030200
0603C0
0C0200
300200
C00200
000200
000000
3FFC00
200000
200000
200000
200000
3FFE00
ENDCHAR
STARTCHAR AC08
ENCODING 12325
SWIDTH 2000 0
DWIDTH 20 0
BBX 17 18 2 -3
BITMAP
000400
FF0400
010400
030400
020400
060780
0C0400
180400
E00400
800400
000000
7FFC00
000400
000400
7FFC00
400000
400000
7FFC00
ENDCHAR
STARTCHAR AC09
ENCODING 12326
SWIDTH 2000 0
DWIDTH 20 0
BBX 17 19 2 -4
BITMAP
000400
FF0400
010400
010400
020400
060780
0C0400
300400
E00400
000000
000000
7EFC00
020400
020400
7E0400
400400
400400
7E0400
000400
ENDCHAR
STARTCHAR AC0A
ENCODING 12327
SWIDTH 2000 0
DWIDTH 20 0
BBX 17 18 2 -3
BITMAP
000400
FF0400
010400
010400
020400
060780
0C0400
180400
E00400
800400
000000
7EFC00
028400
028400
7E8400
408400
40FC00
7E8400
ENDCHAR
STARTCHAR AC10
ENCODING 12328
SWIDTH 2000 0
DWIDTH 20 0
BBX 18 19 1 -4
BITMAP
000200
7F8200
008200
008200
010200
030200
0603C0
0C0200
380200
E00200
000200
000000
3FFE00
200200
200200
200200
200200
3FFE00
200200
ENDCHAR
STARTCHAR AC11
ENCODING 12329
SWIDTH 2000 0
DWIDTH 20 0
BBX 18 19 1 -4
BITMAP
000200
7F8200
008200
008200
010200
030200
0603C0
0C0200
380200
E00200
000000
200200
200200
3FFE00
200200
200200
200200
3FFE00
200200
ENDCHAR
STARTCHAR AC12
ENCODING 12330
SWIDTH 2000 0
DWIDTH 20 0
BBX 17 18 2 -3
BITMAP
000400
FF0400
010400
030400
020400
060400
0C0780
180400
E00400
800400
000000
420800
420800
7E1800
421400
423400
7E6200
42C100
ENDCHAR
STARTCHAR AC13
ENCODING 12331
SWIDTH 2000 0
DWIDTH 20 0
BBX 18 18 1 -3
BITMAP
000200
7F8200
008200
008200
008200
010200
0303C0
060200
0C0200
380200
E04200
004200
006000
00A000
019800
030C00
0C0380
180000
ENDCHAR
STARTCHAR AC14
ENCODING 12332
SWIDTH 2000 0
DWIDTH 20 0
BBX 18 19 1 -4
BITMAP
000200
7F8200
008200
008200
018200
010200
0203C0
060200
180200
700200
C00000
000600
020400
060600
060E00
0F0B00
199180
30E0C0
600000
ENDCHAR
STARTCHAR AC15
ENCODING 12333
SWIDTH 2000 0
DWIDTH 20 0
BBX 18 18 1 -3
BITMAP
000200
7F8200
008200
008200
018200
010200
0203C0
060200
180200
700200
C00200
03E000
1C1C00
200200
200200
200200
180C00
07F800
ENDCHAR
STARTCHAR AC16
ENCODING 12334
SWIDTH 2000 0
DWIDTH 20 0
BBX 18 19 1 -4
BITMAP
000200
7F8200
008200
008200
010200
030200
0603C0
0C0200
300200
C00200
000000
3FFE00
008000
008000
01C000
036000
063800
3C0E00
300600
ENDCHAR
STARTCHAR AC17
ENCODING 12335
SWIDTH 2000 0
DWIDTH 20 0
BBX 18 19 1 -4
BITMAP
000200
7F8200
008200
010200
010200
020200
0403C0
180200
F00200
03F000
000000
000000
1FFE00
00C000
00C000
012000
021000
0C0C00
100200
ENDCHAR
STARTCHAR AC19
ENCODING 12336
SWIDTH 2000 0
DWIDTH 20 0
BBX 18 18 1 -3
BITMAP
000200
7F8200
008200
008200
018200
030200
0603C0
0C0200
700200
C00200
000000
3FFE00
200000
200000
3FFC00
200000
200000
3FFE00
ENDCHAR
STARTCHAR AC1A
ENCODING 12337
SWIDTH 2000 0
DWIDTH 20 0
BBX 18 18 1 -3
BITMAP
000200
7FC200
008200
008200
018200
010200
0603C0
0C0200
300200
C00200
000000
3FFE00
000000
041000
041000
041000
041000
7FFF00
ENDCHAR
STARTCHAR AC1B
ENCODING 12338
SWIDTH 2000 0
DWIDTH 20 0
BBX 18 18 1 -3
BITMAP
000200
7F8200
008200
018200
010200
0303C0
060200
0C0200
300200
C00200
01F000
000000
1FFF00
07F800
180600
100200
180600
07F800
ENDCHAR
STARTCHAR AC1C
ENCODING 12339
SWIDTH 2000 0
DWIDTH 20 0
BBX 16 18 2 -3
BITMAP
0001
0011
7F11
0311
0311
0211
0211
0211
0611
041F
0C11
0811
1011
6011
C011
0011
0011
0011
ENDCHAR
STARTCHAR AC1D
ENCODING 12340
SWIDTH 2000 0
DWIDTH 20 0
BBX 16 19 2 -4
BITMAP
0021
7F21
0221
0221
0221
0621
043F
0821
3021
E021
0021
0000
1FFF
0001
0001
0001
0001
0001
0001
ENDCHAR
STARTCHAR AC20
ENCODING 12341
SWIDTH 2000 0
DWIDTH 20 0
BBX 16 18 2 -3
BITMAP
0021
7F21
0321
0321
0221
0221
0421
0C3F
1821
3021
E021
0021
0021
1001
1000
1000
1000
1FFF
ENDCHAR
STARTCHAR AC24
ENCODING 12342
SWIDTH 2000 0
DWIDTH 20 0
BBX 16 18 3 -3
BITMAP
0002
FE42
0242
0242
0442
0442
087E
1842
6042
C042
0002
3FFE
0002
0002
3FFE
2000
2000
3FFF
ENDCHAR
STARTCHAR AC2C
ENCODING 12343
SWIDTH 2000 0
DWIDTH 20 0
BBX 16 19 2 -4
BITMAP
0001
7F21
0321
0221
0221
0621
043F
0821
1021
6021
C021
0000
3FFF
2001
2001
2001
2001
3FFF
2001
ENDCHAR
STARTCHAR AC2D
ENCODING 12344
SWIDTH 2000 0
DWIDTH 20 0
BBX 16 19 2 -4
BITMAP
0001
7F21
0321
0221
0221
0621
0C3F
1821
3021
C021
0021
1001
1001
1FFF
1001
1001
1001
1FFF
1001
ENDCHAR
STARTCHAR AC2F
ENCODING 12345
SWIDTH 2000 0
DWIDTH 20 0
BBX 17 18 1 -3
BITMAP
001100
7F1100
011100
011100
031100
021100
061F00
041100
081100
301100
E01100
002100
006000
007000
009800
010C00
060380
180080
ENDCHAR
STARTCHAR AC30
ENCODING 12346
SWIDTH 2000 0
DWIDTH 20 0
BBX 16 19 2 -4
BITMAP
0022
FE22
0222
0222
0422
0422
083E
1822
3022
E022
8000
0200
0204
0604
060C
0B0C
1112
6021
0040
ENDCHAR
STARTCHAR AC31
ENCODING 12347
SWIDTH 2000 0
DWIDTH 20 0
BBX 16 18 2 -3
BITMAP
0021
7E21
0221
0221
0221
0421
043F
0821
1021
2021
C021
0000
0FFC
1006
2001
2001
1806
0FFC
ENDCHAR
STARTCHAR AC38
ENCODING 12348
SWIDTH 2000 0
DWIDTH 20 0
BBX 18 19 1 -4
BITMAP
000200
000200
7F8200
008200
008200
008200
0083C0
010200
010200
030200
060200
0C03C0
180200
300200
C00200
000200
000200
000200
000200
ENDCHAR
STARTCHAR AC39
ENCODING 12349
SWIDTH 2000 0
DWIDTH 20 0
BBX 18 19 1 -4
BITMAP
000200
7F8200
008200
008200
0103C0
030200
020200
0C0200
3803C0
E00200
000200
000000
3FFE00
000200
000200
000200
000200
000200
000200
ENDCHAR
STARTCHAR AC3C
ENCODING 12350
SWIDTH 2000 0
DWIDTH 20 0
BBX 18 18 1 -3
BITMAP
000200
7F8200
008200
008200
0103C0
010200
020200
060200
080200
3003C0
C00200
000200
000200
200200
200000
200000
200000
3FFE00
ENDCHAR
STARTCHAR AC40
ENCODING 12351
SWIDTH 2000 0
DWIDTH 20 0
BBX 18 18 1 -3
BITMAP
000200
7F8200
008200
018200
0103C0
030200
060200
180200
F003C0
000200
000200
3FFE00
000200
000200
3FFE00
200000
200000
3FFE00
ENDCHAR
STARTCHAR AC4B
ENCODING 12352
SWIDTH 2000 0
DWIDTH 20 0
BBX 18 19 1 -4
BITMAP
000200
7F8200
008200
008200
0103C0
010200
030200
060200
0C03C0
300200
E00200
000200
006200
006000
00F000
009800
030C00
060300
180000
ENDCHAR
STARTCHAR AC4D
ENCODING 12353
SWIDTH 2000 0
DWIDTH 20 0
BBX 18 18 1 -3
BITMAP
000200
7F8200
008200
008200
0103C0
010200
020200
060200
0C03C0
300200
C00200
07F800
180C00
200200
200200
200200
180C00
07F000
ENDCHAR
STARTCHAR AC54
ENCODING 12354
SWIDTH 2000 0
DWIDTH 20 0
BBX 16 19 2 -4
BITMAP
0011
0011
FF11
0311
0311
0211
021F
0211
0611
0411
0811
181F
3011
6011
8011
0011
0011
0011
0001
ENDCHAR
STARTCHAR AC58
ENCODING 12355
SWIDTH 2000 0
DWIDTH 20 0
BBX 16 18 3 -3
BITMAP
0002
FE42
0642
0442
0442
047E
0842
1842
3042
607E
C042
0042
0042
2042
2000
2000
2000
3FFF
ENDCHAR
STARTCHAR AC5C
ENCODING 12356
SWIDTH 2000 0
DWIDTH 20 0
BBX 17 18 2 -3
BITMAP
000100
7F2100
032100
022100
023F00
062100
042100
083F00
302100
C02100
000000
1FFF00
000100
000100
1FFF00
100000
100000
1FFF80
ENDCHAR
STARTCHAR AC70
ENCODING 12357
SWIDTH 2000 0
DWIDTH 20 0
BBX 16 19 2 -4
BITMAP
0001
0001
7F81
0081
0081
0081
0081
0181
013F
0301
0201
0401
0C01
1001
6001
C001
0001
0001
0001
ENDCHAR
STARTCHAR AC71
ENCODING 12358
SWIDTH 2000 0
DWIDTH 20 0
BBX 16 19 2 -4
BITMAP
0001
7F81
0081
0081
0181
011F
0201
0401
1801
E001
0001
0000
1FFF
0001
0001
0001
0001
0001
0001
ENDCHAR
STARTCHAR AC74
ENCODING 12359
SWIDTH 2000 0
DWIDTH 20 0
BBX 16 18 2 -3
BITMAP
0001
7F81
0081
0081
0181
0101
031F
0601
0C01
7001
C001
0001
0001
1001
1000
1000
1000
1FFF
ENDCHAR
STARTCHAR AC77
ENCODING 12360
SWIDTH 2000 0
DWIDTH 20 0
BBX 16 18 2 -3
BITMAP
0001
7F81
0181
0101
0101
031F
0601
0C01
1801
E001
0001
0000
1FFF
1000
1000
1000
1000
1FFF
ENDCHAR
STARTCHAR AC78
ENCODING 12361
SWIDTH 2000 0
DWIDTH 20 0
BBX 15 18 3 -3
BITMAP
0002
FF02
0102
0102
0202
063E
0C02
1802
E002
8002
0000
3FFE
0002
0002
3FFE
2000
2000
3FFE
ENDCHAR
STARTCHAR AC7A
ENCODING 12362
SWIDTH 2000 0
DWIDTH 20 0
BBX 16 19 2 -4
BITMAP
0001
7F81
0081
0181
0101
031F
0601
0C01
3001
C001
0000
3F3F
0121
0121
3F21
2021
2021
3FBF
0020
ENDCHAR
STARTCHAR AC80
ENCODING 12363
SWIDTH 2000 0
DWIDTH 20 0
BBX 15 19 3 -4
BITMAP
0002
FF02
0102
0102
0202
023E
0402
0802
3002
E002
8002
0000
3FFE
2002
2002
2002
2002
3FFE
2002
ENDCHAR
STARTCHAR AC81
ENCODING 12364
SWIDTH 2000 0
DWIDTH 20 0
BBX 16 19 2 -4
BITMAP
0001
7F81
0081
0081
0181
0101
031F
0601
1801
E001
0001
1001
1001
1FFF
1001
1001
1001
1FFF
1001
ENDCHAR
STARTCHAR AC83
ENCODING 12365
SWIDTH 2000 0
DWIDTH 20 0
BBX 16 19 2 -4
BITMAP
0002
FF82
0182
0102
0102
033E
0202
0402
1802
7002
C002
0002
0040
00C0
00A0
0130
0318
0C07
1001
ENDCHAR
STARTCHAR AC84
ENCODING 12366
SWIDTH 2000 0
DWIDTH 20 0
BBX 17 18 2 -3
BITMAP
000200
FF0200
010200
010200
030200
023E00
060200
0C0200
180200
600200
C00000
040400
040C00
0C0C00
1A0C00
131200
613300
406180
ENDCHAR
STARTCHAR AC85
ENCODING 12367
SWIDTH 2000 0
DWIDTH 20 0
BBX 16 18 2 -3
BITMAP
0001
7F81
0081
0081
0181
013F
0201
0601
1801
7001
8000
07F8
1806
2001
2001
2001
1806
07F8
ENDCHAR
STARTCHAR AC86
ENCODING 12368
SWIDTH 2000 0
DWIDTH 20 0
BBX 15 19 2 -4
BITMAP
0002
7F82
0082
0182
0102
033E
0602
0C02
3002
C002
0000
3FFE
0080
0180
01C0
0360
0E38
380E
6002
ENDCHAR
STARTCHAR AC89
ENCODING 12369
SWIDTH 2000 0
DWIDTH 20 0
BBX 16 18 2 -3
BITMAP
0001
7F81
0081
0081
019F
0101
0201
0C01
3801
E000
0000
1FFF
1000
1000
1FFF
1000
1000
1FFF
ENDCHAR
STARTCHAR AC8A
ENCODING 12370
SWIDTH 2000 0
DWIDTH 20 0
BBX 16 18 2 -3
BITMAP
0002
7F82
0082
0182
0102
033E
0602
1802
7002
8002
0000
3FFE
0000
0210
0210
0210
0210
3FFF
ENDCHAR
STARTCHAR AC8B
ENCODING 12371
SWIDTH 2000 0
DWIDTH 20 0
BBX 15 18 3 -3
BITMAP
0002
FF02
0102
0202
0202
063E
0C02
1802
3002
C002
07E0
0000
7FFE
0000
1FFC
2002
3006
1FFC
ENDCHAR
STARTCHAR AC8C
ENCODING 12372
SWIDTH 2000 0
DWIDTH 20 0
BBX 16 19 2 -3
BITMAP
0001
0011
FE11
0211
0211
0211
0211
0611
05F1
0411
0811
1811
3011
6011
C011
8011
0011
0011
0001
ENDCHAR
STARTCHAR AC90
ENCODING 12373
SWIDTH 2000 0
DWIDTH 20 0
BBX 17 18 2 -3
BITMAP
001100
7F1100
031100
031100
021100
021100
041100
0DF100
181100
301100
C01100
001100
001100
100100
100000
100000
100000
1FFF80
ENDCHAR
STARTCHAR AC94
ENCODING 12374
SWIDTH 2000 0
DWIDTH 20 0
BBX 16 18 3 -3
BITMAP
0002
FE22
0622
0422
0422
0C22
09E2
1022
6022
C022
0000
3FFE
0002
0002
3FFE
2000
2000
3FFF
ENDCHAR
STARTCHAR AC9C
ENCODING 12375
SWIDTH 2000 0
DWIDTH 20 0
BBX 16 19 2 -4
BITMAP
0001
7F11
0311
0211
0211
0611
04F1
0811
3011
E011
0011
0000
1FFF
1001
1001
1001
1001
1FFF
1001
ENDCHAR
STARTCHAR AC9D
ENCODING 12376
SWIDTH 2000 0
DWIDTH 20 0
BBX 16 19 2 -4
BITMAP
0011
7F11
0311
0211
0211
06F1
0411
0811
1011
6011
C000
1001
1001
1FFF
1001
1001
1001
1FFF
1001
ENDCHAR
STARTCHAR AC9F
ENCODING 12377
SWIDTH 2000 0
DWIDTH 20 0
BBX 16 19 2 -4
BITMAP
0022
FE22
0222
0222
0222
0622
05E2
0C22
1822
3022
C022
8002
0002
0040
00C0
00A0
0318
0E06
1801
ENDCHAR
STARTCHAR ACA0
ENCODING 12378
SWIDTH 2000 0
DWIDTH 20 0
BBX 17 19 1 -4
BITMAP
000080
7F0880
010880
010880
020880
027880
060880
040880
180880
300880
C00080
020000
020200
020600
050600
0D8600
188900
301080
002000
ENDCHAR
STARTCHAR ACA1
ENCODING 12379
SWIDTH 2000 0
DWIDTH 20 0
BBX 16 18 2 -3
BITMAP
0001
7F11
0111
0311
0211
0211
04F1
0C11
1811
6011
C011
0001
0FF8
1806
2001
2001
1806
07F8
ENDCHAR
STARTCHAR ACA8
ENCODING 12380
SWIDTH 2000 0
DWIDTH 20 0
BBX 16 19 2 -4
BITMAP
0001
0001
7FC1
00C1
0081
0081
009F
0181
0101
0301
0201
061F
0C01
1801
6001
C001
0001
0001
0001
ENDCHAR
STARTCHAR ACA9
ENCODING 12381
SWIDTH 2000 0
DWIDTH 20 0
BBX 16 18 2 -3
BITMAP
0001
FF81
0081
0181
013F
0301
0601
0C01
303F
C001
0001
0000
1FFF
0001
0001
0001
0001
0001
ENDCHAR
STARTCHAR ACAA
ENCODING 12382
SWIDTH 2000 0
DWIDTH 20 0
BBX 16 18 2 -3
BITMAP
0001
7F81
0081
019F
0101
0301
0601
0C1F
3801
E001
0000
3F3F
0101
0101
0101
0101
0101
0101
ENDCHAR
STARTCHAR ACAC
ENCODING 12383
SWIDTH 2000 0
DWIDTH 20 0
BBX 16 18 2 -3
BITMAP
0001
7F81
0081
0081
019F
0101
0301
0601
0C01
301F
E001
0001
0001
1001
1001
1000
1000
1FFF
ENDCHAR
STARTCHAR ACAF
ENCODING 12384
SWIDTH 2000 0
DWIDTH 20 0
BBX 16 18 2 -3
BITMAP
0001
7F81
0081
0081
011F
0101
0201
041F
1801
3001
C001
0000
1FFF
1000
1000
1000
1000
1FFF
ENDCHAR
STARTCHAR ACB0
ENCODING 12385
SWIDTH 2000 0
DWIDTH 20 0
BBX 15 18 3 -3
BITMAP
0002
FF02
0102
013E
0202
0602
0C02
183E
6002
8002
0000
3FFE
0002
0002
3FFE
2000
2000
3FFE
ENDCHAR
STARTCHAR ACB8
ENCODING 12386
SWIDTH 2000 0
DWIDTH 20 0
BBX 16 19 2 -4
BITMAP
0001
7F81
0081
0081
019F
0101
0201
0401
181F
E001
0001
0000
1FFF
1001
1001
1001
1001
1FFF
1001
ENDCHAR
STARTCHAR ACB9
ENCODING 12387
SWIDTH 2000 0
DWIDTH 20 0
BBX 16 19 2 -4
BITMAP
0001
7FC1
0081
0081
019F
0101
0201
041F
1801
E001
0000
1001
1001
1FFF
1001
1001
1001
1FFF
1001
ENDCHAR
STARTCHAR ACBB
ENCODING 12388
SWIDTH 2000 0
DWIDTH 20 0
BBX 16 18 2 -3
BITMAP
0002
7F82
0182
0102
013E
0302
0202
0402
183E
7002
C002
0042
00C2
00C0
0120
0218
0C0E
1001
ENDCHAR
STARTCHAR ACBC
ENCODING 12389
SWIDTH 2000 0
DWIDTH 20 0
BBX 17 18 1 -3
BITMAP
000100
7F8100
008100
008100
019F00
010100
030100
060100
0C0F00
180100
E00000
020400
020600
060600
050A00
099900
10B080
602000
ENDCHAR
STARTCHAR ACBD
ENCODING 12390
SWIDTH 2000 0
DWIDTH 20 0
BBX 16 18 2 -3
BITMAP
0001
7F81
0081
0081
019F
0101
0301
0601
0C1F
3001
E001
0001
0FFC
1803
1001
1001
1803
0FFC
ENDCHAR
STARTCHAR ACC1
ENCODING 12391
SWIDTH 2000 0
DWIDTH 20 0
BBX 15 18 3 -3
BITMAP
0002
FF02
0102
033E
0202
0602
0C02
183E
6002
8002
0000
3FFE
2000
2000
3FFE
2000
2000
3FFE
ENDCHAR
STARTCHAR ACC4
ENCODING 12392
SWIDTH 2000 0
DWIDTH 20 0
BBX 16 19 2 -4
BITMAP
0001
0011
7E11
0211
0211
0211
02F1
0411
0411
0C11
08F1
1811
3011
6011
C011
8011
0011
0001
0001
ENDCHAR
STARTCHAR ACC8
ENCODING 12393
SWIDTH 2000 0
DWIDTH 20 0
BBX 16 18 2 -3
BITMAP
0011
7F11
0111
0111
03F1
0211
0611
0411
09F1
3011
E011
0011
0011
1011
1000
1000
1000
1FFF
ENDCHAR
STARTCHAR ACCC
ENCODING 12394
SWIDTH 2000 0
DWIDTH 20 0
BBX 16 18 2 -3
BITMAP
0001
7F11
0111
0111
03F1
0211
0611
04F1
1811
3011
C000
1FFF
0001
0001
1FFF
1000
1000
1FFF
ENDCHAR
STARTCHAR ACD5
ENCODING 12395
SWIDTH 2000 0
DWIDTH 20 0
BBX 15 19 3 -4
BITMAP
0002
FE22
0222
07E2
0422
0422
0822
11E2
3022
C022
8020
2002
2002
3FFE
2002
2002
2002
3FFE
2002
ENDCHAR
STARTCHAR ACD7
ENCODING 12396
SWIDTH 2000 0
DWIDTH 20 0
BBX 15 19 3 -4
BITMAP
0022
FE22
0222
0222
07E2
0422
0422
0822
13E2
2022
C022
8002
0002
0080
01C0
0360
0630
1C0E
3002
ENDCHAR
STARTCHAR ACE0
ENCODING 12397
SWIDTH 2000 0
DWIDTH 20 0
BBX 18 14 1 -1
BITMAP
3FFF00
000100
000100
000100
000100
000100
008300
008200
008200
008200
008000
008000
008000
FFFFC0
ENDCHAR
STARTCHAR ACE1
ENCODING 12398
SWIDTH 2000 0
DWIDTH 20 0
BBX 18 18 1 -4
BITMAP
3FFF00
000300
000200
000200
008200
008200
008000
FFFFC0
000000
000000
000000
3FFE00
000200
000200
000200
000200
000200
000200
ENDCHAR
STARTCHAR ACE4
ENCODING 12399
SWIDTH 2000 0
DWIDTH 20 0
BBX 18 16 1 -2
BITMAP
3FFF00
000300
000300
000200
008200
008200
008000
008000
FFFFC0
000000
100000
100000
100000
100000
100000
1FFF00
ENDCHAR
STARTCHAR ACE7
ENCODING 12400
SWIDTH 2000 0
DWIDTH 20 0
BBX 18 17 1 -3
BITMAP
3FFF00
000300
000200
000200
008200
008200
008000
FFFFC0
000000
000000
1FFF00
100000
100000
100000
100000
100000
1FFF00
ENDCHAR
STARTCHAR ACE8
ENCODING 12401
SWIDTH 2000 0
DWIDTH 20 0
BBX 18 17 1 -3
BITMAP
3FFF00
000200
000200
000200
008200
008000
008000
FFFFC0
000000
000000
3FFE00
000200
000200
1FFE00
100000
100000
1FFF00
ENDCHAR
STARTCHAR ACEA
ENCODING 12402
SWIDTH 2000 0
DWIDTH 20 0
BBX 18 18 1 -4
BITMAP
3FFF00
000200
000200
008200
008200
008000
008000
FFFFC0
000000
000000
3F3E00
012200
012200
3F2200
202200
202200
3F3E00
202200
ENDCHAR
STARTCHAR ACEC
ENCODING 12403
SWIDTH 2000 0
DWIDTH 20 0
BBX 18 17 1 -3
BITMAP
3FFF00
000100
000300
000200
008200
008200
008000
FFFFC0
000000
000000
1F0800
010800
010800
3F1400
201400
202200
3F6100
ENDCHAR
STARTCHAR ACEF
ENCODING 12404
SWIDTH 2000 0
DWIDTH 20 0
BBX 18 17 1 -3
BITMAP
3FFE00
000200
000200
008200
008200
008400
FFFFC0
000000
000000
1F3C00
010000
01FF00
1F0000
103C00
104200
13C200
1C3C00
ENDCHAR
STARTCHAR ACF0
ENCODING 12405
SWIDTH 2000 0
DWIDTH 20 0
BBX 18 17 1 -3
BITMAP
3FFF00
000300
000200
000200
008200
008200
008000
FFFFC0
000000
000000
1FFE00
100200
100200
100200
100200
100200
1FFE00
ENDCHAR
STARTCHAR ACF1
ENCODING 12406
SWIDTH 2000 0
DWIDTH 20 0
BBX 18 18 1 -4
BITMAP
3FFF00
000300
000200
008200
008200
008200
008000
FFFFC0
000000
100000
100200
100200
1FFE00
100200
100200
100200
1FFE00
100000
ENDCHAR
STARTCHAR ACF3
ENCODING 12407
SWIDTH 2000 0
DWIDTH 20 0
BBX 18 17 1 -3
BITMAP
3FFF00
000300
000200
008200
008200
008200
008200
FFFFC0
000000
000000
00C000
00C000
01C000
012000
061000
1C0C00
300300
ENDCHAR
STARTCHAR ACF5
ENCODING 12408
SWIDTH 2000 0
DWIDTH 20 0
BBX 18 17 1 -3
BITMAP
3FFF00
000300
000200
008200
008200
008200
008000
FFFFC0
000000
000000
000000
07FC00
180600
200100
200100
180600
07F800
ENDCHAR
STARTCHAR ACF6
ENCODING 12409
SWIDTH 2000 0
DWIDTH 20 0
BBX 18 17 1 -3
BITMAP
3FFF00
000300
000200
008200
008200
008200
FFFFC0
000000
000000
000000
3FFF00
00C000
00C000
01E000
033000
1C1C00
300300
ENDCHAR
STARTCHAR ACFC
ENCODING 12410
SWIDTH 2000 0
DWIDTH 20 0
BBX 18 19 1 -4
BITMAP
000200
000200
7FE200
006200
006200
004200
084200
084200
084200
0843C0
080200
080200
08F200
FF0200
000200
000200
000200
000200
000200
ENDCHAR
STARTCHAR ACFD
ENCODING 12411
SWIDTH 2000 0
DWIDTH 20 0
BBX 18 19 1 -4
BITMAP
000200
7FC200
004200
004200
004200
084200
0843C0
080200
080200
FFE200
000200
000000
3FFE00
000200
000200
000200
000200
000200
000200
ENDCHAR
STARTCHAR AD00
ENCODING 12412
SWIDTH 2000 0
DWIDTH 20 0
BBX 18 18 1 -3
BITMAP
000200
7FC200
004200
004200
004200
084200
084200
0843C0
080200
081200
FFE200
000200
000200
200200
200000
200000
200000
3FFE00
ENDCHAR
STARTCHAR AD04
ENCODING 12413
SWIDTH 2000 0
DWIDTH 20 0
BBX 18 18 1 -3
BITMAP
000200
7FC200
004200
004200
084200
084200
0803C0
081200
FFE200
000200
000000
3FFE00
000200
000200
3FFE00
200000
200000
3FFE00
ENDCHAR
STARTCHAR AD06
ENCODING 12414
SWIDTH 2000 0
DWIDTH 20 0
BBX 18 19 1 -4
BITMAP
000200
7FC200
004200
004200
084200
0843C0
080200
080200
FFF200
000200
000000
3F7E00
014200
014200
3F4200
204200
204200
3F7E00
000200
ENDCHAR
STARTCHAR AD0C
ENCODING 12577
SWIDTH 2000 0
DWIDTH 20 0
BBX 18 19 1 -4
BITMAP
000200
7FC200
004200
004200
004200
084200
0843C0
080200
0FF200
FC0200
000200
000000
3FFE00
200200
200200
200200
200200
3FFE00
200200
ENDCHAR
STARTCHAR AD0D
ENCODING 12578
SWIDTH 2000 0
DWIDTH 20 0
BBX 18 19 1 -4
BITMAP
000200
7FC200
004200
004200
084200
084200
0843C0
080200
0BF200
FC0200
000200
000000
200200
200200
3FFE00
200200
200200
3FFE00
200200
ENDCHAR
STARTCHAR AD0F
ENCODING 12579
SWIDTH 2000 0
DWIDTH 20 0
BBX 18 19 1 -4
BITMAP
000200
7FE200
006200
004200
004200
084200
0843C0
084200
080200
FFF200
000200
000200
004200
004000
00E000
01A000
031800
0C0F00
180100
ENDCHAR
STARTCHAR AD11
ENCODING 12580
SWIDTH 2000 0
DWIDTH 20 0
BBX 18 18 1 -3
BITMAP
000200
7FC200
004200
004200
004200
084200
0843C0
080200
081200
FFE200
000200
000000
0FF800
100400
200200
200200
100C00
0FF800
ENDCHAR
STARTCHAR AD18
ENCODING 12581
SWIDTH 2000 0
DWIDTH 20 0
BBX 16 19 2 -4
BITMAP
0001
0011
7F11
0111
0111
0111
0111
1911
1111
131F
1011
1011
FFD1
0011
0011
0011
0011
0011
0001
ENDCHAR
STARTCHAR AD1C
ENCODING 12582
SWIDTH 2000 0
DWIDTH 20 0
BBX 16 18 2 -3
BITMAP
0001
7F11
0111
0111
0111
0111
1111
131F
1011
1191
FE11
0011
0011
2001
2000
2000
2000
3FFF
ENDCHAR
STARTCHAR AD20
ENCODING 12583
SWIDTH 2000 0
DWIDTH 20 0
BBX 16 18 2 -3
BITMAP
0001
7F91
0111
0111
1111
1111
1011
101F
1F91
E011
0001
1FFF
0001
0001
3FFF
2000
2000
3FFF
ENDCHAR
STARTCHAR AD29
ENCODING 12584
SWIDTH 2000 0
DWIDTH 20 0
BBX 16 19 2 -4
BITMAP
0011
7F11
0111
0111
0111
1111
101F
1011
1391
FC11
0000
0000
2001
2001
3FFF
2001
2001
3FFF
2001
ENDCHAR
STARTCHAR AD2C
ENCODING 12585
SWIDTH 2000 0
DWIDTH 20 0
BBX 16 19 3 -4
BITMAP
0004
FE44
0244
0244
2644
2444
207C
2044
7F44
8044
0004
0000
0C10
0810
0838
1428
3644
6283
C000
ENDCHAR
STARTCHAR AD2D
ENCODING 12586
SWIDTH 2000 0
DWIDTH 20 0
BBX 16 18 2 -3
BITMAP
0011
7F91
0191
0111
0111
1111
111F
1011
1791
F811
0011
0001
07F8
1806
2001
2001
3003
0FFC
ENDCHAR
STARTCHAR AD34
ENCODING 12587
SWIDTH 2000 0
DWIDTH 20 0
BBX 14 19 3 -4
BITMAP
0004
0004
FFC4
0044
0044
0044
0044
0844
0884
0884
0804
0804
3FF4
E004
0004
0004
0004
0004
0004
ENDCHAR
STARTCHAR AD35
ENCODING 12588
SWIDTH 2000 0
DWIDTH 20 0
BBX 14 18 3 -3
BITMAP
0004
FFC4
0044
0044
0044
0884
0884
0804
0874
FF84
0004
0000
7FFC
0004
0004
0004
0004
0004
ENDCHAR
STARTCHAR AD38
ENCODING 12589
SWIDTH 2000 0
DWIDTH 20 0
BBX 16 18 2 -3
BITMAP
0002
3FE2
0022
0022
0022
0422
0422
0402
0402
1FFA
E002
0002
0002
1002
1002
1000
1000
1FFF
ENDCHAR
STARTCHAR AD3C
ENCODING 12590
SWIDTH 2000 0
DWIDTH 20 0
BBX 15 18 3 -3
BITMAP
0004
FFC4
0044
0044
0844
0884
0804
0804
FFF4
0004
0000
3FFC
0004
0004
3FFC
2000
2000
3FFE
ENDCHAR
STARTCHAR AD44
ENCODING 12591
SWIDTH 2000 0
DWIDTH 20 0
BBX 14 19 3 -4
BITMAP
0004
FFC4
0044
0044
00C4
0884
0884
0804
0834
FFC4
0004
0000
3FFC
2004
2004
2004
2004
3FFC
2004
ENDCHAR
STARTCHAR AD45
ENCODING 12592
SWIDTH 2000 0
DWIDTH 20 0
BBX 14 19 3 -4
BITMAP
0004
FFC4
0044
0044
00C4
0884
0884
0804
0834
FFC4
0004
0000
2004
2004
3FFC
2004
2004
3FFC
2004
ENDCHAR
STARTCHAR AD47
ENCODING 12593
SWIDTH 2000 0
DWIDTH 20 0
BBX 15 18 2 -3
BITMAP
0002
7FC2
0042
0042
0042
0042
0842
0802
0802
0832
FFC2
0002
00C2
00C0
0160
0230
0C0E
3002
ENDCHAR
STARTCHAR AD49
ENCODING 12594
SWIDTH 2000 0
DWIDTH 20 0
BBX 15 18 3 -3
BITMAP
0004
FFC4
0044
0044
0884
0884
0884
0804
0814
FFE4
0004
0004
0FF0
300C
4002
4002
2004
1FF8
ENDCHAR
STARTCHAR AD50
ENCODING 12595
SWIDTH 2000 0
DWIDTH 20 0
BBX 18 14 1 -1
BITMAP
3FFF00
000100
000100
000100
000100
042100
042300
042200
042200
042200
042200
042000
042000
FFFFC0
ENDCHAR
STARTCHAR AD54
ENCODING 12596
SWIDTH 2000 0
DWIDTH 20 0
BBX 18 16 1 -2
BITMAP
3FFF00
000100
000300
000200
042200
042200
042000
042000
FFFFC0
000000
100000
100000
100000
100000
100000
1FFF00
ENDCHAR
STARTCHAR AD58
ENCODING 12597
SWIDTH 2000 0
DWIDTH 20 0
BBX 18 17 1 -3
BITMAP
3FFF00
000300
000200
000200
042200
042000
042000
FFFFC0
000000
000000
1FFF00
000100
000100
1FFF00
100000
100000
1FFF00
ENDCHAR
STARTCHAR AD61
ENCODING 12598
SWIDTH 2000 0
DWIDTH 20 0
BBX 18 18 1 -4
BITMAP
3FFF00
000200
000200
042200
042200
042200
042000
FFFFC0
000000
000200
100200
100200
1FFE00
100200
100200
100200
1FFE00
000200
ENDCHAR
STARTCHAR AD63
ENCODING 12599
SWIDTH 2000 0
DWIDTH 20 0
BBX 18 17 1 -3
BITMAP
3FFF00
000300
000300
000200
042200
042200
042200
042000
FFFFC0
000000
00C000
00C000
01C000
016000
063000
1C0C00
300300
ENDCHAR
STARTCHAR AD6C
ENCODING 12600
SWIDTH 2000 0
DWIDTH 20 0
BBX 18 17 1 -3
BITMAP
1FFF00
000100
000100
000200
000200
000200
000200
FFFFC0
004000
004000
004000
004000
004000
004000
004000
004000
004000
ENDCHAR
STARTCHAR AD6D
ENCODING 12601
SWIDTH 2000 0
DWIDTH 20 0
BBX 18 18 1 -4
BITMAP
3FFE00
000200
000200
000200
000400
000400
FFFFC0
008000
008000
008000
008000
3FFE00
000200
000200
000200
000200
000200
000200
ENDCHAR
STARTCHAR AD70
ENCODING 12602
SWIDTH 2000 0
DWIDTH 20 0
BBX 18 17 1 -3
BITMAP
1FFF00
000100
000100
000100
000300
000200
000200
FFFFC0
004000
004000
004000
204000
204000
200000
200000
200000
3FFE00
ENDCHAR
STARTCHAR AD73
ENCODING 12603
SWIDTH 2000 0
DWIDTH 20 0
BBX 17 17 1 -3
BITMAP
3FFE00
000200
000200
000200
000600
000400
FFFF80
008000
008000
008000
008000
1FFE00
100000
100000
100000
100000
1FFF00
ENDCHAR
STARTCHAR AD74
ENCODING 12604
SWIDTH 2000 0
DWIDTH 20 0
BBX 19 16 0 -2
BITMAP
1FFF00
000100
000100
000100
000300
FFFFE0
004000
004000
004000
1FFF00
000100
000100
1FFF00
100000
100000
1FFF00
ENDCHAR
STARTCHAR AD75
ENCODING 12605
SWIDTH 2000 0
DWIDTH 20 0
BBX 18 17 1 -3
BITMAP
3FFE00
000200
000200
000600
000400
FFFFC0
008000
008000
008000
3F7E00
010200
010200
010200
3F0200
200200
200200
3F0200
ENDCHAR
STARTCHAR AD76
ENCODING 12606
SWIDTH 2000 0
DWIDTH 20 0
BBX 19 18 1 -4
BITMAP
1FFF00
000100
000100
000300
000300
000200
FFFFE0
004000
004000
004000
3F3E00
012200
012200
1F2200
102200
102200
1FBE00
002000
ENDCHAR
STARTCHAR AD7B
ENCODING 12607
SWIDTH 2000 0
DWIDTH 20 0
BBX 17 17 1 -3
BITMAP
3FFE00
000200
000200
000200
000400
FFFF80
008000
008000
008000
1F3C00
010000
01FE00
010000
1F3E00
104200
104200
1FBE00
ENDCHAR
STARTCHAR AD7C
ENCODING 12608
SWIDTH 2000 0
DWIDTH 20 0
BBX 17 17 1 -3
BITMAP
3FFE00
000200
000200
000200
000200
000400
FFFF80
004000
004000
004000
004000
3FFE00
200200
200200
200200
200200
3FFE00
ENDCHAR
STARTCHAR AD7D
ENCODING 12609
SWIDTH 2000 0
DWIDTH 20 0
BBX 17 17 2 -3
BITMAP
3FFE00
000200
000200
000600
000600
000400
FFFF80
008000
008000
008000
208400
200400
3FFC00
200400
200400
200400
3FFC00
ENDCHAR
STARTCHAR AD7F
ENCODING 12610
SWIDTH 2000 0
DWIDTH 20 0
BBX 18 17 1 -3
BITMAP
3FFE00
000200
000200
000200
000400
000400
FFFFC0
008000
008000
008000
000000
00C000
00C000
012000
061000
1C0E00
300300
ENDCHAR
STARTCHAR AD81
ENCODING 12611
SWIDTH 2000 0
DWIDTH 20 0
BBX 18 17 1 -3
BITMAP
3FFE00
000200
000200
000200
000600
000400
FFFFC0
008000
008000
008000
03F000
1C0C00
200200
200200
200200
100600
0FF800
ENDCHAR
STARTCHAR AD82
ENCODING 12612
SWIDTH 2000 0
DWIDTH 20 0
BBX 17 17 1 -3
BITMAP
3FFE00
000200
000200
000200
000600
FFFF80
008000
008000
008000
000000
3FFF00
00C000
00C000
01E000
033000
0C0C00
300300
ENDCHAR
STARTCHAR AD88
ENCODING 12613
SWIDTH 2000 0
DWIDTH 20 0
BBX 16 19 2 -4
BITMAP
0001
0001
3FE1
0021
0021
0061
0041
0041
0059
FFE1
0201
0201
021F
0201
0201
0201
0201
0201
0001
ENDCHAR
STARTCHAR AD89
ENCODING 12614
SWIDTH 2000 0
DWIDTH 20 0
BBX 15 18 2 -3
BITMAP
0002
3FE2
0062
0062
0042
004A
FFF2
0202
023E
0202
0202
0000
3FFE
0002
0002
0002
0002
0002
ENDCHAR
STARTCHAR AD8C
ENCODING 12615
SWIDTH 2000 0
DWIDTH 20 0
BBX 16 18 2 -3
BITMAP
0001
3FE1
0021
0021
0021
0021
0061
0079
FFE1
0201
0201
021F
0201
1001
1001
1000
1000
1FFF
ENDCHAR
STARTCHAR AD90
ENCODING 12616
SWIDTH 2000 0
DWIDTH 20 0
BBX 16 18 2 -3
BITMAP
0001
3FE1
0021
0021
0041
0041
FFF9
0201
021F
0201
0000
1FFF
0001
0001
1FFF
1000
1000
1FFF
ENDCHAR
STARTCHAR AD9C
ENCODING 12617
SWIDTH 2000 0
DWIDTH 20 0
BBX 18 19 1 -4
BITMAP
000100
3FE100
006100
006100
004100
004900
FFF100
020100
021F00
020100
020100
000200
020600
020600
030600
050900
0C9880
183040
302000
ENDCHAR
STARTCHAR AD9D
ENCODING 12618
SWIDTH 2000 0
DWIDTH 20 0
BBX 16 18 2 -3
BITMAP
0001
3FE1
0061
0041
0041
0041
FFF1
0201
021F
0201
0001
07F8
1806
2001
2001
2001
1806
07F8
ENDCHAR
STARTCHAR ADA4
ENCODING 12619
SWIDTH 2000 0
DWIDTH 20 0
BBX 16 19 2 -4
BITMAP
0001
0011
7F11
0111
0111
0111
0111
0111
0391
FE11
0811
08F1
0811
0811
0811
0811
0811
0001
0001
ENDCHAR
STARTCHAR ADB7
ENCODING 12620
SWIDTH 2000 0
DWIDTH 20 0
BBX 16 19 2 -4
BITMAP
0012
7F12
0112
0312
0312
0212
0392
FC12
0812
08F2
0812
0812
0002
00C0
00C0
01A0
0318
0C0E
3001
ENDCHAR
STARTCHAR ADC0
ENCODING 12621
SWIDTH 2000 0
DWIDTH 20 0
BBX 15 19 2 -4
BITMAP
0002
0002
7FC2
0042
0042
0042
0042
0082
0082
FFF2
0202
0202
0202
0202
0202
0202
0202
0202
0002
ENDCHAR
STARTCHAR ADC1
ENCODING 12622
SWIDTH 2000 0
DWIDTH 20 0
BBX 15 19 2 -4
BITMAP
0002
0002
3FE2
0022
0062
0042
0042
FFFA
8202
0202
0202
0200
3FFE
0002
0002
0002
0002
0002
0002
ENDCHAR
STARTCHAR ADC4
ENCODING 12623
SWIDTH 2000 0
DWIDTH 20 0
BBX 16 18 2 -3
BITMAP
0002
3FE2
0022
0062
0042
0042
004A
FFF2
0202
0202
0202
0202
0202
1002
1002
1000
1000
1FFF
ENDCHAR
STARTCHAR ADC8
ENCODING 12624
SWIDTH 2000 0
DWIDTH 20 0
BBX 16 18 2 -3
BITMAP
0002
3FE2
0022
0062
0042
0042
FFFA
0202
0202
0202
0000
3FFE
0002
0002
1FFE
1000
1000
1FFF
ENDCHAR
STARTCHAR ADD0
ENCODING 12625
SWIDTH 2000 0
DWIDTH 20 0
BBX 15 19 2 -4
BITMAP
0002
0002
3FE2
0022
0062
0042
0042
FFFA
0202
0202
0202
0200
1FFE
1002
1002
1002
1002
1FFE
1002
ENDCHAR
STARTCHAR ADD1
ENCODING 12626
SWIDTH 2000 0
DWIDTH 20 0
BBX 15 19 2 -4
BITMAP
0002
0002
3FE2
0022
0062
0042
0042
FFFA
0202
0202
0202
1202
1002
1FFE
1002
1002
1002
1FFE
1002
ENDCHAR
STARTCHAR ADD3
ENCODING 12627
SWIDTH 2000 0
DWIDTH 20 0
BBX 17 18 1 -3
BITMAP
000100
3FE100
002100
002100
006100
004100
004100
FFF100
020100
020100
020100
022100
022100
006000
00D000
018C00
070700
0C0180
ENDCHAR
STARTCHAR ADDC
ENCODING 12628
SWIDTH 2000 0
DWIDTH 20 0
BBX 18 17 1 -3
BITMAP
3FFE00
000200
000200
000200
000200
000200
000400
FFFFC0
040800
040800
040800
040800
040800
040800
040800
040800
040800
ENDCHAR
STARTCHAR ADE0
ENCODING 12629
SWIDTH 2000 0
DWIDTH 20 0
BBX 18 17 1 -3
BITMAP
3FFF00
000100
000100
000100
000300
000200
000200
FFFFC0
020800
020800
020800
220800
220800
200000
200000
200000
3FFE00
ENDCHAR
STARTCHAR ADE4
ENCODING 12630
SWIDTH 2000 0
DWIDTH 20 0
BBX 18 16 1 -2
BITMAP
3FFE00
000200
000200
000200
000600
FFFFC0
040800
040800
040800
3FFE00
000200
000200
3FFE00
200000
200000
3FFE00
ENDCHAR
STARTCHAR ADF8
ENCODING 12631
SWIDTH 2000 0
DWIDTH 20 0
BBX 18 14 1 -1
BITMAP
3FFF00
000100
000100
000100
000300
000300
000200
000200
000200
000200
000200
000600
000400
FFFFC0
ENDCHAR
STARTCHAR ADF9
ENCODING 12632
SWIDTH 2000 0
DWIDTH 20 0
BBX 18 18 1 -4
BITMAP
3FFF00
000200
000200
000200
000200
000200
FFFFC0
000000
000000
000000
3FFE00
000200
000200
000200
000200
000200
000200
000200
ENDCHAR
STARTCHAR ADFC
ENCODING 12633
SWIDTH 2000 0
DWIDTH 20 0
BBX 18 16 1 -2
BITMAP
3FFF00
000300
000200
000200
000200
000200
000200
FFFFC0
000000
000000
200000
200000
200000
200000
200000
3FFE00
ENDCHAR
STARTCHAR ADFF
ENCODING 12634
SWIDTH 2000 0
DWIDTH 20 0
BBX 18 17 1 -3
BITMAP
3FFF00
000200
000200
000200
000200
000200
FFFFC0
000000
000000
000000
1FFF00
100000
100000
100000
100000
100000
1FFF00
ENDCHAR
STARTCHAR AE00
ENCODING 12635
SWIDTH 2000 0
DWIDTH 20 0
BBX 18 18 1 -3
BITMAP
3FFF00
000300
000200
000200
000200
000200
000200
FFFFC0
000000
000000
1FFE00
000200
000200
1FFE00
100000
100000
100000
1FFF00
ENDCHAR
STARTCHAR AE01
ENCODING 12636
SWIDTH 2000 0
DWIDTH 20 0
BBX 19 17 0 -3
BITMAP
1FFF00
000100
000100
000100
000200
000200
FFFFE0
000000
000000
0FFF00
004100
004100
1FC100
100100
100100
13C100
1C0100
ENDCHAR
STARTCHAR AE08
ENCODING 12637
SWIDTH 2000 0
DWIDTH 20 0
BBX 18 18 1 -4
BITMAP
3FFF00
000300
000200
000200
000200
000200
FFFFC0
000000
000000
000000
1FFE00
100200
100200
100200
100200
100200
1FFE00
000200
ENDCHAR
STARTCHAR AE09
ENCODING 12638
SWIDTH 2000 0
DWIDTH 20 0
BBX 18 18 1 -4
BITMAP
3FFF00
000300
000200
000200
000200
000200
FFFFC0
000000
000000
100200
100200
100200
1FFE00
100200
100200
100200
1FFE00
000200
ENDCHAR
STARTCHAR AE0B
ENCODING 12639
SWIDTH 2000 0
DWIDTH 20 0
BBX 18 17 1 -3
BITMAP
3FFF00
000300
000200
000200
000200
000200
000200
FFFFC0
000000
000000
00C000
00C000
00C000
012000
021800
0C0E00
300300
ENDCHAR
STARTCHAR AE0D
ENCODING 12640
SWIDTH 2000 0
DWIDTH 20 0
BBX 18 17 1 -3
BITMAP
3FFF00
000200
000200
000200
000200
000200
000600
FFFFC0
000000
000000
07F800
180600
200100
200100
200100
1C0E00
03F000
ENDCHAR
STARTCHAR AE14
ENCODING 12641
SWIDTH 2000 0
DWIDTH 20 0
BBX 15 19 2 -4
BITMAP
0002
0002
7FE2
0022
0022
0022
0022
0022
0062
0042
0002
0002
03FA
FC02
0002
0002
0002
0002
0002
ENDCHAR
STARTCHAR AE30
ENCODING 12642
SWIDTH 2000 0
DWIDTH 20 0
BBX 16 19 2 -4
BITMAP
0001
0001
7F81
0081
0081
0081
0081
0101
0101
0201
0601
0C01
1801
3001
E001
0001
0001
0001
0001
ENDCHAR
STARTCHAR AE31
ENCODING 12643
SWIDTH 2000 0
DWIDTH 20 0
BBX 15 19 2 -4
BITMAP
0002
7F82
0082
0082
0182
0102
0202
0402
1802
F002
0002
0000
3FFE
0002
0002
0002
0002
0002
0002
ENDCHAR
STARTCHAR AE34
ENCODING 12644
SWIDTH 2000 0
DWIDTH 20 0
BBX 15 18 3 -3
BITMAP
0004
7F84
0084
0084
0104
0104
0204
0604
1C04
7004
C004
0004
0004
2004
2000
2000
2000
3FFE
ENDCHAR
STARTCHAR AE37
ENCODING 12645
SWIDTH 2000 0
DWIDTH 20 0
BBX 15 18 3 -3
BITMAP
0002
FF02
0102
0102
0302
0202
0402
0802
3002
E002
8002
0000
3FFE
2000
2000
2000
2000
3FFE
ENDCHAR
STARTCHAR AE38
ENCODING 12646
SWIDTH 2000 0
DWIDTH 20 0
BBX 15 18 3 -3
BITMAP
0004
FF84
0104
0104
0304
0204
0404
1804
E004
8004
0000
3FFC
0004
0004
3FFC
2000
2000
3FFE
ENDCHAR
STARTCHAR AE3A
ENCODING 12647
SWIDTH 2000 0
DWIDTH 20 0
BBX 15 18 2 -3
BITMAP
0002
7FC2
0082
0082
0182
0102
0602
0C02
F002
0002
0000
1F3E
0122
0122
1F22
1022
103E
1FA2
ENDCHAR
STARTCHAR AE40
ENCODING 12648
SWIDTH 2000 0
DWIDTH 20 0
BBX 15 19 3 -4
BITMAP
0002
FF02
0102
0102
0302
0202
0402
0C02
3002
E002
8002
0000
3FFE
2002
2002
2002
2002
3FFE
2002
ENDCHAR
STARTCHAR AE41
ENCODING 12649
SWIDTH 2000 0
DWIDTH 20 0
BBX 15 19 2 -4
BITMAP
0002
7F82
0082
0082
0082
0102
0202
0402
1802
E002
0000
1002
1002
1FFE
1002
1002
1002
1FFE
1002
ENDCHAR
STARTCHAR AE43
ENCODING 12650
SWIDTH 2000 0
DWIDTH 20 0
BBX 16 18 2 -3
BITMAP
0002
FF82
0082
0182
0102
0102
0202
0402
0802
3002
C002
0042
00C2
00C0
0120
0618
1C0E
3001
ENDCHAR
STARTCHAR AE45
ENCODING 12651
SWIDTH 2000 0
DWIDTH 20 0
BBX 15 18 3 -3
BITMAP
0002
FF82
0182
0102
0102
0302
0602
0C02
1802
6002
8002
0FF0
300C
4002
4002
4002
300C
0FF0
ENDCHAR
STARTCHAR AE46
ENCODING 12652
SWIDTH 2000 0
DWIDTH 20 0
BBX 15 19 2 -4
BITMAP
0002
7F82
0082
0082
0102
0302
0202
0C02
3802
C002
0000
3FFE
0080
00C0
01C0
0120
0618
1C0E
3002
ENDCHAR
STARTCHAR AE4A
ENCODING 12653
SWIDTH 2000 0
DWIDTH 20 0
BBX 16 18 2 -3
BITMAP
0002
7F82
0082
0082
0182
0102
0202
0402
1802
F002
0000
3FFE
0000
0410
0410
0410
0410
7FFF
ENDCHAR
STARTCHAR AE4C
ENCODING 12654
SWIDTH 2000 0
DWIDTH 20 0
BBX 18 19 1 -4
BITMAP
000200
000200
7DE200
0C2200
082200
082200
082200
084200
104200
3043C0
208200
408200
810200
030200
020200
000200
000200
000200
000200
ENDCHAR
STARTCHAR AE4D
ENCODING 12655
SWIDTH 2000 0
DWIDTH 20 0
BBX 18 19 1 -4
BITMAP
000200
000200
79E200
082200
082200
182200
1063C0
304200
604200
C08200
010200
000000
3FFE00
000200
000200
000200
000200
000200
000200
ENDCHAR
STARTCHAR AE4E
ENCODING 12656
SWIDTH 2000 0
DWIDTH 20 0
BBX 18 19 1 -4
BITMAP
000200
000200
79E200
082200
082200
104200
1043C0
208200
408200
810200
020200
000000
3F7E00
010200
010200
010200
010200
010200
010200
ENDCHAR
STARTCHAR AE50
ENCODING 12657
SWIDTH 2000 0
DWIDTH 20 0
BBX 18 18 1 -3
BITMAP
000200
000200
7DE200
082200
082200
082200
106200
1043C0
20C200
408200
810200
020200
000200
200200
200000
200000
200000
3FFE00
ENDCHAR
STARTCHAR AE54
ENCODING 12658
SWIDTH 2000 0
DWIDTH 20 0
BBX 18 18 1 -3
BITMAP
000200
7DE200
082200
082200
084200
104200
3083C0
618200
C30200
020200
000000
3FFE00
000200
000200
3FFE00
200000
200000
3FFE00
ENDCHAR
STARTCHAR AE56
ENCODING 12659
SWIDTH 2000 0
DWIDTH 20 0
BBX 18 18 1 -3
BITMAP
000200
79E200
082200
082200
086200
1043C0
30C200
608200
C10200
020000
000000
3F7E00
014200
014200
3F4200
204200
207E00
3F4200
ENDCHAR
STARTCHAR AE5C
ENCODING 12660
SWIDTH 2000 0
DWIDTH 20 0
BBX 17 19 2 -4
BITMAP
000400
03C400
F84400
104400
104400
108400
308780
218400
410400
820400
000400
000000
7FFC00
400400
400400
400400
400400
7FFC00
400000
ENDCHAR
STARTCHAR AE5D
ENCODING 12661
SWIDTH 2000 0
DWIDTH 20 0
BBX 18 18 1 -3
BITMAP
000200
7DE200
082200
082200
082200
104200
30C3C0
608200
C10200
020200
000200
200200
200200
3FFE00
200200
200200
200200
3FFE00
ENDCHAR
STARTCHAR AE5F
ENCODING 12662
SWIDTH 2000 0
DWIDTH 20 0
BBX 18 19 1 -4
BITMAP
000200
7DE200
042200
042200
042200
086200
0843C0
104200
208200
C18200
010200
000200
006000
006000
00F000
009800
030C00
0E0300
180000
ENDCHAR
STARTCHAR AE60
ENCODING 12663
SWIDTH 2000 0
DWIDTH 20 0
BBX 18 19 1 -4
BITMAP
000200
7DE200
082200
082200
082200
186200
1043C0
204200
408200
810200
000200
000000
040C00
0C0C00
0C0C00
1A1C00
333200
606100
004000
ENDCHAR
STARTCHAR AE61
ENCODING 12664
SWIDTH 2000 0
DWIDTH 20 0
BBX 18 18 1 -3
BITMAP
000200
7C0200
0DE200
082200
082200
082200
106200
3043C0
604200
C08200
010200
010200
0FF800
100C00
200200
200200
100400
0FF800
ENDCHAR
STARTCHAR AE65
ENCODING 12665
SWIDTH 2000 0
DWIDTH 20 0
BBX 18 18 1 -3
BITMAP
000200
79E200
082200
082200
184200
104200
20C3C0
408200
810200
000200
000000
3FFC00
200000
200000
3FFC00
200000
200000
3FFE00
ENDCHAR
STARTCHAR AE68
ENCODING 12666
SWIDTH 2000 0
DWIDTH 20 0
BBX 16 19 2 -4
BITMAP
0001
0011
7B91
1891
1091
1091
1191
1111
2111
211F
4311
C211
8411
0411
0811
0011
0011
0011
0001
ENDCHAR
STARTCHAR AE69
ENCODING 12667
SWIDTH 2000 0
DWIDTH 20 0
BBX 16 19 2 -4
BITMAP
0001
7399
1099
1099
1099
2119
2119
421F
8619
0419
0011
0001
3FFF
0001
0001
0001
0001
0001
0001
ENDCHAR
STARTCHAR AE6C
ENCODING 12668
SWIDTH 2000 0
DWIDTH 20 0
BBX 16 18 2 -3
BITMAP
0001
0011
7B91
0891
1091
1091
1091
2111
211F
4211
8211
0411
0011
2011
2001
2000
2000
3FFF
ENDCHAR
STARTCHAR AE70
ENCODING 12669
SWIDTH 2000 0
DWIDTH 20 0
BBX 16 18 2 -3
BITMAP
0011
7391
1091
1091
1091
1111
211F
6311
C211
0411
0000
3FFF
0001
0001
3FFF
2000
2000
3FFF
ENDCHAR
STARTCHAR AE78
ENCODING 12670
SWIDTH 2000 0
DWIDTH 20 0
BBX 16 19 2 -4
BITMAP
0001
7F91
1891
1091
1091
1111
2111
211F
4211
8611
0011
0000
3FFF
2001
2001
2001
2001
3FFF
2001
ENDCHAR
STARTCHAR AE79
ENCODING 12833
SWIDTH 2000 0
DWIDTH 20 0
BBX 16 18 2 -3
BITMAP
0011
7391
1091
1091
1091
2091
211F
4111
C211
8611
0000
2001
2001
3FFF
2001
2001
2001
3FFF
ENDCHAR
STARTCHAR AE7B
ENCODING 12834
SWIDTH 2000 0
DWIDTH 20 0
BBX 16 19 2 -4
BITMAP
0002
F792
1092
1092
1192
1112
2112
631E
4212
8412
0412
0002
0040
0040
00A0
01B0
0318
0C07
1801
ENDCHAR
STARTCHAR AE7C
ENCODING 12835
SWIDTH 2000 0
DWIDTH 20 0
BBX 16 19 2 -4
BITMAP
0012
7792
1092
1092
1092
3192
211E
6112
4212
8212
0002
0600
0404
0604
060C
0B0C
1112
6023
0041
ENDCHAR
STARTCHAR AE7D
ENCODING 12836
SWIDTH 2000 0
DWIDTH 20 0
BBX 16 18 2 -3
BITMAP
0001
0011
7B91
0891
1891
1091
1091
311F
2111
4311
C211
0201
0FFC
3002
2001
2001
1802
07FC
ENDCHAR
STARTCHAR AE84
ENCODING 12837
SWIDTH 2000 0
DWIDTH 20 0
BBX 18 18 1 -3
BITMAP
000200
000200
79E200
082200
082200
082200
0863C0
104200
104200
304200
208200
4083C0
810200
030200
060200
000200
000200
000200
ENDCHAR
STARTCHAR AE85
ENCODING 12838
SWIDTH 2000 0
DWIDTH 20 0
BBX 18 19 1 -4
BITMAP
000200
79E200
082200
082200
0823C0
184200
104200
20C200
4083C0
810200
020200
000000
3FFE00
000200
000200
000200
000200
000200
000200
ENDCHAR
STARTCHAR AE8C
ENCODING 12839
SWIDTH 2000 0
DWIDTH 20 0
BBX 18 18 1 -3
BITMAP
000200
000200
79E200
0823C0
086200
084200
104200
3083C0
618200
C30200
020000
3FFE00
000200
000200
3FFE00
200000
200000
3FFE00
ENDCHAR
STARTCHAR AEBC
ENCODING 12840
SWIDTH 2000 0
DWIDTH 20 0
BBX 16 19 2 -4
BITMAP
0001
0001
7DE1
0C21
0821
0821
0841
1841
105F
3081
6081
C101
0301
0201
0001
0001
0001
0001
0001
ENDCHAR
STARTCHAR AEBD
ENCODING 12841
SWIDTH 2000 0
DWIDTH 20 0
BBX 16 19 2 -4
BITMAP
0001
7FE1
0841
0841
0841
1841
108F
3181
6101
C201
0001
0000
1FFF
0001
0001
0001
0001
0001
0001
ENDCHAR
STARTCHAR AEBE
ENCODING 12842
SWIDTH 2000 0
DWIDTH 20 0
BBX 16 19 2 -4
BITMAP
0001
7801
09E1
0821
0821
105F
3041
6081
C081
0101
0200
3F3F
0101
0101
0101
0101
0101
0101
0100
ENDCHAR
STARTCHAR AEC0
ENCODING 12843
SWIDTH 2000 0
DWIDTH 20 0
BBX 16 18 2 -3
BITMAP
0002
7DE2
0822
0862
0842
1842
105E
3082
6182
C302
0602
0002
0002
1002
1000
1000
1000
1FFF
ENDCHAR
STARTCHAR AEC4
ENCODING 12844
SWIDTH 2000 0
DWIDTH 20 0
BBX 16 18 2 -3
BITMAP
0002
79E2
0822
0822
0842
1042
30DE
6082
C102
0002
0000
1FFE
0002
0002
1FFE
1000
1000
1FFF
ENDCHAR
STARTCHAR AECC
ENCODING 12845
SWIDTH 2000 0
DWIDTH 20 0
BBX 14 19 3 -4
BITMAP
0004
FFC4
1084
1084
1084
3184
213C
4304
8204
0404
0004
0000
3FFC
2004
2004
2004
2004
3FFC
2000
ENDCHAR
STARTCHAR AECD
ENCODING 12846
SWIDTH 2000 0
DWIDTH 20 0
BBX 15 19 3 -4
BITMAP
0004
F7C4
1044
10C4
1084
20BC
2104
4304
8204
0404
0000
2002
2002
3FFE
2002
2002
2002
3FFE
2002
ENDCHAR
STARTCHAR AECF
ENCODING 12847
SWIDTH 2000 0
DWIDTH 20 0
BBX 15 19 2 -4
BITMAP
0002
7BC2
0842
0842
0842
1042
109E
2082
6102
C302
0602
0002
0042
00C0
00C0
0160
0330
0C0E
1000
ENDCHAR
STARTCHAR AED0
ENCODING 12848
SWIDTH 2000 0
DWIDTH 20 0
BBX 18 19 1 -4
BITMAP
000100
7DE100
042100
082100
084100
184100
10CF00
208100
C10100
020100
000100
000000
020400
020400
060E00
050A00
099100
10E0C0
200000
ENDCHAR
STARTCHAR AED1
ENCODING 12849
SWIDTH 2000 0
DWIDTH 20 0
BBX 15 18 3 -3
BITMAP
0004
0004
F784
1084
1084
1084
30BC
2104
4304
8204
0404
0004
1FF8
300C
4002
4002
3004
0FF8
ENDCHAR
STARTCHAR AED8
ENCODING 12850
SWIDTH 2000 0
DWIDTH 20 0
BBX 16 19 2 -4
BITMAP
0001
0011
7F91
1891
1191
1111
1111
3111
21F1
6311
4211
8211
0411
0C11
0811
0011
0011
0011
0001
ENDCHAR
STARTCHAR AED9
ENCODING 12851
SWIDTH 2000 0
DWIDTH 20 0
BBX 16 19 2 -4
BITMAP
0001
7F91
1091
1091
1191
2111
21F1
4211
8611
0C11
0011
0000
3FFF
0001
0001
0001
0001
0001
0001
ENDCHAR
STARTCHAR AEDC
ENCODING 12852
SWIDTH 2000 0
DWIDTH 20 0
BBX 17 18 2 -3
BITMAP
000100
779100
109100
109100
119100
21F100
211100
421100
861100
0C1100
001100
001100
001100
100100
100000
100000
100000
1FFF80
ENDCHAR
STARTCHAR AEE8
ENCODING 12853
SWIDTH 2000 0
DWIDTH 20 0
BBX 16 19 2 -4
BITMAP
0001
7F91
1091
1091
1191
3111
21F1
4211
C611
0C11
0011
0000
1FFF
1001
1001
1001
1001
1FFF
0001
ENDCHAR
STARTCHAR AEEB
ENCODING 12854
SWIDTH 2000 0
DWIDTH 20 0
BBX 16 19 2 -4
BITMAP
0011
0011
F791
1091
1091
2191
2171
4111
8211
0611
0C11
0000
0040
00C0
00E0
0120
0218
0C07
3001
ENDCHAR
STARTCHAR AEED
ENCODING 12855
SWIDTH 2000 0
DWIDTH 20 0
BBX 16 18 2 -3
BITMAP
0011
7791
1091
1091
1191
2111
2171
4211
C611
0C11
0011
0001
07F8
1806
2001
2001
1806
07F8
ENDCHAR
STARTCHAR AEF4
ENCODING 12856
SWIDTH 2000 0
DWIDTH 20 0
BBX 16 19 2 -4
BITMAP
0001
0001
7DE1
0821
082F
0821
0841
1841
1041
30CF
6081
C101
0301
0601
0001
0001
0001
0001
0001
ENDCHAR
STARTCHAR AEF8
ENCODING 12857
SWIDTH 2000 0
DWIDTH 20 0
BBX 15 18 3 -3
BITMAP
0002
F382
1082
1082
109E
2082
2102
4102
8202
061E
0002
0002
0002
2002
2000
2000
2000
3FFE
ENDCHAR
STARTCHAR AEFC
ENCODING 12858
SWIDTH 2000 0
DWIDTH 20 0
BBX 15 18 3 -3
BITMAP
0002
F002
13C2
1042
109E
2082
6082
C11E
8302
0202
0000
3FFE
0002
0002
3FFE
2000
2000
3FFE
ENDCHAR
STARTCHAR AF07
ENCODING 12859
SWIDTH 2000 0
DWIDTH 20 0
BBX 15 19 2 -4
BITMAP
0002
0002
79E2
0822
083E
0822
1842
1042
30DE
6082
C102
0302
0042
0040
00C0
01A0
0318
0E0E
1800
ENDCHAR
STARTCHAR AF08
ENCODING 12860
SWIDTH 2000 0
DWIDTH 20 0
BBX 16 19 2 -4
BITMAP
0002
FBC2
0842
1842
10FE
1082
2182
6102
C23E
0402
0002
0000
0408
0408
0C0C
0A14
11B2
6063
4040
ENDCHAR
STARTCHAR AF0D
ENCODING 12861
SWIDTH 2000 0
DWIDTH 20 0
BBX 16 18 2 -3
BITMAP
0001
79E1
0841
0841
084F
1041
3081
6181
C11F
0201
0000
3FFE
2000
2000
3FFE
2000
2000
3FFE
ENDCHAR
STARTCHAR AF10
ENCODING 12862
SWIDTH 2000 0
DWIDTH 20 0
BBX 16 19 2 -4
BITMAP
0009
0009
7BC9
1049
10C9
10F9
1089
3089
2089
6179
4109
8209
0609
0409
0009
0009
0009
0001
0001
ENDCHAR
STARTCHAR AF2C
ENCODING 12863
SWIDTH 2000 0
DWIDTH 20 0
BBX 18 14 1 -1
BITMAP
3E3F00
020100
020100
020100
020300
040200
040200
044200
0C4200
004000
004000
004000
004000
FFFFC0
ENDCHAR
STARTCHAR AF2D
ENCODING 12864
SWIDTH 2000 0
DWIDTH 20 0
BBX 18 18 1 -4
BITMAP
3E7F00
020200
020200
024200
044200
044200
004000
FFFFC0
000000
000000
000000
3FFE00
000200
000200
000200
000200
000200
000200
ENDCHAR
STARTCHAR AF30
ENCODING 12865
SWIDTH 2000 0
DWIDTH 20 0
BBX 18 16 1 -2
BITMAP
3E7F00
020300
020300
020200
064200
044200
004000
004000
FFFFC0
000000
100000
100000
100000
100000
100000
1FFF00
ENDCHAR
STARTCHAR AF32
ENCODING 12866
SWIDTH 2000 0
DWIDTH 20 0
BBX 18 17 1 -3
BITMAP
3E7F00
020200
020200
064200
044200
044200
004000
FFFFC0
000000
000000
203C00
20FF00
200000
207800
208600
208200
3EFC00
ENDCHAR
STARTCHAR AF34
ENCODING 12867
SWIDTH 2000 0
DWIDTH 20 0
BBX 18 17 1 -3
BITMAP
3E7F00
020300
020200
020200
024200
044200
004000
FFFFC0
000000
000000
3FFE00
000200
000200
1FFE00
100000
100000
1FFF00
ENDCHAR
STARTCHAR AF3C
ENCODING 12868
SWIDTH 2000 0
DWIDTH 20 0
BBX 18 18 1 -4
BITMAP
3E7F00
020200
020200
020200
044200
044200
004000
004000
FFFFC0
000000
000000
3FFE00
200200
200200
200200
200200
3FFE00
200000
ENDCHAR
ENDFONT
